<?xml version="1.0" standalone="no"?>
<!DOCTYPE svg PUBLIC "-//W3C//DTD SVG 1.1//EN"
"http://www.w3.org/Graphics/SVG/1.1/DTD/svg11.dtd">
<svg width="129.26" height="117.732" viewBox="0 0 2692.91 2452.76" version="1.1"
xmlns="http://www.w3.org/2000/svg"
xmlns:xlink="http://www.w3.org/1999/xlink">
<polyline points="755.847,817.689 757.435,818.027 766.075,819.397 768.007,819.599 776.649,820.053 777.559,820.077 812.991,820.077 813.899,820.053 822.541,819.599 824.473,819.397 833.113,818.027 834.707,817.687" style="stroke:rgb(255,0,0);stroke-width:23.622047;fill:none;stroke-opacity:0.5;stroke-linecap:round;stroke-linejoin:round;;fill:none"/>
<polyline points="755.847,817.689 757.435,818.027 766.075,819.397 768.007,819.599 776.649,820.053 777.559,820.077 812.991,820.077 813.899,820.053 822.541,819.599 824.473,819.397 833.113,818.027 834.707,817.687" style="stroke:rgb(0,0,0);stroke-width:1px;fill:none;stroke-opacity:1;stroke-linecap:round;stroke-linejoin:round;;fill:none"/>
<polyline points="755.847,817.689 757.435,818.027 766.075,819.397 768.007,819.599 776.649,820.053 777.559,820.077 812.991,820.077 813.899,820.053 822.541,819.599 824.473,819.397 833.113,818.027 834.707,817.687" style="stroke:rgb(255,0,0);stroke-width:23.622047;fill:none;stroke-opacity:0.5;stroke-linecap:round;stroke-linejoin:round;;fill:none"/>
<polyline points="755.847,817.689 757.435,818.027 766.075,819.397 768.007,819.599 776.649,820.053 777.559,820.077 812.991,820.077 813.899,820.053 822.541,819.599 824.473,819.397 833.113,818.027 834.707,817.687" style="stroke:rgb(0,0,0);stroke-width:1px;fill:none;stroke-opacity:1;stroke-linecap:round;stroke-linejoin:round;;fill:none"/>
<polyline points="827.776,720.077 762.776,720.077" style="stroke:rgb(255,0,0);stroke-width:23.622047;fill:none;stroke-opacity:0.5;stroke-linecap:round;stroke-linejoin:round;;fill:none"/>
<polyline points="827.776,720.077 762.776,720.077" style="stroke:rgb(0,0,0);stroke-width:1px;fill:none;stroke-opacity:1;stroke-linecap:round;stroke-linejoin:round;;fill:none"/>
<polyline points="827.776,720.077 762.776,720.077" style="stroke:rgb(255,0,0);stroke-width:23.622047;fill:none;stroke-opacity:0.5;stroke-linecap:round;stroke-linejoin:round;;fill:none"/>
<polyline points="827.776,720.077 762.776,720.077" style="stroke:rgb(0,0,0);stroke-width:1px;fill:none;stroke-opacity:1;stroke-linecap:round;stroke-linejoin:round;;fill:none"/>
<polyline points="834.51,817.729 833.113,818.027 824.473,819.397 822.541,819.599 813.899,820.053 812.991,820.077 777.559,820.077 776.649,820.053 768.007,819.599 766.075,819.397 757.435,818.027 756.037,817.729" style="stroke:rgb(255,0,0);stroke-width:23.622047;fill:none;stroke-opacity:0.5;stroke-linecap:round;stroke-linejoin:round;;fill:none"/>
<polyline points="834.51,817.729 833.113,818.027 824.473,819.397 822.541,819.599 813.899,820.053 812.991,820.077 777.559,820.077 776.649,820.053 768.007,819.599 766.075,819.397 757.435,818.027 756.037,817.729" style="stroke:rgb(0,0,0);stroke-width:1px;fill:none;stroke-opacity:1;stroke-linecap:round;stroke-linejoin:round;;fill:none"/>
<polyline points="834.51,817.729 833.113,818.027 824.473,819.397 822.541,819.599 813.899,820.053 812.991,820.077 777.559,820.077 776.649,820.053 768.007,819.599 766.075,819.397 757.435,818.027 756.037,817.729" style="stroke:rgb(255,0,0);stroke-width:23.622047;fill:none;stroke-opacity:0.5;stroke-linecap:round;stroke-linejoin:round;;fill:none"/>
<polyline points="834.51,817.729 833.113,818.027 824.473,819.397 822.541,819.599 813.899,820.053 812.991,820.077 777.559,820.077 776.649,820.053 768.007,819.599 766.075,819.397 757.435,818.027 756.037,817.729" style="stroke:rgb(0,0,0);stroke-width:1px;fill:none;stroke-opacity:1;stroke-linecap:round;stroke-linejoin:round;;fill:none"/>
<polyline points="1976.24,817.729 1974.84,818.027 1966.2,819.397 1964.27,819.599 1955.63,820.053 1954.72,820.077 1919.29,820.077 1918.38,820.053 1909.74,819.599 1907.81,819.397 1899.17,818.027 1897.77,817.729" style="stroke:rgb(255,0,0);stroke-width:23.622047;fill:none;stroke-opacity:0.5;stroke-linecap:round;stroke-linejoin:round;;fill:none"/>
<polyline points="1976.24,817.729 1974.84,818.027 1966.2,819.397 1964.27,819.599 1955.63,820.053 1954.72,820.077 1919.29,820.077 1918.38,820.053 1909.74,819.599 1907.81,819.397 1899.17,818.027 1897.77,817.729" style="stroke:rgb(0,0,0);stroke-width:1px;fill:none;stroke-opacity:1;stroke-linecap:round;stroke-linejoin:round;;fill:none"/>
<polyline points="1976.24,817.729 1974.84,818.027 1966.2,819.397 1964.27,819.599 1955.63,820.053 1954.72,820.077 1919.29,820.077 1918.38,820.053 1909.74,819.599 1907.81,819.397 1899.17,818.027 1897.77,817.729" style="stroke:rgb(255,0,0);stroke-width:23.622047;fill:none;stroke-opacity:0.5;stroke-linecap:round;stroke-linejoin:round;;fill:none"/>
<polyline points="1976.24,817.729 1974.84,818.027 1966.2,819.397 1964.27,819.599 1955.63,820.053 1954.72,820.077 1919.29,820.077 1918.38,820.053 1909.74,819.599 1907.81,819.397 1899.17,818.027 1897.77,817.729" style="stroke:rgb(0,0,0);stroke-width:1px;fill:none;stroke-opacity:1;stroke-linecap:round;stroke-linejoin:round;;fill:none"/>
<polyline points="762.763,720.077 827.788,720.077" style="stroke:rgb(255,0,0);stroke-width:23.622047;fill:none;stroke-opacity:0.5;stroke-linecap:round;stroke-linejoin:round;;fill:none"/>
<polyline points="762.763,720.077 827.788,720.077" style="stroke:rgb(0,0,0);stroke-width:1px;fill:none;stroke-opacity:1;stroke-linecap:round;stroke-linejoin:round;;fill:none"/>
<polyline points="762.763,720.077 827.788,720.077" style="stroke:rgb(255,0,0);stroke-width:23.622047;fill:none;stroke-opacity:0.5;stroke-linecap:round;stroke-linejoin:round;;fill:none"/>
<polyline points="762.763,720.077 827.788,720.077" style="stroke:rgb(0,0,0);stroke-width:1px;fill:none;stroke-opacity:1;stroke-linecap:round;stroke-linejoin:round;;fill:none"/>
<polyline points="1897.58,817.689 1899.17,818.027 1907.81,819.397 1909.74,819.599 1918.38,820.053 1919.29,820.077 1954.72,820.077 1955.63,820.053 1964.27,819.599 1966.2,819.397 1974.84,818.027 1976.44,817.686" style="stroke:rgb(255,0,0);stroke-width:23.622047;fill:none;stroke-opacity:0.5;stroke-linecap:round;stroke-linejoin:round;;fill:none"/>
<polyline points="1897.58,817.689 1899.17,818.027 1907.81,819.397 1909.74,819.599 1918.38,820.053 1919.29,820.077 1954.72,820.077 1955.63,820.053 1964.27,819.599 1966.2,819.397 1974.84,818.027 1976.44,817.686" style="stroke:rgb(0,0,0);stroke-width:1px;fill:none;stroke-opacity:1;stroke-linecap:round;stroke-linejoin:round;;fill:none"/>
<polyline points="1897.58,817.689 1899.17,818.027 1907.81,819.397 1909.74,819.599 1918.38,820.053 1919.29,820.077 1954.72,820.077 1955.63,820.053 1964.27,819.599 1966.2,819.397 1974.84,818.027 1976.44,817.686" style="stroke:rgb(255,0,0);stroke-width:23.622047;fill:none;stroke-opacity:0.5;stroke-linecap:round;stroke-linejoin:round;;fill:none"/>
<polyline points="1897.58,817.689 1899.17,818.027 1907.81,819.397 1909.74,819.599 1918.38,820.053 1919.29,820.077 1954.72,820.077 1955.63,820.053 1964.27,819.599 1966.2,819.397 1974.84,818.027 1976.44,817.686" style="stroke:rgb(0,0,0);stroke-width:1px;fill:none;stroke-opacity:1;stroke-linecap:round;stroke-linejoin:round;;fill:none"/>
<polyline points="1969.51,720.077 1904.51,720.077" style="stroke:rgb(255,0,0);stroke-width:23.622047;fill:none;stroke-opacity:0.5;stroke-linecap:round;stroke-linejoin:round;;fill:none"/>
<polyline points="1969.51,720.077 1904.51,720.077" style="stroke:rgb(0,0,0);stroke-width:1px;fill:none;stroke-opacity:1;stroke-linecap:round;stroke-linejoin:round;;fill:none"/>
<polyline points="1969.51,720.077 1904.51,720.077" style="stroke:rgb(255,0,0);stroke-width:23.622047;fill:none;stroke-opacity:0.5;stroke-linecap:round;stroke-linejoin:round;;fill:none"/>
<polyline points="1969.51,720.077 1904.51,720.077" style="stroke:rgb(0,0,0);stroke-width:1px;fill:none;stroke-opacity:1;stroke-linecap:round;stroke-linejoin:round;;fill:none"/>
<polyline points="1904.5,720.077 1969.52,720.077" style="stroke:rgb(255,0,0);stroke-width:23.622047;fill:none;stroke-opacity:0.5;stroke-linecap:round;stroke-linejoin:round;;fill:none"/>
<polyline points="1904.5,720.077 1969.52,720.077" style="stroke:rgb(0,0,0);stroke-width:1px;fill:none;stroke-opacity:1;stroke-linecap:round;stroke-linejoin:round;;fill:none"/>
<polyline points="1904.5,720.077 1969.52,720.077" style="stroke:rgb(255,0,0);stroke-width:23.622047;fill:none;stroke-opacity:0.5;stroke-linecap:round;stroke-linejoin:round;;fill:none"/>
<polyline points="1904.5,720.077 1969.52,720.077" style="stroke:rgb(0,0,0);stroke-width:1px;fill:none;stroke-opacity:1;stroke-linecap:round;stroke-linejoin:round;;fill:none"/>
</svg>
