<?xml version="1.0" standalone="no"?>
<!DOCTYPE svg PUBLIC "-//W3C//DTD SVG 1.1//EN"
"http://www.w3.org/Graphics/SVG/1.1/DTD/svg11.dtd">
<svg width="129.26" height="117.732" viewBox="0 0 2692.91 2452.76" version="1.1"
xmlns="http://www.w3.org/2000/svg"
xmlns:xlink="http://www.w3.org/1999/xlink">
<polyline points="755.686,817.607 757.435,818.027 766.075,819.397 777.559,820.077 813.899,820.053 824.473,819.397 833.113,818.027 834.869,817.605" style="stroke:rgb(255,0,0);stroke-width:23.622047;fill:none;stroke-opacity:0.5;stroke-linecap:round;stroke-linejoin:round;;fill:none"/>
<polyline points="755.686,817.607 757.435,818.027 766.075,819.397 777.559,820.077 813.899,820.053 824.473,819.397 833.113,818.027 834.869,817.605" style="stroke:rgb(0,0,0);stroke-width:1px;fill:none;stroke-opacity:1;stroke-linecap:round;stroke-linejoin:round;;fill:none"/>
<polyline points="827.776,720.077 762.776,720.077" style="stroke:rgb(255,0,0);stroke-width:23.622047;fill:none;stroke-opacity:0.5;stroke-linecap:round;stroke-linejoin:round;;fill:none"/>
<polyline points="827.776,720.077 762.776,720.077" style="stroke:rgb(0,0,0);stroke-width:1px;fill:none;stroke-opacity:1;stroke-linecap:round;stroke-linejoin:round;;fill:none"/>
<polyline points="827.776,720.077 762.776,720.077" style="stroke:rgb(255,0,0);stroke-width:23.622047;fill:none;stroke-opacity:0.5;stroke-linecap:round;stroke-linejoin:round;;fill:none"/>
<polyline points="827.776,720.077 762.776,720.077" style="stroke:rgb(0,0,0);stroke-width:1px;fill:none;stroke-opacity:1;stroke-linecap:round;stroke-linejoin:round;;fill:none"/>
<polyline points="834.869,817.605 833.113,818.027 824.473,819.397 813.899,820.053 777.559,820.077 768.007,819.599 757.435,818.027 755.686,817.607" style="stroke:rgb(255,0,0);stroke-width:23.622047;fill:none;stroke-opacity:0.5;stroke-linecap:round;stroke-linejoin:round;;fill:none"/>
<polyline points="834.869,817.605 833.113,818.027 824.473,819.397 813.899,820.053 777.559,820.077 768.007,819.599 757.435,818.027 755.686,817.607" style="stroke:rgb(0,0,0);stroke-width:1px;fill:none;stroke-opacity:1;stroke-linecap:round;stroke-linejoin:round;;fill:none"/>
</svg>
