<?xml version="1.0" standalone="no"?>
<!DOCTYPE svg PUBLIC "-//W3C//DTD SVG 1.1//EN"
"http://www.w3.org/Graphics/SVG/1.1/DTD/svg11.dtd">
<svg width="129.26" height="117.732" viewBox="0 0 2692.91 2452.76" version="1.1"
xmlns="http://www.w3.org/2000/svg"
xmlns:xlink="http://www.w3.org/1999/xlink">
<g fill-rule="evenodd"><path d="M 377.953,1893.7 L 379.329,1880.6 L 383.399,1868.08 L 389.983,1856.67 L 398.795,1846.89 L 409.449,1839.15 L 421.479,1833.79 L 434.36,1831.05 L 447.529,1831.05 L 460.411,1833.79 L 472.441,1839.15 L 483.095,1846.89 L 491.907,1856.67 L 498.491,1868.08 L 502.56,1880.6 L 503.937,1893.7 L 502.56,1906.8 L 498.491,1919.32 L 491.907,1930.73 L 483.095,1940.51 L 472.441,1948.25 L 460.411,1953.61 L 447.529,1956.35 L 434.36,1956.35 L 421.479,1953.61 L 409.449,1948.25 L 398.795,1940.51 L 389.983,1930.73 L 383.399,1919.32 L 379.329,1906.8 L 377.953,1893.7 z " style="fill-opacity:1.000000;fill:rgb(103,198,105);stroke:rgb(0,0,0);stroke-width:2"/></g>
<g fill-rule="evenodd"><path d="M 377.953,1093.7 L 379.329,1080.6 L 383.399,1068.08 L 389.983,1056.67 L 398.795,1046.89 L 409.449,1039.15 L 421.479,1033.79 L 434.36,1031.05 L 447.529,1031.05 L 460.411,1033.79 L 472.441,1039.15 L 483.095,1046.89 L 491.907,1056.67 L 498.491,1068.08 L 502.56,1080.6 L 503.937,1093.7 L 502.56,1106.8 L 498.491,1119.32 L 491.907,1130.73 L 483.095,1140.51 L 472.441,1148.25 L 460.411,1153.61 L 447.529,1156.35 L 434.36,1156.35 L 421.479,1153.61 L 409.449,1148.25 L 398.795,1140.51 L 389.983,1130.73 L 383.399,1119.32 L 379.329,1106.8 L 377.953,1093.7 z " style="fill-opacity:1.000000;fill:rgb(115,81,255);stroke:rgb(0,0,0);stroke-width:2"/></g>
<g fill-rule="evenodd"><path d="M 712.598,2038.98 L 712.598,1834.25 L 917.323,1834.25 L 917.323,2038.98 L 712.598,2038.98 z " style="fill-opacity:1.000000;fill:rgb(74,236,41);stroke:rgb(0,0,0);stroke-width:2"/></g>
<g fill-rule="evenodd"><path d="M 736.22,911.417 L 736.22,828.74 L 854.331,828.74 L 854.331,911.417 L 736.22,911.417 z " style="fill-opacity:1.000000;fill:rgb(205,186,171);stroke:rgb(0,0,0);stroke-width:2"/></g>
<g fill-rule="evenodd"><path d="M 736.447,774.4 L 736.447,765.758 L 738.244,757.304 L 741.759,749.409 L 746.839,742.418 L 753.261,736.635 L 760.745,732.314 L 768.964,729.644 L 777.559,728.74 L 812.992,728.74 L 821.587,729.644 L 829.806,732.314 L 837.29,736.635 L 843.713,742.418 L 848.792,749.409 L 852.307,757.304 L 854.104,765.758 L 854.104,774.4 L 852.307,782.853 L 848.792,790.748 L 843.713,797.74 L 837.29,803.522 L 829.806,807.843 L 821.587,810.514 L 812.992,811.417 L 777.559,811.417 L 768.964,810.514 L 760.745,807.843 L 753.261,803.522 L 746.839,797.74 L 741.759,790.748 L 738.244,782.853 L 736.447,774.4 z " style="fill-opacity:1.000000;fill:rgb(242,251,227);stroke:rgb(0,0,0);stroke-width:2"/></g>
<g fill-rule="evenodd"><path d="M 736.447,674.4 L 736.447,665.758 L 738.244,657.304 L 741.759,649.409 L 746.839,642.418 L 753.261,636.635 L 760.745,632.314 L 768.964,629.644 L 777.559,628.74 L 812.992,628.74 L 821.587,629.644 L 829.806,632.314 L 837.29,636.635 L 843.713,642.418 L 848.792,649.409 L 852.307,657.304 L 854.104,665.758 L 854.104,674.4 L 852.307,682.853 L 848.792,690.748 L 843.713,697.74 L 837.29,703.522 L 829.806,707.843 L 821.587,710.514 L 812.992,711.417 L 777.559,711.417 L 768.964,710.514 L 760.745,707.843 L 753.261,703.522 L 746.839,697.74 L 741.759,690.748 L 738.244,682.853 L 736.447,674.4 z " style="fill-opacity:1.000000;fill:rgb(70,124,194);stroke:rgb(0,0,0);stroke-width:2"/></g>
<g fill-rule="evenodd"><path d="M 883.465,1263.78 L 884.841,1250.68 L 888.911,1238.16 L 895.495,1226.75 L 904.307,1216.97 L 914.961,1209.23 L 926.991,1203.87 L 939.872,1201.13 L 953.041,1201.13 L 965.922,1203.87 L 977.953,1209.23 L 988.607,1216.97 L 997.418,1226.75 L 1004,1238.16 L 1008.07,1250.68 L 1009.45,1263.78 L 1008.07,1276.88 L 1004,1289.4 L 997.418,1300.81 L 988.607,1310.59 L 977.953,1318.33 L 965.922,1323.69 L 953.041,1326.43 L 939.872,1326.43 L 926.991,1323.69 L 914.961,1318.33 L 904.307,1310.59 L 895.495,1300.81 L 888.911,1289.4 L 884.841,1276.88 L 883.465,1263.78 z " style="fill-opacity:1.000000;fill:rgb(84,248,27);stroke:rgb(0,0,0);stroke-width:2"/></g>
<g fill-rule="evenodd"><path d="M 883.465,358.268 L 884.841,345.171 L 888.911,332.647 L 895.495,321.242 L 904.307,311.455 L 914.961,303.715 L 926.991,298.359 L 939.872,295.621 L 953.041,295.621 L 965.922,298.359 L 977.953,303.715 L 988.607,311.455 L 997.418,321.242 L 1004,332.647 L 1008.07,345.171 L 1009.45,358.268 L 1008.07,371.365 L 1004,383.889 L 997.418,395.294 L 988.607,405.08 L 977.953,412.82 L 965.922,418.177 L 953.041,420.915 L 939.872,420.915 L 926.991,418.177 L 914.961,412.82 L 904.307,405.08 L 895.495,395.294 L 888.911,383.889 L 884.841,371.365 L 883.465,358.268 z " style="fill-opacity:1.000000;fill:rgb(232,231,141);stroke:rgb(0,0,0);stroke-width:2"/></g>
<g fill-rule="evenodd"><path d="M 988.189,1936.61 L 990.426,1915.33 L 997.039,1894.98 L 1007.74,1876.45 L 1022.06,1860.54 L 1039.37,1847.97 L 1058.92,1839.26 L 1079.85,1834.81 L 1101.25,1834.81 L 1122.18,1839.26 L 1141.73,1847.97 L 1159.04,1860.54 L 1173.36,1876.45 L 1184.06,1894.98 L 1190.68,1915.33 L 1192.91,1936.61 L 1190.68,1957.9 L 1184.06,1978.25 L 1173.36,1996.78 L 1159.04,2012.68 L 1141.73,2025.26 L 1122.18,2033.97 L 1101.25,2038.42 L 1079.85,2038.42 L 1058.92,2033.97 L 1039.37,2025.26 L 1022.06,2012.68 L 1007.74,1996.78 L 997.039,1978.25 L 990.426,1957.9 L 988.189,1936.61 z " style="fill-opacity:1.000000;fill:rgb(118,90,46);stroke:rgb(0,0,0);stroke-width:2"/></g>
<g fill-rule="evenodd"><path d="M 1519.69,2035.43 L 1519.69,1830.71 L 1724.41,1830.71 L 1724.41,2035.43 L 1519.69,2035.43 z " style="fill-opacity:1.000000;fill:rgb(99,51,159);stroke:rgb(0,0,0);stroke-width:2"/></g>
<g fill-rule="evenodd"><path d="M 1683.46,1263.78 L 1684.84,1250.68 L 1688.91,1238.16 L 1695.49,1226.75 L 1704.31,1216.97 L 1714.96,1209.23 L 1726.99,1203.87 L 1739.87,1201.13 L 1753.04,1201.13 L 1765.92,1203.87 L 1777.95,1209.23 L 1788.61,1216.97 L 1797.42,1226.75 L 1804,1238.16 L 1808.07,1250.68 L 1809.45,1263.78 L 1808.07,1276.88 L 1804,1289.4 L 1797.42,1300.81 L 1788.61,1310.59 L 1777.95,1318.33 L 1765.92,1323.69 L 1753.04,1326.43 L 1739.87,1326.43 L 1726.99,1323.69 L 1714.96,1318.33 L 1704.31,1310.59 L 1695.49,1300.81 L 1688.91,1289.4 L 1684.84,1276.88 L 1683.46,1263.78 z " style="fill-opacity:1.000000;fill:rgb(201,154,102);stroke:rgb(0,0,0);stroke-width:2"/></g>
<g fill-rule="evenodd"><path d="M 1683.46,358.268 L 1684.84,345.171 L 1688.91,332.647 L 1695.49,321.242 L 1704.31,311.455 L 1714.96,303.715 L 1726.99,298.359 L 1739.87,295.621 L 1753.04,295.621 L 1765.92,298.359 L 1777.95,303.715 L 1788.61,311.455 L 1797.42,321.242 L 1804,332.647 L 1808.07,345.171 L 1809.45,358.268 L 1808.07,371.365 L 1804,383.889 L 1797.42,395.294 L 1788.61,405.08 L 1777.95,412.82 L 1765.92,418.177 L 1753.04,420.915 L 1739.87,420.915 L 1726.99,418.177 L 1714.96,412.82 L 1704.31,405.08 L 1695.49,395.294 L 1688.91,383.889 L 1684.84,371.365 L 1683.46,358.268 z " style="fill-opacity:1.000000;fill:rgb(50,13,183);stroke:rgb(0,0,0);stroke-width:2"/></g>
<g fill-rule="evenodd"><path d="M 1795.28,1933.07 L 1797.51,1911.79 L 1804.13,1891.44 L 1814.83,1872.9 L 1829.14,1857 L 1846.46,1844.42 L 1866.01,1835.72 L 1886.94,1831.27 L 1908.34,1831.27 L 1929.27,1835.72 L 1948.82,1844.42 L 1966.13,1857 L 1980.45,1872.9 L 1991.15,1891.44 L 1997.76,1911.79 L 2000,1933.07 L 1997.76,1954.35 L 1991.15,1974.71 L 1980.45,1993.24 L 1966.13,2009.14 L 1948.82,2021.72 L 1929.27,2030.42 L 1908.34,2034.87 L 1886.94,2034.87 L 1866.01,2030.42 L 1846.46,2021.72 L 1829.14,2009.14 L 1814.83,1993.24 L 1804.13,1974.71 L 1797.51,1954.35 L 1795.28,1933.07 z " style="fill-opacity:1.000000;fill:rgb(49,88,163);stroke:rgb(0,0,0);stroke-width:2"/></g>
<g fill-rule="evenodd"><path d="M 1877.95,911.417 L 1877.95,828.74 L 1996.06,828.74 L 1996.06,911.417 L 1877.95,911.417 z " style="fill-opacity:1.000000;fill:rgb(90,37,93);stroke:rgb(0,0,0);stroke-width:2"/></g>
<g fill-rule="evenodd"><path d="M 1878.18,774.4 L 1878.18,765.758 L 1879.98,757.304 L 1883.49,749.409 L 1888.57,742.418 L 1894.99,736.635 L 1902.48,732.314 L 1910.7,729.644 L 1919.29,728.74 L 1954.72,728.74 L 1963.32,729.644 L 1971.54,732.314 L 1979.02,736.635 L 1985.44,742.418 L 1990.52,749.409 L 1994.04,757.304 L 1995.84,765.758 L 1995.84,774.4 L 1994.04,782.853 L 1990.52,790.748 L 1985.44,797.74 L 1979.02,803.522 L 1971.54,807.843 L 1963.32,810.514 L 1954.72,811.417 L 1919.29,811.417 L 1910.7,810.514 L 1902.48,807.843 L 1894.99,803.522 L 1888.57,797.74 L 1883.49,790.748 L 1879.98,782.853 L 1878.18,774.4 z " style="fill-opacity:1.000000;fill:rgb(5,23,88);stroke:rgb(0,0,0);stroke-width:2"/></g>
<g fill-rule="evenodd"><path d="M 1878.18,674.4 L 1878.18,665.758 L 1879.98,657.304 L 1883.49,649.409 L 1888.57,642.418 L 1894.99,636.635 L 1902.48,632.314 L 1910.7,629.644 L 1919.29,628.74 L 1954.72,628.74 L 1963.32,629.644 L 1971.54,632.314 L 1979.02,636.635 L 1985.44,642.418 L 1990.52,649.409 L 1994.04,657.304 L 1995.84,665.758 L 1995.84,674.4 L 1994.04,682.853 L 1990.52,690.748 L 1985.44,697.74 L 1979.02,703.522 L 1971.54,707.843 L 1963.32,710.514 L 1954.72,711.417 L 1919.29,711.417 L 1910.7,710.514 L 1902.48,707.843 L 1894.99,703.522 L 1888.57,697.74 L 1883.49,690.748 L 1879.98,682.853 L 1878.18,674.4 z " style="fill-opacity:1.000000;fill:rgb(233,94,212);stroke:rgb(0,0,0);stroke-width:2"/></g>
<g fill-rule="evenodd"><path d="M 2188.98,1893.7 L 2190.35,1880.6 L 2194.42,1868.08 L 2201.01,1856.67 L 2209.82,1846.89 L 2220.47,1839.15 L 2232.5,1833.79 L 2245.38,1831.05 L 2258.55,1831.05 L 2271.43,1833.79 L 2283.46,1839.15 L 2294.12,1846.89 L 2302.93,1856.67 L 2309.51,1868.08 L 2313.58,1880.6 L 2314.96,1893.7 L 2313.58,1906.8 L 2309.51,1919.32 L 2302.93,1930.73 L 2294.12,1940.51 L 2283.46,1948.25 L 2271.43,1953.61 L 2258.55,1956.35 L 2245.38,1956.35 L 2232.5,1953.61 L 2220.47,1948.25 L 2209.82,1940.51 L 2201.01,1930.73 L 2194.42,1919.32 L 2190.35,1906.8 L 2188.98,1893.7 z " style="fill-opacity:1.000000;fill:rgb(171,178,205);stroke:rgb(0,0,0);stroke-width:2"/></g>
<g fill-rule="evenodd"><path d="M 2188.98,1093.7 L 2190.35,1080.6 L 2194.42,1068.08 L 2201.01,1056.67 L 2209.82,1046.89 L 2220.47,1039.15 L 2232.5,1033.79 L 2245.38,1031.05 L 2258.55,1031.05 L 2271.43,1033.79 L 2283.46,1039.15 L 2294.12,1046.89 L 2302.93,1056.67 L 2309.51,1068.08 L 2313.58,1080.6 L 2314.96,1093.7 L 2313.58,1106.8 L 2309.51,1119.32 L 2302.93,1130.73 L 2294.12,1140.51 L 2283.46,1148.25 L 2271.43,1153.61 L 2258.55,1156.35 L 2245.38,1156.35 L 2232.5,1153.61 L 2220.47,1148.25 L 2209.82,1140.51 L 2201.01,1130.73 L 2194.42,1119.32 L 2190.35,1106.8 L 2188.98,1093.7 z " style="fill-opacity:1.000000;fill:rgb(198,155,180);stroke:rgb(0,0,0);stroke-width:2"/></g>
</svg>
