<?xml version="1.0" standalone="no"?>
<!DOCTYPE svg PUBLIC "-//W3C//DTD SVG 1.1//EN"
"http://www.w3.org/Graphics/SVG/1.1/DTD/svg11.dtd">
<svg width="129.26" height="117.732" viewBox="0 0 2692.91 2452.76" version="1.1"
xmlns="http://www.w3.org/2000/svg"
xmlns:xlink="http://www.w3.org/1999/xlink">
<g fill-rule="evenodd"><path d="M 86.6126,2366.14 L 86.6126,122.047 L 358.268,122.047 L 358.268,149.013 L 348.487,149.013 L 321.651,154.717 L 296.587,165.875 L 274.391,182.001 L 256.033,202.389 L 242.317,226.149 L 233.839,252.241 L 231.384,275.59 L 165.353,275.59 L 163.846,275.889 L 162.569,276.743 L 161.715,278.02 L 161.416,279.527 L 161.715,281.033 L 162.569,282.311 L 163.846,283.164 L 165.353,283.464 L 231.384,283.464 L 233.839,306.811 L 242.317,332.905 L 256.033,356.665 L 274.391,377.053 L 296.587,393.179 L 321.651,404.337 L 348.487,410.041 L 358.268,410.041 L 358.268,476.377 L 358.567,477.883 L 359.421,479.161 L 360.698,480.014 L 362.205,480.314 L 363.711,480.014 L 364.988,479.161 L 365.842,477.883 L 366.142,476.377 L 366.142,410.041 L 375.921,410.041 L 402.757,404.337 L 427.821,393.179 L 450.017,377.053 L 468.375,356.665 L 482.091,332.905 L 490.569,306.811 L 493.023,283.464 L 559.055,283.464 L 560.561,283.164 L 561.838,282.311 L 562.692,281.033 L 562.992,279.527 L 562.692,278.02 L 561.838,276.743 L 560.561,275.889 L 559.055,275.59 L 493.023,275.59 L 490.569,252.241 L 482.091,226.149 L 468.375,202.389 L 450.017,182.001 L 427.821,165.875 L 402.757,154.717 L 375.921,149.013 L 366.142,149.013 L 366.142,122.047 L 2326.77,122.047 L 2326.77,149.013 L 2316.99,149.013 L 2290.15,154.717 L 2265.09,165.875 L 2242.89,182.001 L 2224.54,202.389 L 2210.82,226.149 L 2202.34,252.241 L 2199.89,275.59 L 2133.86,275.59 L 2132.35,275.889 L 2131.07,276.743 L 2130.22,278.02 L 2129.92,279.527 L 2130.22,281.033 L 2131.07,282.311 L 2132.35,283.164 L 2133.86,283.464 L 2199.89,283.464 L 2202.34,306.811 L 2210.82,332.905 L 2224.54,356.665 L 2242.89,377.053 L 2265.09,393.179 L 2290.15,404.337 L 2316.99,410.041 L 2326.77,410.041 L 2326.77,476.377 L 2327.07,477.883 L 2327.92,479.161 L 2329.2,480.014 L 2330.71,480.314 L 2332.22,480.014 L 2333.49,479.161 L 2334.35,477.883 L 2334.65,476.377 L 2334.65,410.041 L 2344.42,410.041 L 2371.26,404.337 L 2396.32,393.179 L 2418.52,377.053 L 2436.88,356.665 L 2450.59,332.905 L 2459.07,306.811 L 2461.53,283.464 L 2527.56,283.464 L 2529.07,283.164 L 2530.34,282.311 L 2531.2,281.033 L 2531.5,279.527 L 2531.2,278.02 L 2530.34,276.743 L 2529.07,275.889 L 2527.56,275.59 L 2461.53,275.59 L 2459.07,252.241 L 2450.59,226.149 L 2436.88,202.389 L 2418.52,182.001 L 2396.32,165.875 L 2371.26,154.717 L 2344.42,149.013 L 2334.65,149.013 L 2334.65,122.047 L 2606.3,122.047 L 2606.3,2366.14 L 2334.65,2366.14 L 2334.65,2299.8 L 2344.42,2299.8 L 2371.26,2294.1 L 2396.32,2282.94 L 2418.52,2266.82 L 2436.88,2246.43 L 2450.59,2222.67 L 2459.07,2196.57 L 2461.53,2173.23 L 2527.56,2173.23 L 2529.07,2172.93 L 2530.34,2172.07 L 2531.2,2170.8 L 2531.5,2169.29 L 2531.2,2167.78 L 2530.34,2166.51 L 2529.07,2165.65 L 2527.56,2165.35 L 2461.53,2165.35 L 2459.07,2142 L 2450.59,2115.91 L 2436.88,2092.15 L 2418.52,2071.76 L 2396.32,2055.64 L 2371.26,2044.48 L 2344.42,2038.78 L 2334.65,2038.78 L 2334.65,1972.44 L 2334.35,1970.93 L 2333.49,1969.66 L 2332.22,1968.8 L 2330.71,1968.5 L 2329.2,1968.8 L 2327.92,1969.66 L 2327.07,1970.93 L 2326.77,1972.44 L 2326.77,2038.78 L 2316.99,2038.78 L 2290.15,2044.48 L 2265.09,2055.64 L 2242.89,2071.76 L 2224.54,2092.15 L 2210.82,2115.91 L 2202.34,2142 L 2199.89,2165.35 L 2133.86,2165.35 L 2132.35,2165.65 L 2131.07,2166.51 L 2130.22,2167.78 L 2129.92,2169.29 L 2130.22,2170.8 L 2131.07,2172.07 L 2132.35,2172.93 L 2133.86,2173.23 L 2199.89,2173.23 L 2202.34,2196.57 L 2210.82,2222.67 L 2224.54,2246.43 L 2242.89,2266.82 L 2265.09,2282.94 L 2290.15,2294.1 L 2316.99,2299.8 L 2326.77,2299.8 L 2326.77,2366.14 L 366.142,2366.14 L 366.142,2299.8 L 375.921,2299.8 L 402.757,2294.1 L 427.821,2282.94 L 450.017,2266.82 L 468.375,2246.43 L 482.091,2222.67 L 490.569,2196.57 L 493.023,2173.23 L 559.055,2173.23 L 560.561,2172.93 L 561.838,2172.07 L 562.692,2170.8 L 562.992,2169.29 L 562.692,2167.78 L 561.838,2166.51 L 560.561,2165.65 L 559.055,2165.35 L 493.023,2165.35 L 490.569,2142 L 482.091,2115.91 L 468.375,2092.15 L 450.017,2071.76 L 427.821,2055.64 L 402.757,2044.48 L 375.921,2038.78 L 366.142,2038.78 L 366.142,1972.44 L 365.842,1970.93 L 364.988,1969.66 L 363.711,1968.8 L 362.205,1968.5 L 360.698,1968.8 L 359.421,1969.66 L 358.567,1970.93 L 358.268,1972.44 L 358.268,2038.78 L 348.487,2038.78 L 321.651,2044.48 L 296.587,2055.64 L 274.391,2071.76 L 256.033,2092.15 L 242.317,2115.91 L 233.839,2142 L 231.384,2165.35 L 165.353,2165.35 L 163.846,2165.65 L 162.569,2166.51 L 161.715,2167.78 L 161.416,2169.29 L 161.715,2170.8 L 162.569,2172.07 L 163.846,2172.93 L 165.353,2173.23 L 231.384,2173.23 L 233.839,2196.57 L 242.317,2222.67 L 256.033,2246.43 L 274.391,2266.82 L 296.587,2282.94 L 321.651,2294.1 L 348.487,2299.8 L 358.268,2299.8 L 358.268,2366.14 L 86.6126,2366.14 z " style="fill-opacity:1.000000;fill:rgb(103,198,105);stroke:rgb(0,0,0);stroke-width:2"/></g>
</svg>
