<?xml version="1.0" standalone="no"?>
<!DOCTYPE svg PUBLIC "-//W3C//DTD SVG 1.1//EN"
"http://www.w3.org/Graphics/SVG/1.1/DTD/svg11.dtd">
<svg width="129.26" height="117.732" viewBox="0 0 2692.91 2452.76" version="1.1"
xmlns="http://www.w3.org/2000/svg"
xmlns:xlink="http://www.w3.org/1999/xlink">
<g fill-rule="evenodd"><path d="M 0,2452.76 L 0,6.82121e-13 L 2692.91,6.82121e-13 L 2692.91,2452.76 L 0,2452.76 z " style="fill-opacity:0.200000;fill:rgb(103,198,105);"/></g>
<polyline points="47.2406,2366.14 47.9986,2373.82 50.2386,2381.21 53.8766,2388.01 58.7726,2393.98 64.7386,2398.87 71.5446,2402.51 78.9306,2404.75 86.6126,2405.51 358.267,2405.51 362.437,2405.14 366.141,2405.51 2326.77,2405.51 2330.47,2405.14 2334.64,2405.51 2606.3,2405.51 2613.98,2404.75 2621.36,2402.51 2628.17,2398.87 2634.14,2393.98 2639.03,2388.01 2642.67,2381.21 2644.91,2373.82 2645.67,2366.14 2645.67,122.047 2644.91,114.365 2642.67,106.979 2639.03,100.173 2634.14,94.2066 2628.17,89.3106 2621.36,85.6726 2613.98,83.4326 2606.3,82.6746 2334.64,82.6746 2330.47,83.0406 2326.77,82.6746 366.141,82.6746 362.437,83.0406 358.267,82.6746 86.6106,82.6746 78.9306,83.4326 71.5446,85.6726 64.7386,89.3106 58.7726,94.2066 53.8766,100.173 50.2386,106.979 47.9986,114.365 47.2406,122.047 47.2406,2366.14" style="stroke:rgb(103,198,105);stroke-width:78.740157;fill:none;stroke-opacity:0.5;stroke-linecap:round;stroke-linejoin:round;;fill:none"/>
<polyline points="47.2406,2366.14 47.9986,2373.82 50.2386,2381.21 53.8766,2388.01 58.7726,2393.98 64.7386,2398.87 71.5446,2402.51 78.9306,2404.75 86.6126,2405.51 358.267,2405.51 362.437,2405.14 366.141,2405.51 2326.77,2405.51 2330.47,2405.14 2334.64,2405.51 2606.3,2405.51 2613.98,2404.75 2621.36,2402.51 2628.17,2398.87 2634.14,2393.98 2639.03,2388.01 2642.67,2381.21 2644.91,2373.82 2645.67,2366.14 2645.67,122.047 2644.91,114.365 2642.67,106.979 2639.03,100.173 2634.14,94.2066 2628.17,89.3106 2621.36,85.6726 2613.98,83.4326 2606.3,82.6746 2334.64,82.6746 2330.47,83.0406 2326.77,82.6746 366.141,82.6746 362.437,83.0406 358.267,82.6746 86.6106,82.6746 78.9306,83.4326 71.5446,85.6726 64.7386,89.3106 58.7726,94.2066 53.8766,100.173 50.2386,106.979 47.9986,114.365 47.2406,122.047 47.2406,2366.14" style="stroke:rgb(0,0,0);stroke-width:1px;fill:none;stroke-opacity:1;stroke-linecap:round;stroke-linejoin:round;;fill:none"/>
<polyline points="270.557,2169.29 272.559,2150.23 278.481,2132.01 288.059,2115.42 300.879,2101.18 316.379,2089.92 333.881,2082.13 352.623,2078.15 358.267,2078.15 361.971,2077.78 366.141,2078.15 371.783,2078.15 390.525,2082.13 408.027,2089.92 423.527,2101.18 436.347,2115.42 445.925,2132.01 451.847,2150.23 453.849,2169.29 451.847,2188.34 445.925,2206.57 436.347,2223.16 423.527,2237.4 408.027,2248.66 390.523,2256.45 371.783,2260.43 366.141,2260.43 361.971,2260.8 358.267,2260.43 352.623,2260.43 333.883,2256.45 316.379,2248.66 300.879,2237.4 288.059,2223.16 278.481,2206.57 272.559,2188.34 270.557,2169.29" style="stroke:rgb(103,198,105);stroke-width:78.740157;fill:none;stroke-opacity:0.5;stroke-linecap:round;stroke-linejoin:round;;fill:none"/>
<polyline points="270.557,2169.29 272.559,2150.23 278.481,2132.01 288.059,2115.42 300.879,2101.18 316.379,2089.92 333.881,2082.13 352.623,2078.15 358.267,2078.15 361.971,2077.78 366.141,2078.15 371.783,2078.15 390.525,2082.13 408.027,2089.92 423.527,2101.18 436.347,2115.42 445.925,2132.01 451.847,2150.23 453.849,2169.29 451.847,2188.34 445.925,2206.57 436.347,2223.16 423.527,2237.4 408.027,2248.66 390.523,2256.45 371.783,2260.43 366.141,2260.43 361.971,2260.8 358.267,2260.43 352.623,2260.43 333.883,2256.45 316.379,2248.66 300.879,2237.4 288.059,2223.16 278.481,2206.57 272.559,2188.34 270.557,2169.29" style="stroke:rgb(0,0,0);stroke-width:1px;fill:none;stroke-opacity:1;stroke-linecap:round;stroke-linejoin:round;;fill:none"/>
<polyline points="270.557,279.525 272.559,260.471 278.481,242.249 288.059,225.655 300.879,211.419 316.379,200.157 333.883,192.365 352.625,188.383 358.267,188.383 361.971,188.017 366.141,188.383 371.781,188.383 390.523,192.365 408.027,200.157 423.527,211.419 436.347,225.657 445.925,242.249 451.847,260.471 453.849,279.525 451.847,298.579 445.925,316.805 436.347,333.395 423.527,347.633 408.027,358.895 390.525,366.687 371.783,370.669 366.141,370.669 361.971,371.035 358.267,370.669 352.623,370.669 333.881,366.687 316.379,358.895 300.879,347.633 288.059,333.397 278.481,316.805 272.559,298.579 270.557,279.525" style="stroke:rgb(103,198,105);stroke-width:78.740157;fill:none;stroke-opacity:0.5;stroke-linecap:round;stroke-linejoin:round;;fill:none"/>
<polyline points="270.557,279.525 272.559,260.471 278.481,242.249 288.059,225.655 300.879,211.419 316.379,200.157 333.883,192.365 352.625,188.383 358.267,188.383 361.971,188.017 366.141,188.383 371.781,188.383 390.523,192.365 408.027,200.157 423.527,211.419 436.347,225.657 445.925,242.249 451.847,260.471 453.849,279.525 451.847,298.579 445.925,316.805 436.347,333.395 423.527,347.633 408.027,358.895 390.525,366.687 371.783,370.669 366.141,370.669 361.971,371.035 358.267,370.669 352.623,370.669 333.881,366.687 316.379,358.895 300.879,347.633 288.059,333.397 278.481,316.805 272.559,298.579 270.557,279.525" style="stroke:rgb(0,0,0);stroke-width:1px;fill:none;stroke-opacity:1;stroke-linecap:round;stroke-linejoin:round;;fill:none"/>
<polyline points="2239.06,2169.29 2241.06,2150.23 2246.98,2132.01 2256.56,2115.42 2269.38,2101.18 2284.88,2089.92 2302.38,2082.13 2321.13,2078.15 2326.77,2078.15 2330.94,2077.78 2334.64,2078.15 2340.29,2078.15 2359.03,2082.13 2376.53,2089.92 2392.03,2101.18 2404.85,2115.42 2414.43,2132.01 2420.35,2150.23 2422.35,2169.29 2420.35,2188.34 2414.43,2206.57 2404.85,2223.16 2392.03,2237.4 2376.53,2248.66 2359.03,2256.45 2340.29,2260.43 2334.64,2260.43 2330.94,2260.8 2326.77,2260.43 2321.13,2260.43 2302.39,2256.45 2284.88,2248.66 2269.38,2237.4 2256.56,2223.16 2246.98,2206.57 2241.06,2188.34 2239.06,2169.29" style="stroke:rgb(103,198,105);stroke-width:78.740157;fill:none;stroke-opacity:0.5;stroke-linecap:round;stroke-linejoin:round;;fill:none"/>
<polyline points="2239.06,2169.29 2241.06,2150.23 2246.98,2132.01 2256.56,2115.42 2269.38,2101.18 2284.88,2089.92 2302.38,2082.13 2321.13,2078.15 2326.77,2078.15 2330.94,2077.78 2334.64,2078.15 2340.29,2078.15 2359.03,2082.13 2376.53,2089.92 2392.03,2101.18 2404.85,2115.42 2414.43,2132.01 2420.35,2150.23 2422.35,2169.29 2420.35,2188.34 2414.43,2206.57 2404.85,2223.16 2392.03,2237.4 2376.53,2248.66 2359.03,2256.45 2340.29,2260.43 2334.64,2260.43 2330.94,2260.8 2326.77,2260.43 2321.13,2260.43 2302.39,2256.45 2284.88,2248.66 2269.38,2237.4 2256.56,2223.16 2246.98,2206.57 2241.06,2188.34 2239.06,2169.29" style="stroke:rgb(0,0,0);stroke-width:1px;fill:none;stroke-opacity:1;stroke-linecap:round;stroke-linejoin:round;;fill:none"/>
<polyline points="2239.06,279.525 2241.06,260.471 2246.98,242.249 2256.56,225.655 2269.38,211.419 2284.88,200.157 2302.39,192.365 2321.13,188.383 2326.77,188.383 2330.94,188.017 2334.64,188.383 2340.28,188.383 2359.03,192.365 2376.53,200.159 2392.03,211.419 2404.85,225.657 2414.43,242.249 2420.35,260.471 2422.35,279.525 2420.35,298.579 2414.43,316.803 2404.85,333.395 2392.03,347.633 2376.53,358.895 2359.03,366.687 2340.29,370.669 2334.64,370.669 2330.94,371.035 2326.77,370.669 2321.13,370.669 2302.38,366.687 2284.88,358.895 2269.38,347.633 2256.56,333.397 2246.98,316.805 2241.06,298.579 2239.06,279.525" style="stroke:rgb(103,198,105);stroke-width:78.740157;fill:none;stroke-opacity:0.5;stroke-linecap:round;stroke-linejoin:round;;fill:none"/>
<polyline points="2239.06,279.525 2241.06,260.471 2246.98,242.249 2256.56,225.655 2269.38,211.419 2284.88,200.157 2302.39,192.365 2321.13,188.383 2326.77,188.383 2330.94,188.017 2334.64,188.383 2340.28,188.383 2359.03,192.365 2376.53,200.159 2392.03,211.419 2404.85,225.657 2414.43,242.249 2420.35,260.471 2422.35,279.525 2420.35,298.579 2414.43,316.803 2404.85,333.395 2392.03,347.633 2376.53,358.895 2359.03,366.687 2340.29,370.669 2334.64,370.669 2330.94,371.035 2326.77,370.669 2321.13,370.669 2302.38,366.687 2284.88,358.895 2269.38,347.633 2256.56,333.397 2246.98,316.805 2241.06,298.579 2239.06,279.525" style="stroke:rgb(0,0,0);stroke-width:1px;fill:none;stroke-opacity:1;stroke-linecap:round;stroke-linejoin:round;;fill:none"/>
<g fill-rule="evenodd"><path d="M 86.6126,2366.14 L 86.6126,122.047 L 358.268,122.047 L 358.268,149.013 L 348.487,149.013 L 321.651,154.717 L 296.587,165.875 L 274.391,182.001 L 256.033,202.389 L 242.317,226.149 L 233.839,252.241 L 231.384,275.59 L 165.353,275.59 L 163.846,275.889 L 162.569,276.743 L 161.715,278.02 L 161.416,279.527 L 161.715,281.033 L 162.569,282.311 L 163.846,283.164 L 165.353,283.464 L 231.384,283.464 L 233.839,306.811 L 242.317,332.905 L 256.033,356.665 L 274.391,377.053 L 296.587,393.179 L 321.651,404.337 L 348.487,410.041 L 358.268,410.041 L 358.268,476.377 L 358.567,477.883 L 359.421,479.161 L 360.698,480.014 L 362.205,480.314 L 363.711,480.014 L 364.988,479.161 L 365.842,477.883 L 366.142,476.377 L 366.142,410.041 L 375.921,410.041 L 402.757,404.337 L 427.821,393.179 L 450.017,377.053 L 468.375,356.665 L 482.091,332.905 L 490.569,306.811 L 493.023,283.464 L 559.055,283.464 L 560.561,283.164 L 561.838,282.311 L 562.692,281.033 L 562.992,279.527 L 562.692,278.02 L 561.838,276.743 L 560.561,275.889 L 559.055,275.59 L 493.023,275.59 L 490.569,252.241 L 482.091,226.149 L 468.375,202.389 L 450.017,182.001 L 427.821,165.875 L 402.757,154.717 L 375.921,149.013 L 366.142,149.013 L 366.142,122.047 L 2326.77,122.047 L 2326.77,149.013 L 2316.99,149.013 L 2290.15,154.717 L 2265.09,165.875 L 2242.89,182.001 L 2224.54,202.389 L 2210.82,226.149 L 2202.34,252.241 L 2199.89,275.59 L 2133.86,275.59 L 2132.35,275.889 L 2131.07,276.743 L 2130.22,278.02 L 2129.92,279.527 L 2130.22,281.033 L 2131.07,282.311 L 2132.35,283.164 L 2133.86,283.464 L 2199.89,283.464 L 2202.34,306.811 L 2210.82,332.905 L 2224.54,356.665 L 2242.89,377.053 L 2265.09,393.179 L 2290.15,404.337 L 2316.99,410.041 L 2326.77,410.041 L 2326.77,476.377 L 2327.07,477.883 L 2327.92,479.161 L 2329.2,480.014 L 2330.71,480.314 L 2332.22,480.014 L 2333.49,479.161 L 2334.35,477.883 L 2334.65,476.377 L 2334.65,410.041 L 2344.42,410.041 L 2371.26,404.337 L 2396.32,393.179 L 2418.52,377.053 L 2436.88,356.665 L 2450.59,332.905 L 2459.07,306.811 L 2461.53,283.464 L 2527.56,283.464 L 2529.07,283.164 L 2530.34,282.311 L 2531.2,281.033 L 2531.5,279.527 L 2531.2,278.02 L 2530.34,276.743 L 2529.07,275.889 L 2527.56,275.59 L 2461.53,275.59 L 2459.07,252.241 L 2450.59,226.149 L 2436.88,202.389 L 2418.52,182.001 L 2396.32,165.875 L 2371.26,154.717 L 2344.42,149.013 L 2334.65,149.013 L 2334.65,122.047 L 2606.3,122.047 L 2606.3,2366.14 L 2334.65,2366.14 L 2334.65,2299.8 L 2344.42,2299.8 L 2371.26,2294.1 L 2396.32,2282.94 L 2418.52,2266.82 L 2436.88,2246.43 L 2450.59,2222.67 L 2459.07,2196.57 L 2461.53,2173.23 L 2527.56,2173.23 L 2529.07,2172.93 L 2530.34,2172.07 L 2531.2,2170.8 L 2531.5,2169.29 L 2531.2,2167.78 L 2530.34,2166.51 L 2529.07,2165.65 L 2527.56,2165.35 L 2461.53,2165.35 L 2459.07,2142 L 2450.59,2115.91 L 2436.88,2092.15 L 2418.52,2071.76 L 2396.32,2055.64 L 2371.26,2044.48 L 2344.42,2038.78 L 2334.65,2038.78 L 2334.65,1972.44 L 2334.35,1970.93 L 2333.49,1969.66 L 2332.22,1968.8 L 2330.71,1968.5 L 2329.2,1968.8 L 2327.92,1969.66 L 2327.07,1970.93 L 2326.77,1972.44 L 2326.77,2038.78 L 2316.99,2038.78 L 2290.15,2044.48 L 2265.09,2055.64 L 2242.89,2071.76 L 2224.54,2092.15 L 2210.82,2115.91 L 2202.34,2142 L 2199.89,2165.35 L 2133.86,2165.35 L 2132.35,2165.65 L 2131.07,2166.51 L 2130.22,2167.78 L 2129.92,2169.29 L 2130.22,2170.8 L 2131.07,2172.07 L 2132.35,2172.93 L 2133.86,2173.23 L 2199.89,2173.23 L 2202.34,2196.57 L 2210.82,2222.67 L 2224.54,2246.43 L 2242.89,2266.82 L 2265.09,2282.94 L 2290.15,2294.1 L 2316.99,2299.8 L 2326.77,2299.8 L 2326.77,2366.14 L 366.142,2366.14 L 366.142,2299.8 L 375.921,2299.8 L 402.757,2294.1 L 427.821,2282.94 L 450.017,2266.82 L 468.375,2246.43 L 482.091,2222.67 L 490.569,2196.57 L 493.023,2173.23 L 559.055,2173.23 L 560.561,2172.93 L 561.838,2172.07 L 562.692,2170.8 L 562.992,2169.29 L 562.692,2167.78 L 561.838,2166.51 L 560.561,2165.65 L 559.055,2165.35 L 493.023,2165.35 L 490.569,2142 L 482.091,2115.91 L 468.375,2092.15 L 450.017,2071.76 L 427.821,2055.64 L 402.757,2044.48 L 375.921,2038.78 L 366.142,2038.78 L 366.142,1972.44 L 365.842,1970.93 L 364.988,1969.66 L 363.711,1968.8 L 362.205,1968.5 L 360.698,1968.8 L 359.421,1969.66 L 358.567,1970.93 L 358.268,1972.44 L 358.268,2038.78 L 348.487,2038.78 L 321.651,2044.48 L 296.587,2055.64 L 274.391,2071.76 L 256.033,2092.15 L 242.317,2115.91 L 233.839,2142 L 231.384,2165.35 L 165.353,2165.35 L 163.846,2165.65 L 162.569,2166.51 L 161.715,2167.78 L 161.416,2169.29 L 161.715,2170.8 L 162.569,2172.07 L 163.846,2172.93 L 165.353,2173.23 L 231.384,2173.23 L 233.839,2196.57 L 242.317,2222.67 L 256.033,2246.43 L 274.391,2266.82 L 296.587,2282.94 L 321.651,2294.1 L 348.487,2299.8 L 358.268,2299.8 L 358.268,2366.14 L 86.6126,2366.14 z " style="fill-opacity:1.000000;fill:rgb(103,198,105);stroke:rgb(0,0,0);stroke-width:2"/></g>
</svg>
