<?xml version="1.0" standalone="no"?>
<!DOCTYPE svg PUBLIC "-//W3C//DTD SVG 1.1//EN"
"http://www.w3.org/Graphics/SVG/1.1/DTD/svg11.dtd">
<svg width="129.26" height="117.732" viewBox="0 0 2692.91 2452.76" version="1.1"
xmlns="http://www.w3.org/2000/svg"
xmlns:xlink="http://www.w3.org/1999/xlink">
<polyline points="346.463,1893.7 348.529,1874.06 353.451,1858.35 356.129,1852.33 362.713,1840.93 366.583,1835.6 377.725,1823.49 393.705,1811.88 411.749,1803.84 427.813,1800.25 434.359,1799.56 450.821,1799.74 470.141,1803.84 488.185,1811.88 504.163,1823.49 517.381,1838.17 527.257,1855.27 532.507,1870.87 533.359,1874.06 534.315,1881.5 530.397,1886.14 534.315,1881.5 681.109,1881.5 686.873,1887.26 681.109,1881.5 681.109,1834.25 681.715,1828.11 683.507,1822.2 686.417,1816.76 690.333,1811.98 695.103,1808.07 700.547,1805.16 706.455,1803.37 712.597,1802.76 892.349,1802.76 913.141,1811.37 922.295,1816.19 929.515,1822.06 935.383,1829.28 940.195,1838.43 948.811,1859.23 948.811,1879.11 944.985,1902.72 944.149,1910.98 942.987,1932.9 943.027,1940.84 944.161,1962.76 945.073,1971.01 948.811,1994.11 948.811,2038.97 948.205,2045.12 946.413,2051.02 943.503,2056.47 939.587,2061.24 934.817,2065.16 929.373,2068.07 923.465,2069.86 917.323,2070.46 712.597,2070.46 706.455,2069.86 700.547,2068.07 695.103,2065.16 690.333,2061.24 686.417,2056.47 683.507,2051.02 681.715,2045.12 681.109,2038.97 681.109,1991.72 686.873,1985.96 681.109,1991.72 483.855,1991.72 476.161,1991.12 470.107,1989.91 462.767,1987.53 459.555,1985.98 459.617,1985.23 459.555,1985.98 450.821,1987.66 434.359,1987.83 427.813,1987.15 414.931,1984.41 408.671,1982.37 393.705,1975.52 380.287,1965.99 375.395,1961.58 364.509,1949.23 356.129,1935.06 353.451,1929.05 349.381,1916.53 348.013,1910.09 346.463,1893.7 366.141,1893.7 367.775,1878.15 372.609,1863.27 380.427,1849.73 390.017,1838.98 391.851,1837.33 402.505,1829.59 404.645,1828.36 417.829,1822.56 433.125,1819.31 448.763,1819.31 464.059,1822.56 478.345,1828.92 490.997,1838.11 501.461,1849.73 508.719,1862.17 509.723,1864.43 513.793,1876.95 514.307,1879.37 515.747,1893.7 515.027,1901.18 700.787,1901.18 700.787,1834.25 701.013,1831.95 701.685,1829.73 702.777,1827.69 704.247,1825.9 706.035,1824.43 708.077,1823.34 710.293,1822.67 712.597,1822.44 917.323,1822.44 919.627,1822.67 921.843,1823.34 923.885,1824.43 925.673,1825.9 927.143,1827.69 928.235,1829.73 928.907,1831.95 929.133,1834.25 929.133,2038.97 928.907,2041.28 928.235,2043.49 927.143,2045.54 925.673,2047.33 923.885,2048.8 921.843,2049.89 919.627,2050.56 917.323,2050.79 712.597,2050.79 710.293,2050.56 708.077,2049.89 706.035,2048.8 704.247,2047.33 702.777,2045.54 701.685,2043.49 701.013,2041.28 700.787,2038.97 700.787,1972.04 483.855,1972.04 478.089,1971.53 471.387,1969.74 465.165,1966.67 462.955,1965.14 449.985,1967.9 447.529,1968.16 433.125,1968.09 419.023,1965.16 416.675,1964.4 404.645,1959.04 402.505,1957.81 390.891,1949.29 380.427,1937.67 372.609,1924.12 368.095,1910.45 367.583,1908.03 366.141,1893.7" style="stroke:rgb(103,198,105);stroke-width:23.622047;fill:none;stroke-opacity:0.5;stroke-linecap:round;stroke-linejoin:round;;fill:none"/>
<polyline points="346.463,1893.7 348.529,1874.06 353.451,1858.35 356.129,1852.33 362.713,1840.93 366.583,1835.6 377.725,1823.49 393.705,1811.88 411.749,1803.84 427.813,1800.25 434.359,1799.56 450.821,1799.74 470.141,1803.84 488.185,1811.88 504.163,1823.49 517.381,1838.17 527.257,1855.27 532.507,1870.87 533.359,1874.06 534.315,1881.5 530.397,1886.14 534.315,1881.5 681.109,1881.5 686.873,1887.26 681.109,1881.5 681.109,1834.25 681.715,1828.11 683.507,1822.2 686.417,1816.76 690.333,1811.98 695.103,1808.07 700.547,1805.16 706.455,1803.37 712.597,1802.76 892.349,1802.76 913.141,1811.37 922.295,1816.19 929.515,1822.06 935.383,1829.28 940.195,1838.43 948.811,1859.23 948.811,1879.11 944.985,1902.72 944.149,1910.98 942.987,1932.9 943.027,1940.84 944.161,1962.76 945.073,1971.01 948.811,1994.11 948.811,2038.97 948.205,2045.12 946.413,2051.02 943.503,2056.47 939.587,2061.24 934.817,2065.16 929.373,2068.07 923.465,2069.86 917.323,2070.46 712.597,2070.46 706.455,2069.86 700.547,2068.07 695.103,2065.16 690.333,2061.24 686.417,2056.47 683.507,2051.02 681.715,2045.12 681.109,2038.97 681.109,1991.72 686.873,1985.96 681.109,1991.72 483.855,1991.72 476.161,1991.12 470.107,1989.91 462.767,1987.53 459.555,1985.98 459.617,1985.23 459.555,1985.98 450.821,1987.66 434.359,1987.83 427.813,1987.15 414.931,1984.41 408.671,1982.37 393.705,1975.52 380.287,1965.99 375.395,1961.58 364.509,1949.23 356.129,1935.06 353.451,1929.05 349.381,1916.53 348.013,1910.09 346.463,1893.7 366.141,1893.7 367.775,1878.15 372.609,1863.27 380.427,1849.73 390.017,1838.98 391.851,1837.33 402.505,1829.59 404.645,1828.36 417.829,1822.56 433.125,1819.31 448.763,1819.31 464.059,1822.56 478.345,1828.92 490.997,1838.11 501.461,1849.73 508.719,1862.17 509.723,1864.43 513.793,1876.95 514.307,1879.37 515.747,1893.7 515.027,1901.18 700.787,1901.18 700.787,1834.25 701.013,1831.95 701.685,1829.73 702.777,1827.69 704.247,1825.9 706.035,1824.43 708.077,1823.34 710.293,1822.67 712.597,1822.44 917.323,1822.44 919.627,1822.67 921.843,1823.34 923.885,1824.43 925.673,1825.9 927.143,1827.69 928.235,1829.73 928.907,1831.95 929.133,1834.25 929.133,2038.97 928.907,2041.28 928.235,2043.49 927.143,2045.54 925.673,2047.33 923.885,2048.8 921.843,2049.89 919.627,2050.56 917.323,2050.79 712.597,2050.79 710.293,2050.56 708.077,2049.89 706.035,2048.8 704.247,2047.33 702.777,2045.54 701.685,2043.49 701.013,2041.28 700.787,2038.97 700.787,1972.04 483.855,1972.04 478.089,1971.53 471.387,1969.74 465.165,1966.67 462.955,1965.14 449.985,1967.9 447.529,1968.16 433.125,1968.09 419.023,1965.16 416.675,1964.4 404.645,1959.04 402.505,1957.81 390.891,1949.29 380.427,1937.67 372.609,1924.12 368.095,1910.45 367.583,1908.03 366.141,1893.7" style="stroke:rgb(0,0,0);stroke-width:1px;fill:none;stroke-opacity:1;stroke-linecap:round;stroke-linejoin:round;;fill:none"/>
<polyline points="1673.71,1246.7 1670.32,1252.69 1664.52,1264.84 1662.19,1270.5 1657.49,1283.77 1655.82,1289.45 1660.14,1302.21 1670.02,1319.31 1683.24,1333.99 1691.34,1340.1 1693.41,1339.06 1691.34,1340.1 1691.34,1785.83 1692.84,1786.45 1691.34,1785.83 1677.96,1799.22 1678.58,1800.72 1677.96,1799.22 1519.68,1799.22 1513.54,1799.82 1507.63,1801.62 1502.19,1804.53 1497.42,1808.44 1493.5,1813.21 1490.59,1818.66 1488.8,1824.56 1488.2,1830.71 1488.2,2035.43 1507.87,2035.43 1488.2,2035.43 1488.8,2041.57 1490.59,2047.48 1493.5,2052.93 1497.42,2057.7 1502.19,2061.61 1507.63,2064.52 1513.54,2066.31 1519.68,2066.92 1724.41,2066.92 1730.55,2066.31 1736.46,2064.52 1741.9,2061.61 1746.67,2057.7 1750.59,2052.93 1753.5,2047.48 1755.29,2041.57 1755.9,2035.43 1755.9,1990.57 1752.16,1967.47 1751.25,1959.21 1750.11,1937.3 1750.08,1929.36 1751.25,1906.92 1752.16,1898.67 1755.22,1879.36 1754.86,1879.23 1755.22,1879.36 1755.7,1877.49 1757.67,1873.92 1762.94,1866.17 1776.39,1848.73 1788.02,1835.02 1793.04,1827.95 1800.99,1816.02 1801.47,1811.13 1801.57,1340.1 1799.5,1339.06 1801.57,1340.1 1807.11,1336.06 1812.01,1331.66 1822.89,1319.31 1832.77,1302.21 1838.87,1283.42 1840.76,1267.07 1840.76,1260.49 1839.52,1248.65 1837.58,1247.95 1839.52,1248.65 1939.36,1148.81 1938.74,1147.31 1939.36,1148.81 2175.26,1148.81 2176.02,1147.09 2175.26,1148.81 2175.53,1149.23 2186.42,1161.58 2191.31,1165.99 2204.73,1175.52 2222.77,1183.56 2238.84,1187.15 2245.38,1187.83 2261.84,1187.66 2281.16,1183.56 2297.75,1176.26 2304.59,1162.92 2307.32,1156.81 2312.19,1144.12 2315.59,1132.41 2320.3,1124.12 2325.14,1109.25 2326.77,1093.7 2325.14,1078.15 2320.75,1064.43 2315.59,1054.99 2312.19,1043.27 2305.4,1026.28 2297.24,1019.31 2291.88,1015.2 2281.27,1007.91 2274.68,1003.88 2269.88,1001.27 2261.84,999.737 2245.38,999.565 2238.84,1000.25 2222.77,1003.84 2207.66,1010.38 2201.96,1013.67 2188.75,1023.49 2175.53,1038.17 2175.26,1038.59 2175.96,1040.21 2175.26,1038.59 1916.53,1038.59 1908.64,1039.23 1901.54,1043.27 1895.66,1047.19 1887.17,1053.89 1881.66,1058.99 1766.13,1174.37 1766.35,1174.7 1766.13,1174.37 1763.56,1175.74 1756.56,1178.21 1743.87,1183.47 1728.58,1191.46 1722.19,1193.08 1709.05,1199 1696.4,1208.19 1686.72,1218.85 1685.26,1220.85 1678.12,1233.35 1673.29,1248.23 1671.65,1263.78 1673.29,1279.33 1678.12,1294.2 1685.94,1307.75 1696.4,1319.37 1708.02,1327.89 1711.02,1329.51 1711.02,1793.98 1686.11,1818.9 1519.68,1818.9 1517.38,1819.12 1515.16,1819.8 1513.12,1820.89 1511.33,1822.36 1509.86,1824.15 1508.77,1826.19 1508.1,1828.4 1507.87,1830.71 1507.87,2035.43 1508.1,2037.74 1508.77,2039.95 1509.86,2041.99 1511.33,2043.78 1513.12,2045.25 1515.16,2046.34 1517.38,2047.02 1519.68,2047.24 1724.41,2047.24 1726.71,2047.02 1728.93,2046.34 1730.97,2045.25 1732.76,2043.78 1734.23,2041.99 1735.32,2039.95 1735.99,2037.74 1736.22,2035.43 1736.22,1869.01 1771.51,1833.71 1774.55,1830.21 1777.57,1825.55 1779.83,1820.48 1781.27,1815.11 1781.85,1809.59 1781.89,1329.51 1784.89,1327.89 1795.55,1320.15 1797.38,1318.49 1806.97,1307.75 1814.79,1294.2 1819.62,1279.33 1821.19,1265.01 1821.19,1262.54 1819.82,1249.45 1817.83,1242.51 1931.21,1129.13 2186.45,1129.13 2191.45,1137.67 2201.04,1148.41 2202.87,1150.07 2214.57,1158.48 2228.85,1164.84 2242.93,1167.9 2245.38,1168.16 2259.79,1168.09 2275.08,1164.84 2289.37,1158.48 2302.02,1149.29 2312.48,1137.67 2320.3,1124.12 2325.14,1109.25 2326.77,1093.7 2325.14,1078.15 2320.3,1063.27 2313.16,1050.77 2311.71,1048.77 2302.02,1038.11 2289.37,1028.92 2276.24,1023 2273.89,1022.24 2261.01,1019.5 2258.55,1019.24 2244.15,1019.31 2230.05,1022.24 2227.7,1023 2214.57,1028.92 2202.87,1037.33 2201.04,1038.98 2191.45,1049.73 2186.45,1058.27 1916.53,1058.27 1910.77,1058.78 1904.06,1060.57 1901.93,1061.46 1896.85,1064.24 1891.48,1068.64 1767.91,1192.22 1755.5,1189.58 1753.04,1189.32 1738.64,1189.38 1728.58,1191.46" style="stroke:rgb(103,198,105);stroke-width:23.622047;fill:none;stroke-opacity:0.5;stroke-linecap:round;stroke-linejoin:round;;fill:none"/>
<polyline points="1673.71,1246.7 1670.32,1252.69 1664.52,1264.84 1662.19,1270.5 1657.49,1283.77 1655.82,1289.45 1660.14,1302.21 1670.02,1319.31 1683.24,1333.99 1691.34,1340.1 1693.41,1339.06 1691.34,1340.1 1691.34,1785.83 1692.84,1786.45 1691.34,1785.83 1677.96,1799.22 1678.58,1800.72 1677.96,1799.22 1519.68,1799.22 1513.54,1799.82 1507.63,1801.62 1502.19,1804.53 1497.42,1808.44 1493.5,1813.21 1490.59,1818.66 1488.8,1824.56 1488.2,1830.71 1488.2,2035.43 1507.87,2035.43 1488.2,2035.43 1488.8,2041.57 1490.59,2047.48 1493.5,2052.93 1497.42,2057.7 1502.19,2061.61 1507.63,2064.52 1513.54,2066.31 1519.68,2066.92 1724.41,2066.92 1730.55,2066.31 1736.46,2064.52 1741.9,2061.61 1746.67,2057.7 1750.59,2052.93 1753.5,2047.48 1755.29,2041.57 1755.9,2035.43 1755.9,1990.57 1752.16,1967.47 1751.25,1959.21 1750.11,1937.3 1750.08,1929.36 1751.25,1906.92 1752.16,1898.67 1755.22,1879.36 1754.86,1879.23 1755.22,1879.36 1755.7,1877.49 1757.67,1873.92 1762.94,1866.17 1776.39,1848.73 1788.02,1835.02 1793.04,1827.95 1800.99,1816.02 1801.47,1811.13 1801.57,1340.1 1799.5,1339.06 1801.57,1340.1 1807.11,1336.06 1812.01,1331.66 1822.89,1319.31 1832.77,1302.21 1838.87,1283.42 1840.76,1267.07 1840.76,1260.49 1839.52,1248.65 1837.58,1247.95 1839.52,1248.65 1939.36,1148.81 1938.74,1147.31 1939.36,1148.81 2175.26,1148.81 2176.02,1147.09 2175.26,1148.81 2175.53,1149.23 2186.42,1161.58 2191.31,1165.99 2204.73,1175.52 2222.77,1183.56 2238.84,1187.15 2245.38,1187.83 2261.84,1187.66 2281.16,1183.56 2297.75,1176.26 2304.59,1162.92 2307.32,1156.81 2312.19,1144.12 2315.59,1132.41 2320.3,1124.12 2325.14,1109.25 2326.77,1093.7 2325.14,1078.15 2320.75,1064.43 2315.59,1054.99 2312.19,1043.27 2305.4,1026.28 2297.24,1019.31 2291.88,1015.2 2281.27,1007.91 2274.68,1003.88 2269.88,1001.27 2261.84,999.737 2245.38,999.565 2238.84,1000.25 2222.77,1003.84 2207.66,1010.38 2201.96,1013.67 2188.75,1023.49 2175.53,1038.17 2175.26,1038.59 2175.96,1040.21 2175.26,1038.59 1916.53,1038.59 1908.64,1039.23 1901.54,1043.27 1895.66,1047.19 1887.17,1053.89 1881.66,1058.99 1766.13,1174.37 1766.35,1174.7 1766.13,1174.37 1763.56,1175.74 1756.56,1178.21 1743.87,1183.47 1728.58,1191.46 1722.19,1193.08 1709.05,1199 1696.4,1208.19 1686.72,1218.85 1685.26,1220.85 1678.12,1233.35 1673.29,1248.23 1671.65,1263.78 1673.29,1279.33 1678.12,1294.2 1685.94,1307.75 1696.4,1319.37 1708.02,1327.89 1711.02,1329.51 1711.02,1793.98 1686.11,1818.9 1519.68,1818.9 1517.38,1819.12 1515.16,1819.8 1513.12,1820.89 1511.33,1822.36 1509.86,1824.15 1508.77,1826.19 1508.1,1828.4 1507.87,1830.71 1507.87,2035.43 1508.1,2037.74 1508.77,2039.95 1509.86,2041.99 1511.33,2043.78 1513.12,2045.25 1515.16,2046.34 1517.38,2047.02 1519.68,2047.24 1724.41,2047.24 1726.71,2047.02 1728.93,2046.34 1730.97,2045.25 1732.76,2043.78 1734.23,2041.99 1735.32,2039.95 1735.99,2037.74 1736.22,2035.43 1736.22,1869.01 1771.51,1833.71 1774.55,1830.21 1777.57,1825.55 1779.83,1820.48 1781.27,1815.11 1781.85,1809.59 1781.89,1329.51 1784.89,1327.89 1795.55,1320.15 1797.38,1318.49 1806.97,1307.75 1814.79,1294.2 1819.62,1279.33 1821.19,1265.01 1821.19,1262.54 1819.82,1249.45 1817.83,1242.51 1931.21,1129.13 2186.45,1129.13 2191.45,1137.67 2201.04,1148.41 2202.87,1150.07 2214.57,1158.48 2228.85,1164.84 2242.93,1167.9 2245.38,1168.16 2259.79,1168.09 2275.08,1164.84 2289.37,1158.48 2302.02,1149.29 2312.48,1137.67 2320.3,1124.12 2325.14,1109.25 2326.77,1093.7 2325.14,1078.15 2320.3,1063.27 2313.16,1050.77 2311.71,1048.77 2302.02,1038.11 2289.37,1028.92 2276.24,1023 2273.89,1022.24 2261.01,1019.5 2258.55,1019.24 2244.15,1019.31 2230.05,1022.24 2227.7,1023 2214.57,1028.92 2202.87,1037.33 2201.04,1038.98 2191.45,1049.73 2186.45,1058.27 1916.53,1058.27 1910.77,1058.78 1904.06,1060.57 1901.93,1061.46 1896.85,1064.24 1891.48,1068.64 1767.91,1192.22 1755.5,1189.58 1753.04,1189.32 1738.64,1189.38 1728.58,1191.46" style="stroke:rgb(0,0,0);stroke-width:1px;fill:none;stroke-opacity:1;stroke-linecap:round;stroke-linejoin:round;;fill:none"/>
<polyline points="1863.53,803.029 1852.62,805.851 1839.06,810.579 1707.49,679.125 1702.47,673.255 1699.04,668.123 1696.86,664.039 1694.5,658.337 1693.15,653.905 1691.95,647.851 1691.34,640.155 1691.34,434.585 1693.4,433.557 1691.34,434.585 1685.8,430.553 1680.9,426.149 1670.02,413.801 1661.64,399.633 1658.96,393.619 1654.04,377.911 1652.15,361.559 1652.15,354.975 1654.04,338.623 1658.96,322.915 1661.64,316.901 1670.02,302.733 1683.24,288.055 1696.45,278.239 1702.15,274.949 1717.26,268.411 1736.58,264.305 1756.33,264.305 1775.65,268.411 1793.7,276.445 1809.67,288.055 1822.89,302.733 1832.77,319.839 1838.02,335.439 1839.39,341.879 1840.76,354.975 1840.76,361.559 1838.87,377.911 1832.77,396.695 1822.89,413.801 1812.01,426.149 1807.11,430.553 1801.57,434.585 1799.5,433.553 1801.57,434.585 1801.57,617.329 1800.07,617.949 1801.57,617.329 1832.42,648.181 1836.18,661.633 1838.91,669.543 1845.19,683.745 1851.55,695.149 1885.6,729.195 1889.09,726.405 1896.57,722.085 1901.91,720.077 1897.67,718.633 1888.05,713.077 1879.79,705.643 1873.93,697.689 1872.7,695.551 1869.18,687.657 1868.32,684.853 1862.84,675.055 1860.63,670.401 1857.25,662.243 1854.98,655.809 1851.57,643.679 1856.22,633.665 1865.17,621.347 1876.48,611.159 1886.73,605.043 1892.75,602.367 1904.15,598.843 1916,597.423 1958.01,597.423 1969.86,598.843 1984.34,603.547 1997.53,611.159 2002.02,614.967 2001.78,615.735 2002.02,614.967 2046.39,615.119 2054.06,616.027 2057.05,616.777 2061.49,618.121 2067.19,620.483 2071.27,622.667 2076.4,626.097 2082.27,631.109 2409.01,957.841 2413.09,962.475 2416,966.473 2420.18,974.035 2421.59,977.461 2423.99,985.763 2424.76,990.645 2425.15,996.811 2425.15,1775.63 2424.76,1781.79 2423.12,1790.28 2420.18,1798.4 2416,1805.96 2413.09,1809.96 2409.01,1814.6 2345.03,1878.57 2343.11,1877.88 2345.03,1878.57 2346.45,1893.7 2344.38,1913.34 2338.28,1932.13 2328.4,1949.23 2317.52,1961.58 2312.63,1965.99 2299.21,1975.52 2281.16,1983.56 2265.1,1987.15 2258.55,1987.83 2242.09,1987.66 2229.98,1985.27 2229.99,1984.94 2229.98,1985.27 2226.34,1986.37 2220.29,1987.57 2212.6,1988.18 2019.57,1988.18 2018.06,1985.55 2019.57,1988.18 2005.92,2011.74 1989.53,2030.21 1984.64,2034.61 1964.56,2048.99 1942.08,2059.19 1935.81,2061.22 1914.88,2065.67 1908.34,2066.36 1883.65,2066.19 1859.46,2061.22 1853.2,2059.19 1830.71,2048.99 1808.07,2032.54 1791.42,2014.31 1787.55,2008.98 1776.85,1990.45 1775.37,1987.53 1774.94,1985.54 1771.63,1964.66 1770.87,1957.4 1769.78,1936.52 1769.78,1929.62 1770.87,1908.74 1771.63,1901.48 1774.34,1884.38 1778.75,1877.96 1791.6,1861.22 1803.67,1846.95 1817.72,1826.37 1830.71,1817.15 1853.2,1806.95 1859.46,1804.92 1883.65,1799.95 1911.63,1799.95 1939,1805.77 1961.62,1815.66 1967.33,1818.95 1987.2,1833.6 2003.85,1851.83 2007.72,1857.16 2019.57,1877.96 2018.06,1880.59 2019.57,1877.96 2158.97,1877.96 2161.73,1881.75 2158.97,1877.96 2159.04,1877.31 2160.4,1870.87 2165.65,1855.27 2175.53,1838.17 2188.75,1823.49 2204.73,1811.88 2219.69,1805.02 2225.95,1802.99 2238.84,1800.25 2245.38,1799.56 2261.84,1799.74 2267.06,1800.67 2267.71,1802.34 2267.06,1800.67 2314.93,1752.8 2316.42,1753.42 2314.93,1752.8 2314.93,1185.87 2322.24,1171.63 2325.64,1164.13 2330.82,1150.46 2334.6,1137.49 2334.6,1049.91 2332.46,1041.97 2330.69,1036.44 2325.6,1023.29 2322.46,1016.22 2320.9,1013.78 2321.35,1013.44 2320.9,1013.78 2309.82,1004.18 2303.26,999.099 2291.76,991.261 2279.26,983.975 2043.61,748.315 2036.59,736.399 2031.64,729.131 2026.78,722.835 2024.69,720.809 2024.96,720.461 2024.69,720.809 2014.28,715.399 2008.18,712.599 2003.58,710.891 2000.05,710.239 2000.09,710.031 2000.05,710.239 1989.21,710.239 1985.96,713.077 1977.44,718.071 1972.1,720.077 1976.34,721.523 1985.96,727.079 1994.22,734.515 2000.75,743.503 2005.27,753.653 2007.58,764.523 2007.58,775.633 2005.27,786.503 2000.75,796.653 1998.19,800.291 2010.52,797.325 2022.86,795.527 2024.84,789.399 2027.15,777.691 2027.32,765.757 2027.15,762.465 2026.32,757.711 2020.22,747.325 2012.52,736.571 2006.02,733.261 1998.23,729.915 1989.21,729.915 1985.96,727.079 1977.44,722.085 1972.1,720.077 1976.34,718.633 1985.96,713.077 1994.33,705.511 2028.63,705.511 2334.6,1011.49 2334.6,1760.95 2273.42,1822.14 2259.79,1819.31 2245.38,1819.24 2242.93,1819.5 2230.05,1822.24 2227.7,1823 2214.57,1828.92 2201.91,1838.11 2191.45,1849.73 2183.63,1863.27 2178.8,1878.15 2177.23,1892.46 2177.51,1897.64 2005.58,1897.64 2001.94,1886.63 1990,1865.96 1974.03,1848.22 1955.76,1834.87 1953.62,1833.63 1934.07,1824.93 1931.72,1824.16 1909.57,1819.52 1885.7,1819.52 1862.35,1824.48 1841.65,1833.63 1839.51,1834.87 1822.2,1847.44 1820.37,1849.1 1805.27,1865.96 1793.33,1886.63 1785.96,1909.33 1783.46,1933.07 1769.78,1936.52 1783.46,1933.07 1785.96,1956.81 1793.33,1979.51 1805.27,2000.18 1821.24,2017.92 1840.55,2031.95 1861.2,2041.21 1863.55,2041.97 1885.7,2046.62 1909.57,2046.62 1931.72,2041.97 1934.07,2041.21 1953.62,2032.51 1955.76,2031.27 1974.03,2017.92 1990,2000.18 2001.94,1979.51 2005.58,1968.5 2212.6,1968.5 2220.63,1967.54 2226.15,1965.8 2228.4,1964.67 2244.15,1968.09 2258.55,1968.16 2261.01,1967.9 2273.89,1965.16 2276.24,1964.4 2288.27,1959.04 2290.41,1957.81 2302.02,1949.29 2312.48,1937.67 2320.3,1924.12 2325.14,1909.25 2326.77,1893.7 2325.14,1878.15 2323.35,1872.43 2395.72,1800 2399.22,1795.68 2402,1790.87 2403.99,1785.68 2404.85,1782.08 2405.47,1775.63 2405.47,996.811 2405.14,992.189 2403.99,986.753 2401.15,979.915 2398.13,975.255 2395.09,971.755 2068.36,645.023 2063.92,641.307 2056.86,637.343 2050.22,635.325 2043.3,634.645 1994.33,634.645 1986.92,627.857 1984.93,626.405 1976.34,621.523 1965.77,618.089 1954.72,616.929 1919.29,616.929 1909.46,617.897 1907.05,618.409 1897.67,621.523 1889.09,626.405 1887.09,627.857 1879.79,634.515 1873.26,643.503 1868.74,653.653 1866.43,664.523 1866.43,675.633 1868.32,684.853 1869.18,687.657 1872.7,695.551 1873.93,697.689 1879.79,705.643 1888.05,713.077 1897.67,718.633 1901.91,720.077 1972.1,720.077 1977.44,722.085 1984.93,726.405 1986.92,727.857 1994.22,734.515 2000.75,743.503 2005.27,753.653 2007.58,764.523 2007.58,775.633 2005.27,786.503 2000.75,796.653 1994.22,805.643 1985.96,813.077 1979.41,816.929 1998.37,817.155 2000.58,817.827 2003.18,819.379 2014.6,816.579 2024.34,815.159 2025.15,816.689 2026.94,822.597 2027.55,828.739 2027.55,911.417 2027.07,916.885 2025.65,922.187 2023.33,927.161 2020.18,931.657 2016.3,935.539 2011.81,938.687 2006.83,941.005 2001.53,942.427 1996.06,942.905 1978.07,942.905 1977.44,941.401 1978.07,942.905 1975.97,945.215 1899.24,1021.95 1891.21,1026.52 1884.12,1031.2 1874.5,1038.83 1870.51,1042.41 1754.9,1157.93 1749.27,1159.93 1735.63,1165.57 1719.2,1174.16 1656.93,1236.43 1652.9,1243.54 1646.4,1257.07 1643.72,1263.7 1638.85,1277.45 1636.79,1284.4 1145.66,1775.53 1144.16,1774.91 1145.66,1775.53 1145.66,1815.25 1142.56,1817.23 1145.66,1815.25 1154.54,1819.2 1160.24,1822.49 1180.11,1837.14 1198.84,1857.94 1211.33,1879.23 1214.01,1885.25 1221.48,1908.78 1224.4,1936.61 1221.48,1964.44 1214.01,1987.98 1211.33,1993.99 1198.84,2015.29 1180.11,2036.08 1160.24,2050.74 1154.54,2054.03 1131.91,2063.91 1107.8,2069.21 1101.25,2069.9 1076.56,2069.73 1049.19,2063.91 1026.56,2054.03 1020.86,2050.74 1000.99,2036.08 984.337,2017.85 980.469,2012.52 968.283,1991.08 964.549,1968.19 963.785,1960.95 962.691,1940.07 962.691,1933.15 963.785,1912.27 964.549,1905.03 968.283,1882.15 978.831,1863.54 983.835,1862.86 978.831,1863.54 966.991,1851.7 958.203,1830.48 951.985,1818.33 943.541,1808.03 933.243,1799.59 921.087,1793.37 899.875,1784.58 756.305,1641.01 751.293,1635.14 747.863,1630.01 744.359,1623.13 743.317,1620.22 741.973,1615.79 740.769,1609.74 740.163,1602.04 740.163,942.905 745.517,937.863 740.163,942.905 736.219,942.905 730.077,942.299 724.169,940.507 718.725,937.599 713.955,933.683 710.039,928.911 707.129,923.467 705.337,917.557 704.731,911.417 704.731,844.471 708.481,835.421 715.697,829.091 722.839,824.579 725.705,823.477 727.869,820.387 729.659,818.919 731.701,817.827 733.915,817.155 736.219,816.929 752.855,816.927 757.435,818.027 766.075,819.397 777.559,820.077 813.899,820.053 824.473,819.397 833.113,818.027 837.685,816.929 854.331,816.929 856.635,817.155 858.851,817.827 860.891,818.919 862.681,820.387 864.151,822.177 865.243,824.217 865.915,826.435 866.141,828.739 866.141,911.417 865.915,913.719 865.243,915.937 864.151,917.979 862.681,919.769 860.891,921.237 858.851,922.329 856.635,923.001 854.331,923.227 830.707,923.227 830.707,1587.37 1055.12,1811.78 1055.12,1752.7 1055.63,1746.94 1057.42,1740.23 1058.31,1738.1 1061.78,1732.09 1065.49,1727.65 1871.72,921.417 1869.6,919.769 1868.13,917.979 1867.04,915.937 1866.37,913.719 1866.14,911.417 1866.14,828.739 1866.37,826.435 1867.04,824.217 1868.13,822.177 1869.6,820.387 1871.39,818.919 1873.43,817.827 1875.65,817.155 1877.95,816.929 1894.59,816.927 1875.65,817.155 1873.43,817.827 1871.39,818.919 1869.6,820.387 1868.13,822.177 1858.57,824.609 1846.46,828.815 1846.46,911.417 1847.23,918.085 1848.76,918.715 1847.23,918.085 1049.5,1716.02 1046.57,1719.6 1043.14,1724.74 1040.95,1728.82 1038.59,1734.52 1037.25,1738.95 1036.04,1745.01 1035.44,1752.7 1035.44,1764.27 1046.43,1792.04 1035.44,1764.27 850.385,1579.22 848.887,1579.84 850.385,1579.22 850.385,1323.66 846.795,1310.21 845.061,1302.02 842.917,1288.86 842.133,1280.85 841.367,1260.39 842.175,1246.19 842.977,1238.7 845.015,1225.52 846.913,1216.84 850.385,1203.89 850.385,942.905 845.031,937.863 850.385,942.905 854.331,942.905 860.473,942.299 866.381,940.507 871.825,937.599 873.163,936.499 874.857,932.731 877.751,921.999 878.743,910.975 878.743,829.163 877.821,818.533 877.149,815.953 872.871,816.577 861.453,819.379 858.851,817.827 856.635,817.155 837.685,816.929 833.113,818.027 824.473,819.397 813.899,820.053 777.559,820.077 768.007,819.599 757.435,818.027 752.855,816.927 746.317,813.077 737.955,805.511 717.603,805.511 713.149,807.429 704.477,812.779 693.233,822.771 692.895,822.517 693.233,822.771 691.101,825.961 686.551,836.947 501.867,1021.63 494.153,1021.5 501.867,1021.63 504.163,1023.49 517.381,1038.17 525.761,1052.33 528.437,1058.35 533.359,1074.06 535.425,1093.7 533.359,1113.34 528.437,1129.05 525.761,1135.06 517.381,1149.23 506.495,1161.58 501.603,1165.99 488.185,1175.52 470.141,1183.56 454.075,1187.15 447.529,1187.83 431.069,1187.66 414.931,1184.41 408.671,1182.37 396.641,1177.02 390.939,1173.73 377.725,1163.91 364.509,1149.23 354.633,1132.13 348.529,1113.34 346.637,1096.99 346.637,1090.41 348.529,1074.06 353.451,1058.35 356.129,1052.33 362.713,1040.93 366.583,1035.6 377.725,1023.49 385.833,1017.38 387.649,1018.34 385.833,1017.38 385.931,1002.14 386.995,993.567 387.859,989.963 390.805,981.839 394.985,974.277 397.889,970.279 401.975,965.645 636.513,731.109 642.383,726.097 647.515,722.667 651.599,720.483 657.301,718.121 661.733,716.777 667.787,715.573 672.395,715.119 700.011,714.967 708.433,719.879 717.971,724.803 728.699,729.263 732.225,729.915 732.173,730.213 732.225,729.915 743.071,729.915 746.317,727.079 754.839,722.085 760.177,720.077 754.839,718.071 746.317,713.077 743.069,710.239 734.049,710.239 726.251,706.891 718.067,702.719 710.725,698.463 708.297,692.583 705.131,677.691 705.131,662.465 707.443,650.757 709.477,644.497 714.489,633.665 723.437,621.347 732.191,613.235 734.751,611.159 740.163,607.837 742.451,609.051 740.163,607.837 740.163,509.449 740.769,501.753 741.973,495.699 744.359,488.359 747.863,481.481 751.293,476.349 756.305,470.479 853.393,373.393 855.335,374.093 853.393,373.393 851.975,358.267 854.041,338.623 860.145,319.839 870.019,302.733 883.237,288.055 899.215,276.445 917.261,268.411 936.581,264.305 956.331,264.305 975.653,268.411 993.697,276.445 1007.11,285.981 1012.01,290.385 1020.82,300.171 1024.69,305.497 1032.77,319.839 1038.87,338.623 1040.94,358.267 1039.39,374.655 1038.02,381.095 1032.77,396.695 1024.69,411.037 1020.82,416.363 1009.67,428.479 993.697,440.089 975.653,448.123 956.331,452.229 936.581,452.229 931.363,451.297 930.637,449.165 931.363,451.297 850.385,532.275 848.887,531.655 850.385,532.275 850.385,607.835 848.221,608.943 850.385,607.835 853.033,609.365 855.799,611.159 860.285,614.967 859.977,615.919 860.285,614.967 904.661,615.119 909.269,615.573 915.323,616.777 919.753,618.121 925.457,620.483 929.541,622.667 934.673,626.095 940.541,631.109 987.103,677.803 992.415,684.621 994.351,687.781 996.595,692.183 999.539,700.307 1001.18,708.791 1001.57,714.959 1001.57,1187.46 999.501,1188.49 1001.57,1187.46 1007.11,1191.49 1012.01,1195.9 1022.89,1208.24 1031.27,1222.41 1033.95,1228.43 1038.87,1244.13 1040.94,1263.78 1038.87,1283.42 1033.95,1299.13 1031.27,1305.14 1024.69,1316.55 1020.82,1321.87 1009.67,1333.99 996.461,1343.81 990.759,1347.1 978.729,1352.45 972.469,1354.49 956.331,1357.74 936.581,1357.74 920.443,1354.49 914.183,1352.45 899.215,1345.6 885.797,1336.06 880.905,1331.66 870.019,1319.31 869.289,1318.19 865.987,1305.87 864.457,1298.69 862.453,1286.03 861.771,1279.56 861.107,1266.91 861.107,1260.65 861.771,1247.99 862.453,1241.52 864.457,1228.87 865.987,1221.69 869.289,1209.37 872.095,1205.68 880.905,1195.9 885.797,1191.49 891.345,1187.46 893.415,1188.49 891.345,1187.46 891.345,944.043 893.651,938.611 897.079,926.317 898.443,911.417 898.419,828.735 897.413,815.997 894.567,804.747 896.897,791.805 897.909,782.649 898.359,765.753 896.965,748.865 894.799,736.911 895.419,736.665 894.799,736.911 893.633,734.623 889.573,728.739 885.051,722.837 882.957,720.811 883.371,720.303 882.957,720.811 872.553,715.401 865.933,712.459 860.113,710.403 860.207,709.983 860.113,710.403 847.481,710.239 844.233,713.077 835.711,718.071 830.367,720.077 760.177,720.077 757.095,719.075 754.839,718.071 746.317,713.077 738.935,706.517 737.283,704.681 731.529,696.653 727.453,687.657 726.691,685.309 724.893,676.855 724.635,674.399 704.959,674.399 724.635,674.399 724.701,664.523 726.691,654.849 727.453,652.499 731.529,643.503 738.061,634.515 745.357,627.857 747.355,626.405 754.839,622.085 759.841,620.189 759.841,509.449 760.351,503.681 762.147,496.979 765.813,489.763 770.219,484.393 875.077,379.535 873.287,373.819 871.653,358.267 873.095,343.935 873.607,341.521 878.121,327.841 885.265,315.335 886.717,313.339 896.403,302.677 908.017,294.159 910.157,292.925 923.341,287.125 937.415,284.067 939.871,283.809 954.275,283.873 969.571,287.125 983.857,293.485 996.509,302.677 1006.97,314.299 1014.79,327.841 1019.62,342.715 1021.26,358.267 1019.62,373.819 1014.79,388.693 1006.97,402.235 997.383,412.983 995.549,414.635 984.895,422.375 982.757,423.609 969.571,429.409 954.275,432.661 938.637,432.661 925.003,429.829 830.707,524.125 830.707,620.187 834.609,621.523 844.233,627.079 852.595,634.645 902.731,634.701 907.339,635.155 914.041,636.951 920.265,640.021 926.629,645.023 971.511,689.903 974.547,693.403 977.573,698.063 980.407,704.901 981.561,710.335 981.889,714.959 981.889,1198.05 984.895,1199.67 996.509,1208.19 1006.97,1219.81 1014.79,1233.35 1019.62,1248.23 1021.26,1263.78 1019.62,1279.33 1014.79,1294.2 1006.97,1307.75 997.383,1318.49 995.549,1320.15 983.857,1328.56 970.725,1334.48 968.377,1335.24 954.275,1338.17 939.871,1338.24 937.415,1337.98 923.341,1334.92 910.157,1329.12 908.017,1327.89 896.403,1319.37 886.717,1308.71 885.265,1306.71 878.121,1294.2 873.287,1279.33 871.717,1265.01 871.717,1262.54 873.287,1248.23 878.121,1233.35 885.939,1219.81 895.529,1209.06 897.363,1207.41 908.017,1199.67 911.023,1198.05 911.023,729.635 886.897,705.511 852.595,705.511 844.233,713.077 834.609,718.633 830.367,720.077 834.609,721.523 844.233,727.079 851.615,733.639 853.267,735.475 859.021,743.503 863.097,752.499 863.859,754.849 865.849,764.523 865.915,774.399 865.657,776.855 863.539,786.503 859.021,796.653 853.267,804.681 851.615,806.517 844.233,813.077 837.685,816.929 845.193,812.299 852.489,805.643 856.457,800.291 868.793,797.323 876.267,796.197 877.423,788.973 878.629,774.141 878.275,759.303 877.423,751.181 876.305,744.151 870.787,736.573 858.641,730.739 856.497,729.915 847.479,729.915 844.233,727.079 835.711,722.085 830.367,720.077 760.177,720.077 755.941,721.523 746.317,727.079 737.955,734.645 674.325,734.701 669.715,735.155 663.013,736.951 660.875,737.837 654.865,741.307 650.427,745.023 415.259,980.239 411.763,984.557 408.985,989.369 406.993,994.557 406.129,998.161 405.511,1004.61 405.511,1027.97 402.505,1029.59 390.891,1038.11 381.205,1048.77 379.753,1050.77 372.609,1063.27 368.095,1076.95 367.583,1079.37 366.141,1093.7 346.463,1093.7 366.141,1093.7 367.583,1108.03 368.095,1110.45 372.609,1124.12 379.753,1136.63 381.205,1138.63 390.891,1149.29 402.505,1157.81 404.645,1159.04 416.675,1164.4 419.023,1165.16 433.125,1168.09 447.529,1168.16 449.985,1167.9 464.059,1164.84 477.245,1159.04 479.383,1157.81 490.997,1149.29 500.683,1138.63 502.135,1136.63 508.719,1125.23 509.723,1122.97 514.113,1109.25 515.747,1093.7 514.113,1078.15 509.723,1064.43 508.719,1062.17 501.461,1049.73 491.871,1038.98 490.037,1037.33 479.383,1029.59 476.377,1027.97 476.377,1019.29 690.159,805.511 737.955,805.511 746.317,813.077 752.855,816.927 733.915,817.155 731.701,817.827 729.659,818.919 727.869,820.387 726.399,822.177 725.307,824.217 724.635,826.435 724.409,828.739 724.409,911.417 704.731,911.417 724.409,911.417 724.635,913.719 725.307,915.937 726.399,917.979 727.869,919.769 729.659,921.237 731.701,922.329 733.915,923.001 736.219,923.227 759.841,923.227 759.841,1602.04 760.351,1607.81 762.147,1614.51 765.217,1620.73 770.219,1627.1 1004.98,1861.86 998.183,1869.5 986.809,1889.07 985.805,1891.33 978.873,1912.87 976.377,1936.61 978.873,1960.35 985.805,1981.9 986.809,1984.15 997.509,2002.69 998.961,2004.68 1014.15,2021.46 1032.43,2034.82 1034.56,2036.05 1055.27,2045.2 1077.39,2049.97 1079.85,2050.23 1102.48,2050.16 1125.83,2045.2 1147.64,2035.49 1165.99,2022.24 1167.82,2020.59 1182.92,2003.72 1194.29,1984.15 1195.3,1981.9 1202.23,1960.35 1204.72,1936.61 1202.23,1912.87 1195.3,1891.33 1194.29,1889.07 1182.92,1869.5 1167.82,1852.64 1165.99,1850.99 1147.64,1837.74 1125.98,1828.09 1125.98,1767.38 1962.06,931.301 1965.78,926.863 1967.98,923.227 1998.11,923.049 2000.1,922.515 2003.65,920.465 2005.11,919.009 2007.16,915.457 2007.87,911.417 2007.87,828.739 2007.65,826.435 2006.97,824.217 2005.88,822.177 2004.41,820.387 2002.62,818.919 2000.58,817.827 1998.37,817.155 1996.06,816.929 1979.41,816.929 1974.84,818.027 1966.2,819.397 1955.63,820.053 1919.29,820.077 1907.81,819.397 1899.17,818.027 1894.59,816.927 1888.05,813.077 1879.69,805.511 1875.45,805.475 1869.92,804.893 1864.56,803.455 1859.48,801.195 1854.82,798.169 1851.32,795.133 1721.4,665.211 1717.68,660.773 1714.21,654.763 1711.98,648.193 1711.02,640.155 1711.02,423.995 1708.02,422.375 1696.4,413.857 1686.72,403.197 1685.26,401.199 1678.12,388.693 1673.61,375.013 1673.09,372.599 1671.65,358.267 1651.97,358.267 1671.65,358.267 1673.09,343.935 1673.61,341.521 1678.12,327.841 1685.94,314.299 1695.53,303.551 1697.36,301.899 1709.05,293.485 1723.34,287.125 1738.64,283.873 1754.27,283.873 1769.57,287.125 1783.86,293.485 1796.51,302.677 1806.97,314.299 1814.79,327.841 1819.3,341.521 1819.82,343.935 1821.19,357.033 1821.19,359.501 1819.62,373.819 1814.79,388.693 1806.97,402.235 1797.38,412.983 1795.55,414.635 1784.89,422.375 1781.89,423.995 1781.89,625.479 1851.55,695.149" style="stroke:rgb(103,198,105);stroke-width:23.622047;fill:none;stroke-opacity:0.5;stroke-linecap:round;stroke-linejoin:round;;fill:none"/>
<polyline points="1863.53,803.029 1852.62,805.851 1839.06,810.579 1707.49,679.125 1702.47,673.255 1699.04,668.123 1696.86,664.039 1694.5,658.337 1693.15,653.905 1691.95,647.851 1691.34,640.155 1691.34,434.585 1693.4,433.557 1691.34,434.585 1685.8,430.553 1680.9,426.149 1670.02,413.801 1661.64,399.633 1658.96,393.619 1654.04,377.911 1652.15,361.559 1652.15,354.975 1654.04,338.623 1658.96,322.915 1661.64,316.901 1670.02,302.733 1683.24,288.055 1696.45,278.239 1702.15,274.949 1717.26,268.411 1736.58,264.305 1756.33,264.305 1775.65,268.411 1793.7,276.445 1809.67,288.055 1822.89,302.733 1832.77,319.839 1838.02,335.439 1839.39,341.879 1840.76,354.975 1840.76,361.559 1838.87,377.911 1832.77,396.695 1822.89,413.801 1812.01,426.149 1807.11,430.553 1801.57,434.585 1799.5,433.553 1801.57,434.585 1801.57,617.329 1800.07,617.949 1801.57,617.329 1832.42,648.181 1836.18,661.633 1838.91,669.543 1845.19,683.745 1851.55,695.149 1885.6,729.195 1889.09,726.405 1896.57,722.085 1901.91,720.077 1897.67,718.633 1888.05,713.077 1879.79,705.643 1873.93,697.689 1872.7,695.551 1869.18,687.657 1868.32,684.853 1862.84,675.055 1860.63,670.401 1857.25,662.243 1854.98,655.809 1851.57,643.679 1856.22,633.665 1865.17,621.347 1876.48,611.159 1886.73,605.043 1892.75,602.367 1904.15,598.843 1916,597.423 1958.01,597.423 1969.86,598.843 1984.34,603.547 1997.53,611.159 2002.02,614.967 2001.78,615.735 2002.02,614.967 2046.39,615.119 2054.06,616.027 2057.05,616.777 2061.49,618.121 2067.19,620.483 2071.27,622.667 2076.4,626.097 2082.27,631.109 2409.01,957.841 2413.09,962.475 2416,966.473 2420.18,974.035 2421.59,977.461 2423.99,985.763 2424.76,990.645 2425.15,996.811 2425.15,1775.63 2424.76,1781.79 2423.12,1790.28 2420.18,1798.4 2416,1805.96 2413.09,1809.96 2409.01,1814.6 2345.03,1878.57 2343.11,1877.88 2345.03,1878.57 2346.45,1893.7 2344.38,1913.34 2338.28,1932.13 2328.4,1949.23 2317.52,1961.58 2312.63,1965.99 2299.21,1975.52 2281.16,1983.56 2265.1,1987.15 2258.55,1987.83 2242.09,1987.66 2229.98,1985.27 2229.99,1984.94 2229.98,1985.27 2226.34,1986.37 2220.29,1987.57 2212.6,1988.18 2019.57,1988.18 2018.06,1985.55 2019.57,1988.18 2005.92,2011.74 1989.53,2030.21 1984.64,2034.61 1964.56,2048.99 1942.08,2059.19 1935.81,2061.22 1914.88,2065.67 1908.34,2066.36 1883.65,2066.19 1859.46,2061.22 1853.2,2059.19 1830.71,2048.99 1808.07,2032.54 1791.42,2014.31 1787.55,2008.98 1776.85,1990.45 1775.37,1987.53 1774.94,1985.54 1771.63,1964.66 1770.87,1957.4 1769.78,1936.52 1769.78,1929.62 1770.87,1908.74 1771.63,1901.48 1774.34,1884.38 1778.75,1877.96 1791.6,1861.22 1803.67,1846.95 1817.72,1826.37 1830.71,1817.15 1853.2,1806.95 1859.46,1804.92 1883.65,1799.95 1911.63,1799.95 1939,1805.77 1961.62,1815.66 1967.33,1818.95 1987.2,1833.6 2003.85,1851.83 2007.72,1857.16 2019.57,1877.96 2018.06,1880.59 2019.57,1877.96 2158.97,1877.96 2161.73,1881.75 2158.97,1877.96 2159.04,1877.31 2160.4,1870.87 2165.65,1855.27 2175.53,1838.17 2188.75,1823.49 2204.73,1811.88 2219.69,1805.02 2225.95,1802.99 2238.84,1800.25 2245.38,1799.56 2261.84,1799.74 2267.06,1800.67 2267.71,1802.34 2267.06,1800.67 2314.93,1752.8 2316.42,1753.42 2314.93,1752.8 2314.93,1185.87 2322.24,1171.63 2325.64,1164.13 2330.82,1150.46 2334.6,1137.49 2334.6,1049.91 2332.46,1041.97 2330.69,1036.44 2325.6,1023.29 2322.46,1016.22 2320.9,1013.78 2321.35,1013.44 2320.9,1013.78 2309.82,1004.18 2303.26,999.099 2291.76,991.261 2279.26,983.975 2043.61,748.315 2036.59,736.399 2031.64,729.131 2026.78,722.835 2024.69,720.809 2024.96,720.461 2024.69,720.809 2014.28,715.399 2008.18,712.599 2003.58,710.891 2000.05,710.239 2000.09,710.031 2000.05,710.239 1989.21,710.239 1985.96,713.077 1977.44,718.071 1972.1,720.077 1976.34,721.523 1985.96,727.079 1994.22,734.515 2000.75,743.503 2005.27,753.653 2007.58,764.523 2007.58,775.633 2005.27,786.503 2000.75,796.653 1998.19,800.291 2010.52,797.325 2022.86,795.527 2024.84,789.399 2027.15,777.691 2027.32,765.757 2027.15,762.465 2026.32,757.711 2020.22,747.325 2012.52,736.571 2006.02,733.261 1998.23,729.915 1989.21,729.915 1985.96,727.079 1977.44,722.085 1972.1,720.077 1976.34,718.633 1985.96,713.077 1994.33,705.511 2028.63,705.511 2334.6,1011.49 2334.6,1760.95 2273.42,1822.14 2259.79,1819.31 2245.38,1819.24 2242.93,1819.5 2230.05,1822.24 2227.7,1823 2214.57,1828.92 2201.91,1838.11 2191.45,1849.73 2183.63,1863.27 2178.8,1878.15 2177.23,1892.46 2177.51,1897.64 2005.58,1897.64 2001.94,1886.63 1990,1865.96 1974.03,1848.22 1955.76,1834.87 1953.62,1833.63 1934.07,1824.93 1931.72,1824.16 1909.57,1819.52 1885.7,1819.52 1862.35,1824.48 1841.65,1833.63 1839.51,1834.87 1822.2,1847.44 1820.37,1849.1 1805.27,1865.96 1793.33,1886.63 1785.96,1909.33 1783.46,1933.07 1769.78,1936.52 1783.46,1933.07 1785.96,1956.81 1793.33,1979.51 1805.27,2000.18 1821.24,2017.92 1840.55,2031.95 1861.2,2041.21 1863.55,2041.97 1885.7,2046.62 1909.57,2046.62 1931.72,2041.97 1934.07,2041.21 1953.62,2032.51 1955.76,2031.27 1974.03,2017.92 1990,2000.18 2001.94,1979.51 2005.58,1968.5 2212.6,1968.5 2220.63,1967.54 2226.15,1965.8 2228.4,1964.67 2244.15,1968.09 2258.55,1968.16 2261.01,1967.9 2273.89,1965.16 2276.24,1964.4 2288.27,1959.04 2290.41,1957.81 2302.02,1949.29 2312.48,1937.67 2320.3,1924.12 2325.14,1909.25 2326.77,1893.7 2325.14,1878.15 2323.35,1872.43 2395.72,1800 2399.22,1795.68 2402,1790.87 2403.99,1785.68 2404.85,1782.08 2405.47,1775.63 2405.47,996.811 2405.14,992.189 2403.99,986.753 2401.15,979.915 2398.13,975.255 2395.09,971.755 2068.36,645.023 2063.92,641.307 2056.86,637.343 2050.22,635.325 2043.3,634.645 1994.33,634.645 1986.92,627.857 1984.93,626.405 1976.34,621.523 1965.77,618.089 1954.72,616.929 1919.29,616.929 1909.46,617.897 1907.05,618.409 1897.67,621.523 1889.09,626.405 1887.09,627.857 1879.79,634.515 1873.26,643.503 1868.74,653.653 1866.43,664.523 1866.43,675.633 1868.32,684.853 1869.18,687.657 1872.7,695.551 1873.93,697.689 1879.79,705.643 1888.05,713.077 1897.67,718.633 1901.91,720.077 1972.1,720.077 1977.44,722.085 1984.93,726.405 1986.92,727.857 1994.22,734.515 2000.75,743.503 2005.27,753.653 2007.58,764.523 2007.58,775.633 2005.27,786.503 2000.75,796.653 1994.22,805.643 1985.96,813.077 1979.41,816.929 1998.37,817.155 2000.58,817.827 2003.18,819.379 2014.6,816.579 2024.34,815.159 2025.15,816.689 2026.94,822.597 2027.55,828.739 2027.55,911.417 2027.07,916.885 2025.65,922.187 2023.33,927.161 2020.18,931.657 2016.3,935.539 2011.81,938.687 2006.83,941.005 2001.53,942.427 1996.06,942.905 1978.07,942.905 1977.44,941.401 1978.07,942.905 1975.97,945.215 1899.24,1021.95 1891.21,1026.52 1884.12,1031.2 1874.5,1038.83 1870.51,1042.41 1754.9,1157.93 1749.27,1159.93 1735.63,1165.57 1719.2,1174.16 1656.93,1236.43 1652.9,1243.54 1646.4,1257.07 1643.72,1263.7 1638.85,1277.45 1636.79,1284.4 1145.66,1775.53 1144.16,1774.91 1145.66,1775.53 1145.66,1815.25 1142.56,1817.23 1145.66,1815.25 1154.54,1819.2 1160.24,1822.49 1180.11,1837.14 1198.84,1857.94 1211.33,1879.23 1214.01,1885.25 1221.48,1908.78 1224.4,1936.61 1221.48,1964.44 1214.01,1987.98 1211.33,1993.99 1198.84,2015.29 1180.11,2036.08 1160.24,2050.74 1154.54,2054.03 1131.91,2063.91 1107.8,2069.21 1101.25,2069.9 1076.56,2069.73 1049.19,2063.91 1026.56,2054.03 1020.86,2050.74 1000.99,2036.08 984.337,2017.85 980.469,2012.52 968.283,1991.08 964.549,1968.19 963.785,1960.95 962.691,1940.07 962.691,1933.15 963.785,1912.27 964.549,1905.03 968.283,1882.15 978.831,1863.54 983.835,1862.86 978.831,1863.54 966.991,1851.7 958.203,1830.48 951.985,1818.33 943.541,1808.03 933.243,1799.59 921.087,1793.37 899.875,1784.58 756.305,1641.01 751.293,1635.14 747.863,1630.01 744.359,1623.13 743.317,1620.22 741.973,1615.79 740.769,1609.74 740.163,1602.04 740.163,942.905 745.517,937.863 740.163,942.905 736.219,942.905 730.077,942.299 724.169,940.507 718.725,937.599 713.955,933.683 710.039,928.911 707.129,923.467 705.337,917.557 704.731,911.417 704.731,844.471 708.481,835.421 715.697,829.091 722.839,824.579 725.705,823.477 727.869,820.387 729.659,818.919 731.701,817.827 733.915,817.155 736.219,816.929 752.855,816.927 757.435,818.027 766.075,819.397 777.559,820.077 813.899,820.053 824.473,819.397 833.113,818.027 837.685,816.929 854.331,816.929 856.635,817.155 858.851,817.827 860.891,818.919 862.681,820.387 864.151,822.177 865.243,824.217 865.915,826.435 866.141,828.739 866.141,911.417 865.915,913.719 865.243,915.937 864.151,917.979 862.681,919.769 860.891,921.237 858.851,922.329 856.635,923.001 854.331,923.227 830.707,923.227 830.707,1587.37 1055.12,1811.78 1055.12,1752.7 1055.63,1746.94 1057.42,1740.23 1058.31,1738.1 1061.78,1732.09 1065.49,1727.65 1871.72,921.417 1869.6,919.769 1868.13,917.979 1867.04,915.937 1866.37,913.719 1866.14,911.417 1866.14,828.739 1866.37,826.435 1867.04,824.217 1868.13,822.177 1869.6,820.387 1871.39,818.919 1873.43,817.827 1875.65,817.155 1877.95,816.929 1894.59,816.927 1875.65,817.155 1873.43,817.827 1871.39,818.919 1869.6,820.387 1868.13,822.177 1858.57,824.609 1846.46,828.815 1846.46,911.417 1847.23,918.085 1848.76,918.715 1847.23,918.085 1049.5,1716.02 1046.57,1719.6 1043.14,1724.74 1040.95,1728.82 1038.59,1734.52 1037.25,1738.95 1036.04,1745.01 1035.44,1752.7 1035.44,1764.27 1046.43,1792.04 1035.44,1764.27 850.385,1579.22 848.887,1579.84 850.385,1579.22 850.385,1323.66 846.795,1310.21 845.061,1302.02 842.917,1288.86 842.133,1280.85 841.367,1260.39 842.175,1246.19 842.977,1238.7 845.015,1225.52 846.913,1216.84 850.385,1203.89 850.385,942.905 845.031,937.863 850.385,942.905 854.331,942.905 860.473,942.299 866.381,940.507 871.825,937.599 873.163,936.499 874.857,932.731 877.751,921.999 878.743,910.975 878.743,829.163 877.821,818.533 877.149,815.953 872.871,816.577 861.453,819.379 858.851,817.827 856.635,817.155 837.685,816.929 833.113,818.027 824.473,819.397 813.899,820.053 777.559,820.077 768.007,819.599 757.435,818.027 752.855,816.927 746.317,813.077 737.955,805.511 717.603,805.511 713.149,807.429 704.477,812.779 693.233,822.771 692.895,822.517 693.233,822.771 691.101,825.961 686.551,836.947 501.867,1021.63 494.153,1021.5 501.867,1021.63 504.163,1023.49 517.381,1038.17 525.761,1052.33 528.437,1058.35 533.359,1074.06 535.425,1093.7 533.359,1113.34 528.437,1129.05 525.761,1135.06 517.381,1149.23 506.495,1161.58 501.603,1165.99 488.185,1175.52 470.141,1183.56 454.075,1187.15 447.529,1187.83 431.069,1187.66 414.931,1184.41 408.671,1182.37 396.641,1177.02 390.939,1173.73 377.725,1163.91 364.509,1149.23 354.633,1132.13 348.529,1113.34 346.637,1096.99 346.637,1090.41 348.529,1074.06 353.451,1058.35 356.129,1052.33 362.713,1040.93 366.583,1035.6 377.725,1023.49 385.833,1017.38 387.649,1018.34 385.833,1017.38 385.931,1002.14 386.995,993.567 387.859,989.963 390.805,981.839 394.985,974.277 397.889,970.279 401.975,965.645 636.513,731.109 642.383,726.097 647.515,722.667 651.599,720.483 657.301,718.121 661.733,716.777 667.787,715.573 672.395,715.119 700.011,714.967 708.433,719.879 717.971,724.803 728.699,729.263 732.225,729.915 732.173,730.213 732.225,729.915 743.071,729.915 746.317,727.079 754.839,722.085 760.177,720.077 754.839,718.071 746.317,713.077 743.069,710.239 734.049,710.239 726.251,706.891 718.067,702.719 710.725,698.463 708.297,692.583 705.131,677.691 705.131,662.465 707.443,650.757 709.477,644.497 714.489,633.665 723.437,621.347 732.191,613.235 734.751,611.159 740.163,607.837 742.451,609.051 740.163,607.837 740.163,509.449 740.769,501.753 741.973,495.699 744.359,488.359 747.863,481.481 751.293,476.349 756.305,470.479 853.393,373.393 855.335,374.093 853.393,373.393 851.975,358.267 854.041,338.623 860.145,319.839 870.019,302.733 883.237,288.055 899.215,276.445 917.261,268.411 936.581,264.305 956.331,264.305 975.653,268.411 993.697,276.445 1007.11,285.981 1012.01,290.385 1020.82,300.171 1024.69,305.497 1032.77,319.839 1038.87,338.623 1040.94,358.267 1039.39,374.655 1038.02,381.095 1032.77,396.695 1024.69,411.037 1020.82,416.363 1009.67,428.479 993.697,440.089 975.653,448.123 956.331,452.229 936.581,452.229 931.363,451.297 930.637,449.165 931.363,451.297 850.385,532.275 848.887,531.655 850.385,532.275 850.385,607.835 848.221,608.943 850.385,607.835 853.033,609.365 855.799,611.159 860.285,614.967 859.977,615.919 860.285,614.967 904.661,615.119 909.269,615.573 915.323,616.777 919.753,618.121 925.457,620.483 929.541,622.667 934.673,626.095 940.541,631.109 987.103,677.803 992.415,684.621 994.351,687.781 996.595,692.183 999.539,700.307 1001.18,708.791 1001.57,714.959 1001.57,1187.46 999.501,1188.49 1001.57,1187.46 1007.11,1191.49 1012.01,1195.9 1022.89,1208.24 1031.27,1222.41 1033.95,1228.43 1038.87,1244.13 1040.94,1263.78 1038.87,1283.42 1033.95,1299.13 1031.27,1305.14 1024.69,1316.55 1020.82,1321.87 1009.67,1333.99 996.461,1343.81 990.759,1347.1 978.729,1352.45 972.469,1354.49 956.331,1357.74 936.581,1357.74 920.443,1354.49 914.183,1352.45 899.215,1345.6 885.797,1336.06 880.905,1331.66 870.019,1319.31 869.289,1318.19 865.987,1305.87 864.457,1298.69 862.453,1286.03 861.771,1279.56 861.107,1266.91 861.107,1260.65 861.771,1247.99 862.453,1241.52 864.457,1228.87 865.987,1221.69 869.289,1209.37 872.095,1205.68 880.905,1195.9 885.797,1191.49 891.345,1187.46 893.415,1188.49 891.345,1187.46 891.345,944.043 893.651,938.611 897.079,926.317 898.443,911.417 898.419,828.735 897.413,815.997 894.567,804.747 896.897,791.805 897.909,782.649 898.359,765.753 896.965,748.865 894.799,736.911 895.419,736.665 894.799,736.911 893.633,734.623 889.573,728.739 885.051,722.837 882.957,720.811 883.371,720.303 882.957,720.811 872.553,715.401 865.933,712.459 860.113,710.403 860.207,709.983 860.113,710.403 847.481,710.239 844.233,713.077 835.711,718.071 830.367,720.077 760.177,720.077 757.095,719.075 754.839,718.071 746.317,713.077 738.935,706.517 737.283,704.681 731.529,696.653 727.453,687.657 726.691,685.309 724.893,676.855 724.635,674.399 704.959,674.399 724.635,674.399 724.701,664.523 726.691,654.849 727.453,652.499 731.529,643.503 738.061,634.515 745.357,627.857 747.355,626.405 754.839,622.085 759.841,620.189 759.841,509.449 760.351,503.681 762.147,496.979 765.813,489.763 770.219,484.393 875.077,379.535 873.287,373.819 871.653,358.267 873.095,343.935 873.607,341.521 878.121,327.841 885.265,315.335 886.717,313.339 896.403,302.677 908.017,294.159 910.157,292.925 923.341,287.125 937.415,284.067 939.871,283.809 954.275,283.873 969.571,287.125 983.857,293.485 996.509,302.677 1006.97,314.299 1014.79,327.841 1019.62,342.715 1021.26,358.267 1019.62,373.819 1014.79,388.693 1006.97,402.235 997.383,412.983 995.549,414.635 984.895,422.375 982.757,423.609 969.571,429.409 954.275,432.661 938.637,432.661 925.003,429.829 830.707,524.125 830.707,620.187 834.609,621.523 844.233,627.079 852.595,634.645 902.731,634.701 907.339,635.155 914.041,636.951 920.265,640.021 926.629,645.023 971.511,689.903 974.547,693.403 977.573,698.063 980.407,704.901 981.561,710.335 981.889,714.959 981.889,1198.05 984.895,1199.67 996.509,1208.19 1006.97,1219.81 1014.79,1233.35 1019.62,1248.23 1021.26,1263.78 1019.62,1279.33 1014.79,1294.2 1006.97,1307.75 997.383,1318.49 995.549,1320.15 983.857,1328.56 970.725,1334.48 968.377,1335.24 954.275,1338.17 939.871,1338.24 937.415,1337.98 923.341,1334.92 910.157,1329.12 908.017,1327.89 896.403,1319.37 886.717,1308.71 885.265,1306.71 878.121,1294.2 873.287,1279.33 871.717,1265.01 871.717,1262.54 873.287,1248.23 878.121,1233.35 885.939,1219.81 895.529,1209.06 897.363,1207.41 908.017,1199.67 911.023,1198.05 911.023,729.635 886.897,705.511 852.595,705.511 844.233,713.077 834.609,718.633 830.367,720.077 834.609,721.523 844.233,727.079 851.615,733.639 853.267,735.475 859.021,743.503 863.097,752.499 863.859,754.849 865.849,764.523 865.915,774.399 865.657,776.855 863.539,786.503 859.021,796.653 853.267,804.681 851.615,806.517 844.233,813.077 837.685,816.929 845.193,812.299 852.489,805.643 856.457,800.291 868.793,797.323 876.267,796.197 877.423,788.973 878.629,774.141 878.275,759.303 877.423,751.181 876.305,744.151 870.787,736.573 858.641,730.739 856.497,729.915 847.479,729.915 844.233,727.079 835.711,722.085 830.367,720.077 760.177,720.077 755.941,721.523 746.317,727.079 737.955,734.645 674.325,734.701 669.715,735.155 663.013,736.951 660.875,737.837 654.865,741.307 650.427,745.023 415.259,980.239 411.763,984.557 408.985,989.369 406.993,994.557 406.129,998.161 405.511,1004.61 405.511,1027.97 402.505,1029.59 390.891,1038.11 381.205,1048.77 379.753,1050.77 372.609,1063.27 368.095,1076.95 367.583,1079.37 366.141,1093.7 346.463,1093.7 366.141,1093.7 367.583,1108.03 368.095,1110.45 372.609,1124.12 379.753,1136.63 381.205,1138.63 390.891,1149.29 402.505,1157.81 404.645,1159.04 416.675,1164.4 419.023,1165.16 433.125,1168.09 447.529,1168.16 449.985,1167.9 464.059,1164.84 477.245,1159.04 479.383,1157.81 490.997,1149.29 500.683,1138.63 502.135,1136.63 508.719,1125.23 509.723,1122.97 514.113,1109.25 515.747,1093.7 514.113,1078.15 509.723,1064.43 508.719,1062.17 501.461,1049.73 491.871,1038.98 490.037,1037.33 479.383,1029.59 476.377,1027.97 476.377,1019.29 690.159,805.511 737.955,805.511 746.317,813.077 752.855,816.927 733.915,817.155 731.701,817.827 729.659,818.919 727.869,820.387 726.399,822.177 725.307,824.217 724.635,826.435 724.409,828.739 724.409,911.417 704.731,911.417 724.409,911.417 724.635,913.719 725.307,915.937 726.399,917.979 727.869,919.769 729.659,921.237 731.701,922.329 733.915,923.001 736.219,923.227 759.841,923.227 759.841,1602.04 760.351,1607.81 762.147,1614.51 765.217,1620.73 770.219,1627.1 1004.98,1861.86 998.183,1869.5 986.809,1889.07 985.805,1891.33 978.873,1912.87 976.377,1936.61 978.873,1960.35 985.805,1981.9 986.809,1984.15 997.509,2002.69 998.961,2004.68 1014.15,2021.46 1032.43,2034.82 1034.56,2036.05 1055.27,2045.2 1077.39,2049.97 1079.85,2050.23 1102.48,2050.16 1125.83,2045.2 1147.64,2035.49 1165.99,2022.24 1167.82,2020.59 1182.92,2003.72 1194.29,1984.15 1195.3,1981.9 1202.23,1960.35 1204.72,1936.61 1202.23,1912.87 1195.3,1891.33 1194.29,1889.07 1182.92,1869.5 1167.82,1852.64 1165.99,1850.99 1147.64,1837.74 1125.98,1828.09 1125.98,1767.38 1962.06,931.301 1965.78,926.863 1967.98,923.227 1998.11,923.049 2000.1,922.515 2003.65,920.465 2005.11,919.009 2007.16,915.457 2007.87,911.417 2007.87,828.739 2007.65,826.435 2006.97,824.217 2005.88,822.177 2004.41,820.387 2002.62,818.919 2000.58,817.827 1998.37,817.155 1996.06,816.929 1979.41,816.929 1974.84,818.027 1966.2,819.397 1955.63,820.053 1919.29,820.077 1907.81,819.397 1899.17,818.027 1894.59,816.927 1888.05,813.077 1879.69,805.511 1875.45,805.475 1869.92,804.893 1864.56,803.455 1859.48,801.195 1854.82,798.169 1851.32,795.133 1721.4,665.211 1717.68,660.773 1714.21,654.763 1711.98,648.193 1711.02,640.155 1711.02,423.995 1708.02,422.375 1696.4,413.857 1686.72,403.197 1685.26,401.199 1678.12,388.693 1673.61,375.013 1673.09,372.599 1671.65,358.267 1651.97,358.267 1671.65,358.267 1673.09,343.935 1673.61,341.521 1678.12,327.841 1685.94,314.299 1695.53,303.551 1697.36,301.899 1709.05,293.485 1723.34,287.125 1738.64,283.873 1754.27,283.873 1769.57,287.125 1783.86,293.485 1796.51,302.677 1806.97,314.299 1814.79,327.841 1819.3,341.521 1819.82,343.935 1821.19,357.033 1821.19,359.501 1819.62,373.819 1814.79,388.693 1806.97,402.235 1797.38,412.983 1795.55,414.635 1784.89,422.375 1781.89,423.995 1781.89,625.479 1851.55,695.149" style="stroke:rgb(0,0,0);stroke-width:1px;fill:none;stroke-opacity:1;stroke-linecap:round;stroke-linejoin:round;;fill:none"/>
</svg>
