<?xml version="1.0" standalone="no"?>
<!DOCTYPE svg PUBLIC "-//W3C//DTD SVG 1.1//EN"
"http://www.w3.org/Graphics/SVG/1.1/DTD/svg11.dtd">
<svg width="129.26" height="117.732" viewBox="0 0 2692.91 2452.76" version="1.1"
xmlns="http://www.w3.org/2000/svg"
xmlns:xlink="http://www.w3.org/1999/xlink">
<polyline points="346.463,1893.7 348.529,1874.06 354.633,1855.27 364.509,1838.17 375.395,1825.82 380.287,1821.41 390.939,1813.67 396.641,1810.38 411.749,1803.84 427.813,1800.25 434.359,1799.56 450.821,1799.74 470.141,1803.84 488.185,1811.88 504.163,1823.49 517.381,1838.17 527.257,1855.27 533.359,1874.06 535.425,1893.7 533.359,1913.34 527.257,1932.13 517.381,1949.23 506.495,1961.58 501.603,1965.99 488.185,1975.52 473.217,1982.37 466.957,1984.41 454.075,1987.15 447.529,1987.83 431.069,1987.66 411.749,1983.56 393.705,1975.52 377.725,1963.91 364.509,1949.23 354.633,1932.13 348.529,1913.34 346.463,1893.7 366.141,1893.7 367.583,1879.37 368.095,1876.95 372.609,1863.27 380.427,1849.73 390.891,1838.11 402.505,1829.59 404.645,1828.36 417.829,1822.56 431.905,1819.5 434.359,1819.24 448.763,1819.31 464.059,1822.56 477.245,1828.36 479.383,1829.59 490.997,1838.11 500.683,1848.77 502.135,1850.77 509.281,1863.27 514.113,1878.15 515.747,1893.7 514.307,1908.03 513.793,1910.45 509.281,1924.12 502.135,1936.63 500.683,1938.63 491.871,1948.41 490.037,1950.07 478.345,1958.48 464.059,1964.84 448.763,1968.09 433.125,1968.09 417.829,1964.84 404.645,1959.04 402.505,1957.81 390.891,1949.29 381.205,1938.63 379.753,1936.63 373.169,1925.23 372.165,1922.97 367.775,1909.25 366.141,1893.7" style="stroke:rgb(103,198,105);stroke-width:23.622047;fill:none;stroke-opacity:0.5;stroke-linecap:round;stroke-linejoin:round;;fill:none"/>
<polyline points="346.463,1893.7 348.529,1874.06 354.633,1855.27 364.509,1838.17 375.395,1825.82 380.287,1821.41 390.939,1813.67 396.641,1810.38 411.749,1803.84 427.813,1800.25 434.359,1799.56 450.821,1799.74 470.141,1803.84 488.185,1811.88 504.163,1823.49 517.381,1838.17 527.257,1855.27 533.359,1874.06 535.425,1893.7 533.359,1913.34 527.257,1932.13 517.381,1949.23 506.495,1961.58 501.603,1965.99 488.185,1975.52 473.217,1982.37 466.957,1984.41 454.075,1987.15 447.529,1987.83 431.069,1987.66 411.749,1983.56 393.705,1975.52 377.725,1963.91 364.509,1949.23 354.633,1932.13 348.529,1913.34 346.463,1893.7 366.141,1893.7 367.583,1879.37 368.095,1876.95 372.609,1863.27 380.427,1849.73 390.891,1838.11 402.505,1829.59 404.645,1828.36 417.829,1822.56 431.905,1819.5 434.359,1819.24 448.763,1819.31 464.059,1822.56 477.245,1828.36 479.383,1829.59 490.997,1838.11 500.683,1848.77 502.135,1850.77 509.281,1863.27 514.113,1878.15 515.747,1893.7 514.307,1908.03 513.793,1910.45 509.281,1924.12 502.135,1936.63 500.683,1938.63 491.871,1948.41 490.037,1950.07 478.345,1958.48 464.059,1964.84 448.763,1968.09 433.125,1968.09 417.829,1964.84 404.645,1959.04 402.505,1957.81 390.891,1949.29 381.205,1938.63 379.753,1936.63 373.169,1925.23 372.165,1922.97 367.775,1909.25 366.141,1893.7" style="stroke:rgb(0,0,0);stroke-width:1px;fill:none;stroke-opacity:1;stroke-linecap:round;stroke-linejoin:round;;fill:none"/>
<polyline points="681.109,2038.97 681.715,2045.12 683.507,2051.02 686.417,2056.47 690.333,2061.24 695.103,2065.16 700.547,2068.07 706.455,2069.86 712.597,2070.46 917.323,2070.46 923.465,2069.86 929.373,2068.07 934.817,2065.16 939.587,2061.24 943.503,2056.47 946.413,2051.02 948.205,2045.12 948.811,2038.97 948.811,1994.11 944.985,1970.51 944.149,1962.24 942.987,1940.32 943.027,1932.38 944.161,1910.47 945.073,1902.21 948.811,1879.11 948.811,1834.25 948.205,1828.11 946.413,1822.2 943.503,1816.76 939.587,1811.98 934.817,1808.07 929.373,1805.16 923.465,1803.37 917.323,1802.76 712.597,1802.76 706.455,1803.37 700.547,1805.16 695.103,1808.07 690.333,1811.98 686.417,1816.76 683.507,1822.2 681.715,1828.11 681.109,1834.25 681.109,2038.97 700.787,2038.97 700.787,1834.25 701.013,1831.95 701.685,1829.73 702.777,1827.69 704.247,1825.9 706.035,1824.43 708.077,1823.34 710.293,1822.67 712.597,1822.44 917.323,1822.44 919.627,1822.67 921.843,1823.34 923.885,1824.43 925.673,1825.9 927.143,1827.69 928.235,1829.73 928.907,1831.95 929.133,1834.25 929.133,2038.97 928.907,2041.28 928.235,2043.49 927.143,2045.54 925.673,2047.33 923.885,2048.8 921.843,2049.89 919.627,2050.56 917.323,2050.79 712.597,2050.79 710.293,2050.56 708.077,2049.89 706.035,2048.8 704.247,2047.33 702.777,2045.54 701.685,2043.49 701.013,2041.28 700.787,2038.97" style="stroke:rgb(103,198,105);stroke-width:23.622047;fill:none;stroke-opacity:0.5;stroke-linecap:round;stroke-linejoin:round;;fill:none"/>
<polyline points="681.109,2038.97 681.715,2045.12 683.507,2051.02 686.417,2056.47 690.333,2061.24 695.103,2065.16 700.547,2068.07 706.455,2069.86 712.597,2070.46 917.323,2070.46 923.465,2069.86 929.373,2068.07 934.817,2065.16 939.587,2061.24 943.503,2056.47 946.413,2051.02 948.205,2045.12 948.811,2038.97 948.811,1994.11 944.985,1970.51 944.149,1962.24 942.987,1940.32 943.027,1932.38 944.161,1910.47 945.073,1902.21 948.811,1879.11 948.811,1834.25 948.205,1828.11 946.413,1822.2 943.503,1816.76 939.587,1811.98 934.817,1808.07 929.373,1805.16 923.465,1803.37 917.323,1802.76 712.597,1802.76 706.455,1803.37 700.547,1805.16 695.103,1808.07 690.333,1811.98 686.417,1816.76 683.507,1822.2 681.715,1828.11 681.109,1834.25 681.109,2038.97 700.787,2038.97 700.787,1834.25 701.013,1831.95 701.685,1829.73 702.777,1827.69 704.247,1825.9 706.035,1824.43 708.077,1823.34 710.293,1822.67 712.597,1822.44 917.323,1822.44 919.627,1822.67 921.843,1823.34 923.885,1824.43 925.673,1825.9 927.143,1827.69 928.235,1829.73 928.907,1831.95 929.133,1834.25 929.133,2038.97 928.907,2041.28 928.235,2043.49 927.143,2045.54 925.673,2047.33 923.885,2048.8 921.843,2049.89 919.627,2050.56 917.323,2050.79 712.597,2050.79 710.293,2050.56 708.077,2049.89 706.035,2048.8 704.247,2047.33 702.777,2045.54 701.685,2043.49 701.013,2041.28 700.787,2038.97" style="stroke:rgb(0,0,0);stroke-width:1px;fill:none;stroke-opacity:1;stroke-linecap:round;stroke-linejoin:round;;fill:none"/>
<polyline points="962.691,1940.07 963.785,1960.95 964.547,1968.19 968.283,1991.08 982.263,2015.29 1000.99,2036.08 1023.62,2052.53 1049.19,2063.91 1076.56,2069.73 1101.25,2069.9 1107.8,2069.21 1131.91,2063.91 1154.54,2054.03 1160.24,2050.74 1177.55,2038.16 1182.44,2033.75 1198.84,2015.29 1212.83,1991.05 1221.48,1964.44 1224.4,1936.61 1221.48,1908.78 1212.83,1882.17 1198.84,1857.94 1182.44,1839.47 1177.55,1835.07 1160.24,1822.49 1154.54,1819.2 1131.91,1809.31 1107.8,1804.01 1101.25,1803.32 1076.56,1803.5 1049.19,1809.31 1023.62,1820.69 1000.99,1837.14 982.263,1857.94 968.281,1882.15 964.547,1905.03 963.785,1912.27 962.691,1933.16 962.691,1940.07 976.377,1936.61 978.873,1960.35 985.805,1981.9 986.809,1984.15 997.509,2002.69 998.961,2004.68 1014.15,2021.46 1032.43,2034.82 1034.56,2036.05 1054.11,2044.75 1056.46,2045.52 1077.39,2049.97 1079.85,2050.23 1102.48,2050.16 1124.64,2045.52 1126.99,2044.75 1147.64,2035.49 1165.99,2022.24 1167.82,2020.59 1182.14,2004.68 1183.59,2002.69 1194.85,1983.05 1201.91,1961.54 1202.42,1959.13 1204.72,1936.61 1202.23,1912.87 1194.85,1890.17 1183.59,1870.54 1182.14,1868.54 1166.95,1851.77 1148.67,1838.41 1146.53,1837.17 1126.99,1828.47 1124.64,1827.71 1102.48,1823.06 1078.62,1823.06 1055.27,1828.03 1034.56,1837.17 1032.43,1838.41 1015.11,1850.99 1013.28,1852.64 998.183,1869.5 986.809,1889.07 985.805,1891.33 978.873,1912.87 976.377,1936.61" style="stroke:rgb(103,198,105);stroke-width:23.622047;fill:none;stroke-opacity:0.5;stroke-linecap:round;stroke-linejoin:round;;fill:none"/>
<polyline points="962.691,1940.07 963.785,1960.95 964.547,1968.19 968.283,1991.08 982.263,2015.29 1000.99,2036.08 1023.62,2052.53 1049.19,2063.91 1076.56,2069.73 1101.25,2069.9 1107.8,2069.21 1131.91,2063.91 1154.54,2054.03 1160.24,2050.74 1177.55,2038.16 1182.44,2033.75 1198.84,2015.29 1212.83,1991.05 1221.48,1964.44 1224.4,1936.61 1221.48,1908.78 1212.83,1882.17 1198.84,1857.94 1182.44,1839.47 1177.55,1835.07 1160.24,1822.49 1154.54,1819.2 1131.91,1809.31 1107.8,1804.01 1101.25,1803.32 1076.56,1803.5 1049.19,1809.31 1023.62,1820.69 1000.99,1837.14 982.263,1857.94 968.281,1882.15 964.547,1905.03 963.785,1912.27 962.691,1933.16 962.691,1940.07 976.377,1936.61 978.873,1960.35 985.805,1981.9 986.809,1984.15 997.509,2002.69 998.961,2004.68 1014.15,2021.46 1032.43,2034.82 1034.56,2036.05 1054.11,2044.75 1056.46,2045.52 1077.39,2049.97 1079.85,2050.23 1102.48,2050.16 1124.64,2045.52 1126.99,2044.75 1147.64,2035.49 1165.99,2022.24 1167.82,2020.59 1182.14,2004.68 1183.59,2002.69 1194.85,1983.05 1201.91,1961.54 1202.42,1959.13 1204.72,1936.61 1202.23,1912.87 1194.85,1890.17 1183.59,1870.54 1182.14,1868.54 1166.95,1851.77 1148.67,1838.41 1146.53,1837.17 1126.99,1828.47 1124.64,1827.71 1102.48,1823.06 1078.62,1823.06 1055.27,1828.03 1034.56,1837.17 1032.43,1838.41 1015.11,1850.99 1013.28,1852.64 998.183,1869.5 986.809,1889.07 985.805,1891.33 978.873,1912.87 976.377,1936.61" style="stroke:rgb(0,0,0);stroke-width:1px;fill:none;stroke-opacity:1;stroke-linecap:round;stroke-linejoin:round;;fill:none"/>
<polyline points="1488.2,2035.43 1488.8,2041.57 1490.59,2047.48 1493.5,2052.93 1497.42,2057.7 1502.19,2061.61 1507.63,2064.52 1513.54,2066.31 1519.68,2066.92 1724.41,2066.92 1730.55,2066.31 1736.46,2064.52 1741.9,2061.61 1746.67,2057.7 1750.59,2052.93 1753.5,2047.48 1755.29,2041.57 1755.9,2035.43 1755.9,1990.57 1752.16,1967.47 1751.25,1959.21 1750.11,1937.3 1750.07,1929.36 1751.23,1907.44 1752.07,1899.17 1755.9,1875.56 1755.9,1830.71 1755.29,1824.56 1753.5,1818.66 1750.59,1813.21 1746.67,1808.44 1741.9,1804.53 1736.46,1801.62 1730.55,1799.82 1724.41,1799.22 1519.68,1799.22 1513.54,1799.82 1507.63,1801.62 1502.19,1804.53 1497.42,1808.44 1493.5,1813.21 1490.59,1818.66 1488.8,1824.56 1488.2,1830.71 1488.2,2035.43 1507.87,2035.43 1507.87,1830.71 1508.1,1828.4 1508.77,1826.19 1509.86,1824.15 1511.33,1822.36 1513.12,1820.89 1515.16,1819.8 1517.38,1819.12 1519.68,1818.9 1724.41,1818.9 1726.71,1819.12 1728.93,1819.8 1730.97,1820.89 1732.76,1822.36 1734.23,1824.15 1735.32,1826.19 1735.99,1828.4 1736.22,1830.71 1736.22,2035.43 1735.99,2037.74 1735.32,2039.95 1734.23,2041.99 1732.76,2043.78 1730.97,2045.25 1728.93,2046.34 1726.71,2047.02 1724.41,2047.24 1519.68,2047.24 1517.38,2047.02 1515.16,2046.34 1513.12,2045.25 1511.33,2043.78 1509.86,2041.99 1508.77,2039.95 1508.1,2037.74 1507.87,2035.43" style="stroke:rgb(103,198,105);stroke-width:23.622047;fill:none;stroke-opacity:0.5;stroke-linecap:round;stroke-linejoin:round;;fill:none"/>
<polyline points="1488.2,2035.43 1488.8,2041.57 1490.59,2047.48 1493.5,2052.93 1497.42,2057.7 1502.19,2061.61 1507.63,2064.52 1513.54,2066.31 1519.68,2066.92 1724.41,2066.92 1730.55,2066.31 1736.46,2064.52 1741.9,2061.61 1746.67,2057.7 1750.59,2052.93 1753.5,2047.48 1755.29,2041.57 1755.9,2035.43 1755.9,1990.57 1752.16,1967.47 1751.25,1959.21 1750.11,1937.3 1750.07,1929.36 1751.23,1907.44 1752.07,1899.17 1755.9,1875.56 1755.9,1830.71 1755.29,1824.56 1753.5,1818.66 1750.59,1813.21 1746.67,1808.44 1741.9,1804.53 1736.46,1801.62 1730.55,1799.82 1724.41,1799.22 1519.68,1799.22 1513.54,1799.82 1507.63,1801.62 1502.19,1804.53 1497.42,1808.44 1493.5,1813.21 1490.59,1818.66 1488.8,1824.56 1488.2,1830.71 1488.2,2035.43 1507.87,2035.43 1507.87,1830.71 1508.1,1828.4 1508.77,1826.19 1509.86,1824.15 1511.33,1822.36 1513.12,1820.89 1515.16,1819.8 1517.38,1819.12 1519.68,1818.9 1724.41,1818.9 1726.71,1819.12 1728.93,1819.8 1730.97,1820.89 1732.76,1822.36 1734.23,1824.15 1735.32,1826.19 1735.99,1828.4 1736.22,1830.71 1736.22,2035.43 1735.99,2037.74 1735.32,2039.95 1734.23,2041.99 1732.76,2043.78 1730.97,2045.25 1728.93,2046.34 1726.71,2047.02 1724.41,2047.24 1519.68,2047.24 1517.38,2047.02 1515.16,2046.34 1513.12,2045.25 1511.33,2043.78 1509.86,2041.99 1508.77,2039.95 1508.1,2037.74 1507.87,2035.43" style="stroke:rgb(0,0,0);stroke-width:1px;fill:none;stroke-opacity:1;stroke-linecap:round;stroke-linejoin:round;;fill:none"/>
<polyline points="1769.78,1936.52 1770.87,1957.41 1771.63,1964.65 1775.37,1987.53 1789.35,2011.74 1808.07,2032.54 1830.71,2048.99 1856.27,2060.37 1883.65,2066.19 1908.34,2066.36 1914.88,2065.67 1935.81,2061.22 1942.08,2059.19 1964.56,2048.99 1984.64,2034.61 1989.53,2030.21 2005.92,2011.74 2019.91,1987.51 2028.56,1960.9 2031.49,1933.07 2028.56,1905.24 2019.91,1878.63 2005.92,1854.39 1989.53,1835.93 1984.64,1831.52 1964.56,1817.15 1942.08,1806.95 1935.81,1804.92 1914.88,1800.47 1908.34,1799.78 1883.65,1799.95 1856.27,1805.77 1830.71,1817.15 1808.07,1833.6 1789.35,1854.39 1775.37,1878.61 1771.63,1901.49 1770.87,1908.73 1769.78,1929.61 1769.78,1936.52 1783.46,1933.07 1785.96,1956.81 1792.89,1978.35 1793.9,1980.61 1804.59,1999.14 1806.05,2001.14 1821.24,2017.92 1839.51,2031.27 1841.65,2032.51 1861.2,2041.21 1863.55,2041.97 1885.7,2046.62 1908.34,2046.68 1910.79,2046.42 1932.92,2041.65 1953.62,2032.51 1955.76,2031.27 1973.07,2018.69 1974.91,2017.04 1990,2000.18 2001.38,1980.61 2002.38,1978.35 2008.99,1958 2009.51,1955.59 2011.81,1933.07 2009.31,1909.33 2001.94,1886.63 1990.68,1867 1989.23,1865 1974.03,1848.22 1955.76,1834.87 1953.62,1833.63 1934.07,1824.93 1931.72,1824.16 1909.57,1819.52 1885.7,1819.52 1862.35,1824.48 1841.65,1833.63 1839.51,1834.87 1821.24,1848.22 1806.05,1865 1804.59,1867 1793.9,1885.53 1792.89,1887.78 1785.96,1909.33 1783.46,1933.07" style="stroke:rgb(103,198,105);stroke-width:23.622047;fill:none;stroke-opacity:0.5;stroke-linecap:round;stroke-linejoin:round;;fill:none"/>
<polyline points="1769.78,1936.52 1770.87,1957.41 1771.63,1964.65 1775.37,1987.53 1789.35,2011.74 1808.07,2032.54 1830.71,2048.99 1856.27,2060.37 1883.65,2066.19 1908.34,2066.36 1914.88,2065.67 1935.81,2061.22 1942.08,2059.19 1964.56,2048.99 1984.64,2034.61 1989.53,2030.21 2005.92,2011.74 2019.91,1987.51 2028.56,1960.9 2031.49,1933.07 2028.56,1905.24 2019.91,1878.63 2005.92,1854.39 1989.53,1835.93 1984.64,1831.52 1964.56,1817.15 1942.08,1806.95 1935.81,1804.92 1914.88,1800.47 1908.34,1799.78 1883.65,1799.95 1856.27,1805.77 1830.71,1817.15 1808.07,1833.6 1789.35,1854.39 1775.37,1878.61 1771.63,1901.49 1770.87,1908.73 1769.78,1929.61 1769.78,1936.52 1783.46,1933.07 1785.96,1956.81 1792.89,1978.35 1793.9,1980.61 1804.59,1999.14 1806.05,2001.14 1821.24,2017.92 1839.51,2031.27 1841.65,2032.51 1861.2,2041.21 1863.55,2041.97 1885.7,2046.62 1908.34,2046.68 1910.79,2046.42 1932.92,2041.65 1953.62,2032.51 1955.76,2031.27 1973.07,2018.69 1974.91,2017.04 1990,2000.18 2001.38,1980.61 2002.38,1978.35 2008.99,1958 2009.51,1955.59 2011.81,1933.07 2009.31,1909.33 2001.94,1886.63 1990.68,1867 1989.23,1865 1974.03,1848.22 1955.76,1834.87 1953.62,1833.63 1934.07,1824.93 1931.72,1824.16 1909.57,1819.52 1885.7,1819.52 1862.35,1824.48 1841.65,1833.63 1839.51,1834.87 1821.24,1848.22 1806.05,1865 1804.59,1867 1793.9,1885.53 1792.89,1887.78 1785.96,1909.33 1783.46,1933.07" style="stroke:rgb(0,0,0);stroke-width:1px;fill:none;stroke-opacity:1;stroke-linecap:round;stroke-linejoin:round;;fill:none"/>
<polyline points="2157.49,1893.7 2159.55,1874.06 2165.65,1855.27 2175.53,1838.17 2186.42,1825.82 2191.31,1821.41 2201.96,1813.67 2207.66,1810.38 2222.77,1803.84 2238.84,1800.25 2245.38,1799.56 2261.84,1799.74 2281.16,1803.84 2299.21,1811.88 2315.19,1823.49 2328.4,1838.17 2338.28,1855.27 2344.38,1874.06 2346.45,1893.7 2344.38,1913.34 2338.28,1932.13 2328.4,1949.23 2317.52,1961.58 2312.63,1965.99 2299.21,1975.52 2284.24,1982.37 2277.98,1984.41 2265.1,1987.15 2258.55,1987.83 2242.09,1987.66 2222.77,1983.56 2204.73,1975.52 2188.75,1963.91 2175.53,1949.23 2165.65,1932.13 2159.55,1913.34 2157.49,1893.7 2177.16,1893.7 2178.61,1879.37 2179.12,1876.95 2183.63,1863.27 2191.45,1849.73 2201.91,1838.11 2213.53,1829.59 2215.67,1828.36 2228.85,1822.56 2242.93,1819.5 2245.38,1819.24 2259.79,1819.31 2275.08,1822.56 2288.27,1828.36 2290.41,1829.59 2302.02,1838.11 2311.71,1848.77 2313.16,1850.77 2320.3,1863.27 2325.14,1878.15 2326.77,1893.7 2325.33,1908.03 2324.82,1910.45 2320.3,1924.12 2313.16,1936.63 2311.71,1938.63 2302.89,1948.41 2301.06,1950.07 2289.37,1958.48 2275.08,1964.84 2259.79,1968.09 2244.15,1968.09 2228.85,1964.84 2215.67,1959.04 2213.53,1957.81 2201.91,1949.29 2192.23,1938.63 2190.78,1936.63 2184.19,1925.23 2183.19,1922.97 2178.8,1909.25 2177.16,1893.7" style="stroke:rgb(103,198,105);stroke-width:23.622047;fill:none;stroke-opacity:0.5;stroke-linecap:round;stroke-linejoin:round;;fill:none"/>
<polyline points="2157.49,1893.7 2159.55,1874.06 2165.65,1855.27 2175.53,1838.17 2186.42,1825.82 2191.31,1821.41 2201.96,1813.67 2207.66,1810.38 2222.77,1803.84 2238.84,1800.25 2245.38,1799.56 2261.84,1799.74 2281.16,1803.84 2299.21,1811.88 2315.19,1823.49 2328.4,1838.17 2338.28,1855.27 2344.38,1874.06 2346.45,1893.7 2344.38,1913.34 2338.28,1932.13 2328.4,1949.23 2317.52,1961.58 2312.63,1965.99 2299.21,1975.52 2284.24,1982.37 2277.98,1984.41 2265.1,1987.15 2258.55,1987.83 2242.09,1987.66 2222.77,1983.56 2204.73,1975.52 2188.75,1963.91 2175.53,1949.23 2165.65,1932.13 2159.55,1913.34 2157.49,1893.7 2177.16,1893.7 2178.61,1879.37 2179.12,1876.95 2183.63,1863.27 2191.45,1849.73 2201.91,1838.11 2213.53,1829.59 2215.67,1828.36 2228.85,1822.56 2242.93,1819.5 2245.38,1819.24 2259.79,1819.31 2275.08,1822.56 2288.27,1828.36 2290.41,1829.59 2302.02,1838.11 2311.71,1848.77 2313.16,1850.77 2320.3,1863.27 2325.14,1878.15 2326.77,1893.7 2325.33,1908.03 2324.82,1910.45 2320.3,1924.12 2313.16,1936.63 2311.71,1938.63 2302.89,1948.41 2301.06,1950.07 2289.37,1958.48 2275.08,1964.84 2259.79,1968.09 2244.15,1968.09 2228.85,1964.84 2215.67,1959.04 2213.53,1957.81 2201.91,1949.29 2192.23,1938.63 2190.78,1936.63 2184.19,1925.23 2183.19,1922.97 2178.8,1909.25 2177.16,1893.7" style="stroke:rgb(0,0,0);stroke-width:1px;fill:none;stroke-opacity:1;stroke-linecap:round;stroke-linejoin:round;;fill:none"/>
<polyline points="1651.97,1263.78 1654.04,1244.13 1660.14,1225.35 1670.02,1208.24 1680.9,1195.9 1685.8,1191.49 1699.21,1181.96 1714.18,1175.1 1720.44,1173.07 1733.32,1170.33 1739.87,1169.64 1756.33,1169.82 1775.65,1173.92 1793.7,1181.96 1809.67,1193.57 1822.89,1208.24 1832.77,1225.35 1838.87,1244.13 1840.94,1263.78 1838.87,1283.42 1832.77,1302.21 1822.89,1319.31 1812.01,1331.66 1807.11,1336.06 1796.46,1343.81 1790.76,1347.1 1775.65,1353.63 1759.59,1357.23 1753.04,1357.91 1736.58,1357.74 1717.26,1353.63 1699.21,1345.6 1683.24,1333.99 1670.02,1319.31 1660.14,1302.21 1654.04,1283.42 1651.97,1263.78 1671.65,1263.78 1673.09,1249.45 1673.61,1247.03 1678.12,1233.35 1685.94,1219.81 1695.53,1209.06 1697.36,1207.41 1709.05,1199 1723.34,1192.64 1737.41,1189.58 1739.87,1189.32 1754.27,1189.38 1769.57,1192.64 1782.76,1198.44 1784.89,1199.67 1796.51,1208.19 1806.19,1218.85 1807.65,1220.85 1814.79,1233.35 1819.62,1248.23 1821.26,1263.78 1819.82,1278.11 1819.3,1280.52 1814.79,1294.2 1807.65,1306.71 1806.19,1308.71 1797.38,1318.49 1795.55,1320.15 1783.86,1328.56 1769.57,1334.92 1754.27,1338.17 1739.87,1338.24 1737.41,1337.98 1723.34,1334.92 1710.16,1329.12 1708.02,1327.89 1697.36,1320.15 1695.53,1318.49 1685.94,1307.75 1678.12,1294.2 1673.29,1279.33 1671.65,1263.78" style="stroke:rgb(103,198,105);stroke-width:23.622047;fill:none;stroke-opacity:0.5;stroke-linecap:round;stroke-linejoin:round;;fill:none"/>
<polyline points="1651.97,1263.78 1654.04,1244.13 1660.14,1225.35 1670.02,1208.24 1680.9,1195.9 1685.8,1191.49 1699.21,1181.96 1714.18,1175.1 1720.44,1173.07 1733.32,1170.33 1739.87,1169.64 1756.33,1169.82 1775.65,1173.92 1793.7,1181.96 1809.67,1193.57 1822.89,1208.24 1832.77,1225.35 1838.87,1244.13 1840.94,1263.78 1838.87,1283.42 1832.77,1302.21 1822.89,1319.31 1812.01,1331.66 1807.11,1336.06 1796.46,1343.81 1790.76,1347.1 1775.65,1353.63 1759.59,1357.23 1753.04,1357.91 1736.58,1357.74 1717.26,1353.63 1699.21,1345.6 1683.24,1333.99 1670.02,1319.31 1660.14,1302.21 1654.04,1283.42 1651.97,1263.78 1671.65,1263.78 1673.09,1249.45 1673.61,1247.03 1678.12,1233.35 1685.94,1219.81 1695.53,1209.06 1697.36,1207.41 1709.05,1199 1723.34,1192.64 1737.41,1189.58 1739.87,1189.32 1754.27,1189.38 1769.57,1192.64 1782.76,1198.44 1784.89,1199.67 1796.51,1208.19 1806.19,1218.85 1807.65,1220.85 1814.79,1233.35 1819.62,1248.23 1821.26,1263.78 1819.82,1278.11 1819.3,1280.52 1814.79,1294.2 1807.65,1306.71 1806.19,1308.71 1797.38,1318.49 1795.55,1320.15 1783.86,1328.56 1769.57,1334.92 1754.27,1338.17 1739.87,1338.24 1737.41,1337.98 1723.34,1334.92 1710.16,1329.12 1708.02,1327.89 1697.36,1320.15 1695.53,1318.49 1685.94,1307.75 1678.12,1294.2 1673.29,1279.33 1671.65,1263.78" style="stroke:rgb(0,0,0);stroke-width:1px;fill:none;stroke-opacity:1;stroke-linecap:round;stroke-linejoin:round;;fill:none"/>
<polyline points="2157.49,1093.7 2159.55,1113.34 2165.65,1132.13 2175.53,1149.23 2186.42,1161.58 2191.31,1165.99 2204.73,1175.52 2219.69,1182.37 2225.95,1184.41 2238.84,1187.15 2245.38,1187.83 2261.84,1187.66 2281.16,1183.56 2299.21,1175.52 2315.19,1163.91 2328.4,1149.23 2338.28,1132.13 2344.38,1113.34 2346.45,1093.7 2344.38,1074.06 2338.28,1055.27 2328.4,1038.17 2317.52,1025.82 2312.63,1021.41 2299.21,1011.88 2284.24,1005.02 2277.98,1002.99 2265.1,1000.25 2258.55,999.565 2242.09,999.737 2222.77,1003.84 2207.66,1010.38 2201.96,1013.67 2188.75,1023.49 2177.6,1035.6 2173.74,1040.93 2165.65,1055.27 2160.4,1070.87 2159.04,1077.31 2157.49,1093.7 2177.16,1093.7 2178.8,1109.25 2183.63,1124.12 2191.45,1137.67 2201.04,1148.41 2202.87,1150.07 2213.53,1157.81 2215.67,1159.04 2228.85,1164.84 2244.15,1168.09 2259.79,1168.09 2273.89,1165.16 2276.24,1164.4 2288.27,1159.04 2290.41,1157.81 2302.02,1149.29 2312.48,1137.67 2320.3,1124.12 2324.82,1110.45 2325.33,1108.03 2326.71,1094.93 2326.71,1092.46 2325.14,1078.15 2320.75,1064.43 2319.74,1062.17 2312.48,1049.73 2302.89,1038.98 2301.06,1037.33 2289.37,1028.92 2275.08,1022.56 2261.01,1019.5 2258.55,1019.24 2245.38,1019.24 2242.93,1019.5 2228.85,1022.56 2214.57,1028.92 2201.91,1038.11 2192.23,1048.77 2190.78,1050.77 2184.19,1062.17 2183.19,1064.43 2178.8,1078.15 2177.16,1093.7 2157.49,1093.7 1998.19,800.291 2000.75,796.653 2005.27,786.503 2007.58,775.633 2007.58,764.523 2005.27,753.653 2000.75,743.503 1994.22,734.515 1985.96,727.079 1976.34,721.523 1972.1,720.077 1976.34,718.633 1985.96,713.077 1994.22,705.643 2000.75,696.653 2005.27,686.503 2007.58,675.633 2007.65,665.757 2007.39,663.301 2005.59,654.849 2004.83,652.499 2000.75,643.503 1995,635.475 1993.35,633.639 1986.92,627.857 1984.93,626.405 1976.34,621.523 1965.77,618.089 1954.72,616.929 1919.29,616.929 1908.24,618.089 1897.67,621.523 1889.09,626.405 1887.09,627.857 1880.67,633.639 1879.01,635.475 1873.26,643.503 1868.74,653.653 1866.43,664.523 1866.37,674.399 1846.69,674.399 1866.37,674.399 1866.62,676.855 1868.42,685.309 1869.18,687.657 1873.26,696.653 1879.01,704.681 1880.67,706.517 1888.05,713.077 1897.67,718.633 1901.91,720.077 1972.1,720.077 1977.44,718.071 1985.96,713.077 1989.21,710.239 2015.28,710.239 2017.79,706.491 2019.29,703.555 2023.99,692.583 2026.64,680.945 2027.32,674.399 2027.15,662.465 2024.84,650.757 2022.8,644.497 2017.79,633.665 2008.84,621.347 1997.53,611.159 1984.34,603.547 1969.86,598.843 1954.72,597.251 1916,597.423 1904.15,598.843 1889.67,603.547 1876.48,611.159 1867.5,619.017 1863.09,623.909 1856.22,633.665 1851.21,644.497 1849.17,650.757 1846.86,662.465 1846.86,677.691 1850.03,692.583 1854.72,703.555 1856.22,706.491 1858.73,710.239 1884.8,710.239 1888.05,713.077 1896.57,718.071 1901.91,720.077 1896.57,722.085 1888.05,727.079 1884.8,729.915 1858.73,729.915 1858.02,730.901 1854.72,736.601 1850.03,747.573 1846.86,762.465 1846.86,777.691 1849.17,789.399 1851.16,795.527 1863.49,797.325 1875.82,800.291 1879.79,805.643 1887.09,812.299 1889.09,813.751 1894.59,816.927 1899.17,818.027 1907.81,819.397 1919.29,820.077 1955.63,820.053 1966.2,819.397 1974.84,818.027 1979.42,816.929 1996.06,816.929 1998.37,817.155 2000.58,817.827 2002.62,818.919 2004.41,820.387 2005.88,822.177 2006.97,824.217 2007.65,826.435 2007.87,828.739 2007.87,911.417 2007.65,913.719 2006.97,915.937 2005.88,917.979 2004.41,919.769 2002.62,921.237 2000.58,922.329 1998.37,923.001 1996.06,923.227 1877.95,923.227 1875.65,923.001 1873.43,922.329 1871.39,921.237 1869.6,919.769 1868.13,917.979 1867.04,915.937 1866.37,913.719 1866.14,911.417 1866.14,828.739 1866.37,826.435 1867.04,824.217 1868.13,822.177 1869.6,820.387 1871.39,818.919 1873.43,817.827 1875.65,817.155 1877.95,816.929 1894.59,816.927 1899.17,818.027 1907.81,819.397 1918.38,820.053 1954.72,820.077 1966.2,819.397 1974.84,818.027 1979.42,816.929 1996.06,816.929 1998.37,817.155 2000.58,817.827 2003.18,819.379 2014.6,816.579 2024.33,815.159 2025.15,816.689 2026.94,822.597 2027.55,828.739 2027.55,911.417 2026.94,917.557 2025.15,923.467 2022.24,928.911 2018.33,933.683 2013.56,937.599 2008.11,940.507 2002.2,942.299 1996.06,942.905 1877.95,942.905 1871.81,942.299 1865.9,940.507 1860.46,937.599 1855.69,933.683 1851.77,928.911 1848.86,923.467 1847.07,917.557 1846.46,911.417 1866.14,911.417 1846.46,911.417 1846.46,828.739 1847.07,822.597 1848.86,816.689 1849.68,815.159 1859.42,816.579 1870.83,819.379 1873.43,817.827 1875.65,817.155 1894.59,816.927 1888.05,813.077 1880.67,806.517 1879.01,804.681 1873.93,797.689 1872.7,795.551 1868.74,786.503 1866.62,776.855 1866.37,774.399 1846.69,774.399 1866.37,774.399 1866.43,764.523 1868.74,753.653 1873.26,743.503 1879.01,735.475 1880.67,733.639 1887.09,727.857 1889.09,726.405 1897.67,721.523 1901.91,720.077 1972.1,720.077 1977.44,722.085 1985.96,727.079 1989.21,729.915 2015.28,729.915 2017.79,733.665 2019.29,736.601 2023.99,747.573 2027.15,762.465 2027.15,777.691 2024.84,789.399 2022.86,795.527 2010.52,797.325 1998.19,800.291 1994.22,805.643 1986.92,812.299 1979.42,816.929" style="stroke:rgb(103,198,105);stroke-width:23.622047;fill:none;stroke-opacity:0.5;stroke-linecap:round;stroke-linejoin:round;;fill:none"/>
<polyline points="2157.49,1093.7 2159.55,1113.34 2165.65,1132.13 2175.53,1149.23 2186.42,1161.58 2191.31,1165.99 2204.73,1175.52 2219.69,1182.37 2225.95,1184.41 2238.84,1187.15 2245.38,1187.83 2261.84,1187.66 2281.16,1183.56 2299.21,1175.52 2315.19,1163.91 2328.4,1149.23 2338.28,1132.13 2344.38,1113.34 2346.45,1093.7 2344.38,1074.06 2338.28,1055.27 2328.4,1038.17 2317.52,1025.82 2312.63,1021.41 2299.21,1011.88 2284.24,1005.02 2277.98,1002.99 2265.1,1000.25 2258.55,999.565 2242.09,999.737 2222.77,1003.84 2207.66,1010.38 2201.96,1013.67 2188.75,1023.49 2177.6,1035.6 2173.74,1040.93 2165.65,1055.27 2160.4,1070.87 2159.04,1077.31 2157.49,1093.7 2177.16,1093.7 2178.8,1109.25 2183.63,1124.12 2191.45,1137.67 2201.04,1148.41 2202.87,1150.07 2213.53,1157.81 2215.67,1159.04 2228.85,1164.84 2244.15,1168.09 2259.79,1168.09 2273.89,1165.16 2276.24,1164.4 2288.27,1159.04 2290.41,1157.81 2302.02,1149.29 2312.48,1137.67 2320.3,1124.12 2324.82,1110.45 2325.33,1108.03 2326.71,1094.93 2326.71,1092.46 2325.14,1078.15 2320.75,1064.43 2319.74,1062.17 2312.48,1049.73 2302.89,1038.98 2301.06,1037.33 2289.37,1028.92 2275.08,1022.56 2261.01,1019.5 2258.55,1019.24 2245.38,1019.24 2242.93,1019.5 2228.85,1022.56 2214.57,1028.92 2201.91,1038.11 2192.23,1048.77 2190.78,1050.77 2184.19,1062.17 2183.19,1064.43 2178.8,1078.15 2177.16,1093.7 2157.49,1093.7 1998.19,800.291 2000.75,796.653 2005.27,786.503 2007.58,775.633 2007.58,764.523 2005.27,753.653 2000.75,743.503 1994.22,734.515 1985.96,727.079 1976.34,721.523 1972.1,720.077 1976.34,718.633 1985.96,713.077 1994.22,705.643 2000.75,696.653 2005.27,686.503 2007.58,675.633 2007.65,665.757 2007.39,663.301 2005.59,654.849 2004.83,652.499 2000.75,643.503 1995,635.475 1993.35,633.639 1986.92,627.857 1984.93,626.405 1976.34,621.523 1965.77,618.089 1954.72,616.929 1919.29,616.929 1908.24,618.089 1897.67,621.523 1889.09,626.405 1887.09,627.857 1880.67,633.639 1879.01,635.475 1873.26,643.503 1868.74,653.653 1866.43,664.523 1866.37,674.399 1846.69,674.399 1866.37,674.399 1866.62,676.855 1868.42,685.309 1869.18,687.657 1873.26,696.653 1879.01,704.681 1880.67,706.517 1888.05,713.077 1897.67,718.633 1901.91,720.077 1972.1,720.077 1977.44,718.071 1985.96,713.077 1989.21,710.239 2015.28,710.239 2017.79,706.491 2019.29,703.555 2023.99,692.583 2026.64,680.945 2027.32,674.399 2027.15,662.465 2024.84,650.757 2022.8,644.497 2017.79,633.665 2008.84,621.347 1997.53,611.159 1984.34,603.547 1969.86,598.843 1954.72,597.251 1916,597.423 1904.15,598.843 1889.67,603.547 1876.48,611.159 1867.5,619.017 1863.09,623.909 1856.22,633.665 1851.21,644.497 1849.17,650.757 1846.86,662.465 1846.86,677.691 1850.03,692.583 1854.72,703.555 1856.22,706.491 1858.73,710.239 1884.8,710.239 1888.05,713.077 1896.57,718.071 1901.91,720.077 1896.57,722.085 1888.05,727.079 1884.8,729.915 1858.73,729.915 1858.02,730.901 1854.72,736.601 1850.03,747.573 1846.86,762.465 1846.86,777.691 1849.17,789.399 1851.16,795.527 1863.49,797.325 1875.82,800.291 1879.79,805.643 1887.09,812.299 1889.09,813.751 1894.59,816.927 1899.17,818.027 1907.81,819.397 1919.29,820.077 1955.63,820.053 1966.2,819.397 1974.84,818.027 1979.42,816.929 1996.06,816.929 1998.37,817.155 2000.58,817.827 2002.62,818.919 2004.41,820.387 2005.88,822.177 2006.97,824.217 2007.65,826.435 2007.87,828.739 2007.87,911.417 2007.65,913.719 2006.97,915.937 2005.88,917.979 2004.41,919.769 2002.62,921.237 2000.58,922.329 1998.37,923.001 1996.06,923.227 1877.95,923.227 1875.65,923.001 1873.43,922.329 1871.39,921.237 1869.6,919.769 1868.13,917.979 1867.04,915.937 1866.37,913.719 1866.14,911.417 1866.14,828.739 1866.37,826.435 1867.04,824.217 1868.13,822.177 1869.6,820.387 1871.39,818.919 1873.43,817.827 1875.65,817.155 1877.95,816.929 1894.59,816.927 1899.17,818.027 1907.81,819.397 1918.38,820.053 1954.72,820.077 1966.2,819.397 1974.84,818.027 1979.42,816.929 1996.06,816.929 1998.37,817.155 2000.58,817.827 2003.18,819.379 2014.6,816.579 2024.33,815.159 2025.15,816.689 2026.94,822.597 2027.55,828.739 2027.55,911.417 2026.94,917.557 2025.15,923.467 2022.24,928.911 2018.33,933.683 2013.56,937.599 2008.11,940.507 2002.2,942.299 1996.06,942.905 1877.95,942.905 1871.81,942.299 1865.9,940.507 1860.46,937.599 1855.69,933.683 1851.77,928.911 1848.86,923.467 1847.07,917.557 1846.46,911.417 1866.14,911.417 1846.46,911.417 1846.46,828.739 1847.07,822.597 1848.86,816.689 1849.68,815.159 1859.42,816.579 1870.83,819.379 1873.43,817.827 1875.65,817.155 1894.59,816.927 1888.05,813.077 1880.67,806.517 1879.01,804.681 1873.93,797.689 1872.7,795.551 1868.74,786.503 1866.62,776.855 1866.37,774.399 1846.69,774.399 1866.37,774.399 1866.43,764.523 1868.74,753.653 1873.26,743.503 1879.01,735.475 1880.67,733.639 1887.09,727.857 1889.09,726.405 1897.67,721.523 1901.91,720.077 1972.1,720.077 1977.44,722.085 1985.96,727.079 1989.21,729.915 2015.28,729.915 2017.79,733.665 2019.29,736.601 2023.99,747.573 2027.15,762.465 2027.15,777.691 2024.84,789.399 2022.86,795.527 2010.52,797.325 1998.19,800.291 1994.22,805.643 1986.92,812.299 1979.42,816.929" style="stroke:rgb(0,0,0);stroke-width:1px;fill:none;stroke-opacity:1;stroke-linecap:round;stroke-linejoin:round;;fill:none"/>
<polyline points="1671.65,358.267 1673.09,343.935 1673.61,341.521 1678.12,327.841 1685.94,314.299 1695.53,303.551 1697.36,301.899 1709.05,293.485 1723.34,287.125 1737.41,284.067 1739.87,283.809 1754.27,283.873 1769.57,287.125 1783.86,293.485 1795.55,301.899 1797.38,303.551 1806.97,314.299 1814.79,327.841 1819.62,342.715 1821.26,358.267 1819.82,372.599 1819.3,375.013 1814.79,388.693 1807.65,401.199 1806.19,403.197 1797.38,412.983 1795.55,414.635 1783.86,423.049 1769.57,429.409 1754.27,432.661 1738.64,432.661 1723.34,429.409 1709.05,423.049 1696.4,413.857 1686.72,403.197 1685.26,401.199 1678.12,388.693 1673.61,375.013 1673.09,372.599 1671.65,358.267 1651.97,358.267 1654.04,377.911 1660.14,396.695 1670.02,413.801 1680.9,426.149 1685.8,430.553 1699.21,440.089 1714.18,446.943 1720.44,448.977 1733.32,451.715 1739.87,452.403 1756.33,452.229 1775.65,448.123 1793.7,440.089 1809.67,428.479 1822.89,413.801 1832.77,396.695 1838.87,377.911 1840.94,358.267 1838.87,338.623 1832.77,319.839 1822.89,302.733 1812.01,290.385 1807.11,285.981 1796.46,278.239 1790.76,274.949 1775.65,268.411 1759.59,264.819 1753.04,264.131 1736.58,264.305 1717.26,268.411 1699.21,276.445 1683.24,288.055 1670.02,302.733 1660.14,319.839 1654.04,338.623 1651.97,358.267" style="stroke:rgb(103,198,105);stroke-width:23.622047;fill:none;stroke-opacity:0.5;stroke-linecap:round;stroke-linejoin:round;;fill:none"/>
<polyline points="1671.65,358.267 1673.09,343.935 1673.61,341.521 1678.12,327.841 1685.94,314.299 1695.53,303.551 1697.36,301.899 1709.05,293.485 1723.34,287.125 1737.41,284.067 1739.87,283.809 1754.27,283.873 1769.57,287.125 1783.86,293.485 1795.55,301.899 1797.38,303.551 1806.97,314.299 1814.79,327.841 1819.62,342.715 1821.26,358.267 1819.82,372.599 1819.3,375.013 1814.79,388.693 1807.65,401.199 1806.19,403.197 1797.38,412.983 1795.55,414.635 1783.86,423.049 1769.57,429.409 1754.27,432.661 1738.64,432.661 1723.34,429.409 1709.05,423.049 1696.4,413.857 1686.72,403.197 1685.26,401.199 1678.12,388.693 1673.61,375.013 1673.09,372.599 1671.65,358.267 1651.97,358.267 1654.04,377.911 1660.14,396.695 1670.02,413.801 1680.9,426.149 1685.8,430.553 1699.21,440.089 1714.18,446.943 1720.44,448.977 1733.32,451.715 1739.87,452.403 1756.33,452.229 1775.65,448.123 1793.7,440.089 1809.67,428.479 1822.89,413.801 1832.77,396.695 1838.87,377.911 1840.94,358.267 1838.87,338.623 1832.77,319.839 1822.89,302.733 1812.01,290.385 1807.11,285.981 1796.46,278.239 1790.76,274.949 1775.65,268.411 1759.59,264.819 1753.04,264.131 1736.58,264.305 1717.26,268.411 1699.21,276.445 1683.24,288.055 1670.02,302.733 1660.14,319.839 1654.04,338.623 1651.97,358.267" style="stroke:rgb(0,0,0);stroke-width:1px;fill:none;stroke-opacity:1;stroke-linecap:round;stroke-linejoin:round;;fill:none"/>
<polyline points="871.653,358.267 873.095,343.935 873.607,341.521 878.121,327.841 885.939,314.299 895.529,303.551 897.363,301.899 909.055,293.485 923.341,287.125 937.415,284.067 939.871,283.809 954.275,283.873 969.571,287.125 983.857,293.485 995.549,301.899 997.383,303.551 1006.97,314.299 1014.79,327.841 1019.62,342.715 1021.26,358.267 1019.82,372.599 1019.3,375.013 1014.79,388.693 1007.65,401.199 1006.19,403.197 997.383,412.983 995.549,414.635 983.857,423.049 969.571,429.409 954.275,432.661 938.637,432.661 923.341,429.409 909.055,423.049 896.403,413.857 886.717,403.197 885.265,401.199 878.121,388.693 873.607,375.013 873.095,372.599 871.653,358.267 851.975,358.267 854.041,377.911 860.145,396.695 870.019,413.801 880.905,426.149 885.797,430.553 899.215,440.089 914.183,446.943 920.443,448.977 933.325,451.715 939.871,452.403 956.331,452.229 975.653,448.123 993.697,440.089 1009.67,428.479 1022.89,413.801 1032.77,396.695 1038.87,377.911 1040.94,358.267 1038.87,338.623 1032.77,319.839 1022.89,302.733 1012.01,290.385 1007.11,285.981 996.461,278.239 990.759,274.949 975.653,268.411 959.587,264.819 953.041,264.131 936.581,264.305 917.261,268.411 899.215,276.445 883.237,288.055 870.019,302.733 860.145,319.839 854.041,338.623 851.975,358.267" style="stroke:rgb(103,198,105);stroke-width:23.622047;fill:none;stroke-opacity:0.5;stroke-linecap:round;stroke-linejoin:round;;fill:none"/>
<polyline points="871.653,358.267 873.095,343.935 873.607,341.521 878.121,327.841 885.939,314.299 895.529,303.551 897.363,301.899 909.055,293.485 923.341,287.125 937.415,284.067 939.871,283.809 954.275,283.873 969.571,287.125 983.857,293.485 995.549,301.899 997.383,303.551 1006.97,314.299 1014.79,327.841 1019.62,342.715 1021.26,358.267 1019.82,372.599 1019.3,375.013 1014.79,388.693 1007.65,401.199 1006.19,403.197 997.383,412.983 995.549,414.635 983.857,423.049 969.571,429.409 954.275,432.661 938.637,432.661 923.341,429.409 909.055,423.049 896.403,413.857 886.717,403.197 885.265,401.199 878.121,388.693 873.607,375.013 873.095,372.599 871.653,358.267 851.975,358.267 854.041,377.911 860.145,396.695 870.019,413.801 880.905,426.149 885.797,430.553 899.215,440.089 914.183,446.943 920.443,448.977 933.325,451.715 939.871,452.403 956.331,452.229 975.653,448.123 993.697,440.089 1009.67,428.479 1022.89,413.801 1032.77,396.695 1038.87,377.911 1040.94,358.267 1038.87,338.623 1032.77,319.839 1022.89,302.733 1012.01,290.385 1007.11,285.981 996.461,278.239 990.759,274.949 975.653,268.411 959.587,264.819 953.041,264.131 936.581,264.305 917.261,268.411 899.215,276.445 883.237,288.055 870.019,302.733 860.145,319.839 854.041,338.623 851.975,358.267" style="stroke:rgb(0,0,0);stroke-width:1px;fill:none;stroke-opacity:1;stroke-linecap:round;stroke-linejoin:round;;fill:none"/>
<polyline points="861.453,819.379 864.151,822.177 865.243,824.217 865.915,826.435 866.141,828.739 866.141,911.417 865.915,913.719 865.243,915.937 864.151,917.979 862.681,919.769 860.891,921.237 858.851,922.329 856.635,923.001 854.331,923.227 736.219,923.227 733.915,923.001 731.701,922.329 729.659,921.237 727.869,919.769 726.399,917.979 725.307,915.937 724.635,913.719 724.409,911.417 724.409,828.739 724.635,826.435 725.307,824.217 726.399,822.177 727.869,820.387 729.659,818.919 731.701,817.827 733.915,817.155 736.219,816.929 752.855,816.927 757.435,818.027 766.075,819.397 776.649,820.053 812.991,820.077 824.473,819.397 833.113,818.027 837.685,816.929 854.331,816.929 856.635,817.155 858.851,817.827 861.453,819.379 872.871,816.577 882.603,815.157 883.421,816.689 885.213,822.597 885.819,828.739 885.819,911.417 885.213,917.557 883.421,923.467 880.511,928.911 876.595,933.683 871.825,937.599 866.381,940.507 860.473,942.299 854.331,942.905 736.219,942.905 730.077,942.299 724.169,940.507 718.725,937.599 713.955,933.683 710.039,928.911 707.129,923.467 705.337,917.557 704.731,911.417 724.409,911.417 704.731,911.417 704.731,828.739 705.337,822.597 707.129,816.689 707.947,815.159 717.677,816.577 729.095,819.381 731.701,817.827 733.915,817.155 752.855,816.927 746.317,813.077 738.935,806.517 737.283,804.681 732.203,797.689 730.969,795.551 727.011,786.503 724.893,776.855 724.635,774.399 704.959,774.399 724.635,774.399 724.635,765.757 724.893,763.301 727.011,753.653 730.969,744.605 732.203,742.467 738.061,734.515 746.317,727.079 755.941,721.523 760.177,720.077 830.367,720.077 834.609,721.523 843.195,726.405 845.193,727.857 852.489,734.515 858.347,742.467 859.581,744.605 863.539,753.653 865.657,763.301 865.915,765.757 865.849,775.633 863.859,785.309 863.097,787.657 859.021,796.653 853.267,804.681 851.615,806.517 844.233,813.077 837.685,816.929 845.193,812.299 852.489,805.643 856.457,800.291 868.793,797.323 881.125,795.525 882.253,792.583 885.419,777.691 885.419,762.465 882.253,747.573 877.557,736.601 874.267,730.901 873.551,729.915 847.479,729.915 844.233,727.079 835.711,722.085 830.367,720.077 834.609,718.633 844.233,713.077 851.615,706.517 853.267,704.681 859.021,696.653 863.097,687.657 863.859,685.309 865.849,675.633 865.849,664.523 863.859,654.849 863.097,652.499 859.021,643.503 853.267,635.475 851.615,633.639 844.233,627.079 835.711,622.085 833.455,621.081 824.041,618.089 814.227,616.993 776.323,616.993 766.509,618.089 757.095,621.081 754.839,622.085 747.355,626.405 745.357,627.857 738.061,634.515 731.529,643.503 727.453,652.499 726.691,654.849 724.701,664.523 724.635,674.399 704.959,674.399 724.635,674.399 724.893,676.855 726.691,685.309 727.453,687.657 731.529,696.653 737.283,704.681 738.935,706.517 746.317,713.077 755.941,718.633 760.177,720.077 830.367,720.077 835.711,718.071 844.233,713.077 847.481,710.239 873.553,710.239 876.061,706.491 877.557,703.555 882.253,692.583 885.419,677.691 885.419,662.465 883.107,650.757 881.073,644.497 876.061,633.665 869.187,623.909 864.781,619.017 858.359,613.235 853.033,609.365 842.613,603.547 831.317,599.695 824.877,598.327 812.991,597.251 774.267,597.423 762.417,598.843 751.015,602.367 745.001,605.043 734.751,611.159 725.769,619.017 721.363,623.909 716.283,630.901 712.993,636.601 709.477,644.497 707.443,650.757 705.131,662.465 704.959,674.399 705.647,680.945 708.297,692.583 714.489,706.491 716.997,710.239 743.069,710.239 746.317,713.077 754.839,718.071 760.177,720.077 754.839,722.085 746.317,727.079 743.071,729.915 716.999,729.915 714.489,733.665 712.993,736.601 708.297,747.573 705.131,762.465 704.959,774.399 705.647,780.945 707.443,789.399 709.425,795.527 721.755,797.323 734.093,800.293" style="stroke:rgb(103,198,105);stroke-width:23.622047;fill:none;stroke-opacity:0.5;stroke-linecap:round;stroke-linejoin:round;;fill:none"/>
<polyline points="861.453,819.379 864.151,822.177 865.243,824.217 865.915,826.435 866.141,828.739 866.141,911.417 865.915,913.719 865.243,915.937 864.151,917.979 862.681,919.769 860.891,921.237 858.851,922.329 856.635,923.001 854.331,923.227 736.219,923.227 733.915,923.001 731.701,922.329 729.659,921.237 727.869,919.769 726.399,917.979 725.307,915.937 724.635,913.719 724.409,911.417 724.409,828.739 724.635,826.435 725.307,824.217 726.399,822.177 727.869,820.387 729.659,818.919 731.701,817.827 733.915,817.155 736.219,816.929 752.855,816.927 757.435,818.027 766.075,819.397 776.649,820.053 812.991,820.077 824.473,819.397 833.113,818.027 837.685,816.929 854.331,816.929 856.635,817.155 858.851,817.827 861.453,819.379 872.871,816.577 882.603,815.157 883.421,816.689 885.213,822.597 885.819,828.739 885.819,911.417 885.213,917.557 883.421,923.467 880.511,928.911 876.595,933.683 871.825,937.599 866.381,940.507 860.473,942.299 854.331,942.905 736.219,942.905 730.077,942.299 724.169,940.507 718.725,937.599 713.955,933.683 710.039,928.911 707.129,923.467 705.337,917.557 704.731,911.417 724.409,911.417 704.731,911.417 704.731,828.739 705.337,822.597 707.129,816.689 707.947,815.159 717.677,816.577 729.095,819.381 731.701,817.827 733.915,817.155 752.855,816.927 746.317,813.077 738.935,806.517 737.283,804.681 732.203,797.689 730.969,795.551 727.011,786.503 724.893,776.855 724.635,774.399 704.959,774.399 724.635,774.399 724.635,765.757 724.893,763.301 727.011,753.653 730.969,744.605 732.203,742.467 738.061,734.515 746.317,727.079 755.941,721.523 760.177,720.077 830.367,720.077 834.609,721.523 843.195,726.405 845.193,727.857 852.489,734.515 858.347,742.467 859.581,744.605 863.539,753.653 865.657,763.301 865.915,765.757 865.849,775.633 863.859,785.309 863.097,787.657 859.021,796.653 853.267,804.681 851.615,806.517 844.233,813.077 837.685,816.929 845.193,812.299 852.489,805.643 856.457,800.291 868.793,797.323 881.125,795.525 882.253,792.583 885.419,777.691 885.419,762.465 882.253,747.573 877.557,736.601 874.267,730.901 873.551,729.915 847.479,729.915 844.233,727.079 835.711,722.085 830.367,720.077 834.609,718.633 844.233,713.077 851.615,706.517 853.267,704.681 859.021,696.653 863.097,687.657 863.859,685.309 865.849,675.633 865.849,664.523 863.859,654.849 863.097,652.499 859.021,643.503 853.267,635.475 851.615,633.639 844.233,627.079 835.711,622.085 833.455,621.081 824.041,618.089 814.227,616.993 776.323,616.993 766.509,618.089 757.095,621.081 754.839,622.085 747.355,626.405 745.357,627.857 738.061,634.515 731.529,643.503 727.453,652.499 726.691,654.849 724.701,664.523 724.635,674.399 704.959,674.399 724.635,674.399 724.893,676.855 726.691,685.309 727.453,687.657 731.529,696.653 737.283,704.681 738.935,706.517 746.317,713.077 755.941,718.633 760.177,720.077 830.367,720.077 835.711,718.071 844.233,713.077 847.481,710.239 873.553,710.239 876.061,706.491 877.557,703.555 882.253,692.583 885.419,677.691 885.419,662.465 883.107,650.757 881.073,644.497 876.061,633.665 869.187,623.909 864.781,619.017 858.359,613.235 853.033,609.365 842.613,603.547 831.317,599.695 824.877,598.327 812.991,597.251 774.267,597.423 762.417,598.843 751.015,602.367 745.001,605.043 734.751,611.159 725.769,619.017 721.363,623.909 716.283,630.901 712.993,636.601 709.477,644.497 707.443,650.757 705.131,662.465 704.959,674.399 705.647,680.945 708.297,692.583 714.489,706.491 716.997,710.239 743.069,710.239 746.317,713.077 754.839,718.071 760.177,720.077 754.839,722.085 746.317,727.079 743.071,729.915 716.999,729.915 714.489,733.665 712.993,736.601 708.297,747.573 705.131,762.465 704.959,774.399 705.647,780.945 707.443,789.399 709.425,795.527 721.755,797.323 734.093,800.293" style="stroke:rgb(0,0,0);stroke-width:1px;fill:none;stroke-opacity:1;stroke-linecap:round;stroke-linejoin:round;;fill:none"/>
<polyline points="366.141,1093.7 367.775,1109.25 372.165,1122.97 373.169,1125.23 379.753,1136.63 381.205,1138.63 390.891,1149.29 402.505,1157.81 404.645,1159.04 417.829,1164.84 433.125,1168.09 448.763,1168.09 464.059,1164.84 478.345,1158.48 490.037,1150.07 491.871,1148.41 500.683,1138.63 502.135,1136.63 509.281,1124.12 513.793,1110.45 514.307,1108.03 515.747,1093.7 514.113,1078.15 509.281,1063.27 501.461,1049.73 490.997,1038.11 479.383,1029.59 477.245,1028.36 464.059,1022.56 449.985,1019.5 447.529,1019.24 433.125,1019.31 417.829,1022.56 404.645,1028.36 402.505,1029.59 390.891,1038.11 380.427,1049.73 372.609,1063.27 368.095,1076.95 367.583,1079.37 366.141,1093.7 346.463,1093.7 348.529,1113.34 354.633,1132.13 364.509,1149.23 375.395,1161.58 380.287,1165.99 390.939,1173.73 396.641,1177.02 411.749,1183.56 427.813,1187.15 434.359,1187.83 450.821,1187.66 470.141,1183.56 488.185,1175.52 504.163,1163.91 517.381,1149.23 527.257,1132.13 533.359,1113.34 535.425,1093.7 533.359,1074.06 527.257,1055.27 517.381,1038.17 506.495,1025.82 501.603,1021.41 490.949,1013.67 485.247,1010.38 470.141,1003.84 454.075,1000.25 447.529,999.565 431.069,999.737 411.749,1003.84 393.705,1011.88 377.725,1023.49 364.509,1038.17 354.633,1055.27 348.529,1074.06 346.463,1093.7" style="stroke:rgb(103,198,105);stroke-width:23.622047;fill:none;stroke-opacity:0.5;stroke-linecap:round;stroke-linejoin:round;;fill:none"/>
<polyline points="366.141,1093.7 367.775,1109.25 372.165,1122.97 373.169,1125.23 379.753,1136.63 381.205,1138.63 390.891,1149.29 402.505,1157.81 404.645,1159.04 417.829,1164.84 433.125,1168.09 448.763,1168.09 464.059,1164.84 478.345,1158.48 490.037,1150.07 491.871,1148.41 500.683,1138.63 502.135,1136.63 509.281,1124.12 513.793,1110.45 514.307,1108.03 515.747,1093.7 514.113,1078.15 509.281,1063.27 501.461,1049.73 490.997,1038.11 479.383,1029.59 477.245,1028.36 464.059,1022.56 449.985,1019.5 447.529,1019.24 433.125,1019.31 417.829,1022.56 404.645,1028.36 402.505,1029.59 390.891,1038.11 380.427,1049.73 372.609,1063.27 368.095,1076.95 367.583,1079.37 366.141,1093.7 346.463,1093.7 348.529,1113.34 354.633,1132.13 364.509,1149.23 375.395,1161.58 380.287,1165.99 390.939,1173.73 396.641,1177.02 411.749,1183.56 427.813,1187.15 434.359,1187.83 450.821,1187.66 470.141,1183.56 488.185,1175.52 504.163,1163.91 517.381,1149.23 527.257,1132.13 533.359,1113.34 535.425,1093.7 533.359,1074.06 527.257,1055.27 517.381,1038.17 506.495,1025.82 501.603,1021.41 490.949,1013.67 485.247,1010.38 470.141,1003.84 454.075,1000.25 447.529,999.565 431.069,999.737 411.749,1003.84 393.705,1011.88 377.725,1023.49 364.509,1038.17 354.633,1055.27 348.529,1074.06 346.463,1093.7" style="stroke:rgb(0,0,0);stroke-width:1px;fill:none;stroke-opacity:1;stroke-linecap:round;stroke-linejoin:round;;fill:none"/>
<polyline points="851.975,1263.78 854.041,1244.13 860.145,1225.35 870.019,1208.24 880.905,1195.9 885.797,1191.49 899.215,1181.96 914.183,1175.1 920.443,1173.07 933.325,1170.33 939.871,1169.64 956.331,1169.82 975.653,1173.92 993.697,1181.96 1009.67,1193.57 1022.89,1208.24 1032.77,1225.35 1038.87,1244.13 1040.94,1263.78 1038.87,1283.42 1032.77,1302.21 1022.89,1319.31 1012.01,1331.66 1007.11,1336.06 996.461,1343.81 990.759,1347.1 975.653,1353.63 959.587,1357.23 953.041,1357.91 936.581,1357.74 917.261,1353.63 899.215,1345.6 883.237,1333.99 870.019,1319.31 860.145,1302.21 854.041,1283.42 851.975,1263.78 871.653,1263.78 873.095,1249.45 873.607,1247.03 878.121,1233.35 885.939,1219.81 895.529,1209.06 897.363,1207.41 909.055,1199 923.341,1192.64 937.415,1189.58 939.871,1189.32 954.275,1189.38 969.571,1192.64 982.757,1198.44 984.895,1199.67 996.509,1208.19 1006.19,1218.85 1007.65,1220.85 1014.79,1233.35 1019.62,1248.23 1021.26,1263.78 1019.82,1278.11 1019.3,1280.52 1014.79,1294.2 1007.65,1306.71 1006.19,1308.71 997.383,1318.49 995.549,1320.15 983.857,1328.56 969.571,1334.92 954.275,1338.17 939.871,1338.24 937.415,1337.98 923.341,1334.92 910.157,1329.12 908.017,1327.89 897.363,1320.15 895.529,1318.49 885.939,1307.75 878.121,1294.2 873.287,1279.33 871.653,1263.78" style="stroke:rgb(103,198,105);stroke-width:23.622047;fill:none;stroke-opacity:0.5;stroke-linecap:round;stroke-linejoin:round;;fill:none"/>
<polyline points="851.975,1263.78 854.041,1244.13 860.145,1225.35 870.019,1208.24 880.905,1195.9 885.797,1191.49 899.215,1181.96 914.183,1175.1 920.443,1173.07 933.325,1170.33 939.871,1169.64 956.331,1169.82 975.653,1173.92 993.697,1181.96 1009.67,1193.57 1022.89,1208.24 1032.77,1225.35 1038.87,1244.13 1040.94,1263.78 1038.87,1283.42 1032.77,1302.21 1022.89,1319.31 1012.01,1331.66 1007.11,1336.06 996.461,1343.81 990.759,1347.1 975.653,1353.63 959.587,1357.23 953.041,1357.91 936.581,1357.74 917.261,1353.63 899.215,1345.6 883.237,1333.99 870.019,1319.31 860.145,1302.21 854.041,1283.42 851.975,1263.78 871.653,1263.78 873.095,1249.45 873.607,1247.03 878.121,1233.35 885.939,1219.81 895.529,1209.06 897.363,1207.41 909.055,1199 923.341,1192.64 937.415,1189.58 939.871,1189.32 954.275,1189.38 969.571,1192.64 982.757,1198.44 984.895,1199.67 996.509,1208.19 1006.19,1218.85 1007.65,1220.85 1014.79,1233.35 1019.62,1248.23 1021.26,1263.78 1019.82,1278.11 1019.3,1280.52 1014.79,1294.2 1007.65,1306.71 1006.19,1308.71 997.383,1318.49 995.549,1320.15 983.857,1328.56 969.571,1334.92 954.275,1338.17 939.871,1338.24 937.415,1337.98 923.341,1334.92 910.157,1329.12 908.017,1327.89 897.363,1320.15 895.529,1318.49 885.939,1307.75 878.121,1294.2 873.287,1279.33 871.653,1263.78" style="stroke:rgb(0,0,0);stroke-width:1px;fill:none;stroke-opacity:1;stroke-linecap:round;stroke-linejoin:round;;fill:none"/>
</svg>
