<?xml version="1.0" standalone="no"?>
<!DOCTYPE svg PUBLIC "-//W3C//DTD SVG 1.1//EN"
"http://www.w3.org/Graphics/SVG/1.1/DTD/svg11.dtd">
<svg width="129.26" height="117.732" viewBox="0 0 2692.91 2452.76" version="1.1"
xmlns="http://www.w3.org/2000/svg"
xmlns:xlink="http://www.w3.org/1999/xlink">
<polyline points="1488.2,2035.43 1488.8,2041.57 1490.59,2047.48 1493.5,2052.93 1497.42,2057.7 1502.19,2061.61 1507.63,2064.52 1513.54,2066.31 1519.68,2066.92 1724.41,2066.92 1730.55,2066.31 1736.46,2064.52 1741.9,2061.61 1746.67,2057.7 1750.59,2052.93 1753.5,2047.48 1755.29,2041.57 1755.9,2035.43 1755.9,1990.57 1755.64,1989.38 1755.55,1988.87 1752.16,1967.47 1752.09,1966.96 1751.27,1959.21 1751.25,1959.21 1751.27,1959.21 1751.23,1958.7 1750.11,1937.3 1750.1,1936.78 1750.1,1929.36 1750.07,1929.36 1750.1,1929.36 1750.11,1928.84 1751.23,1907.44 1751.27,1906.92 1752.09,1899.17 1752.07,1899.17 1752.09,1899.17 1752.16,1898.67 1755.55,1877.27 1755.64,1876.75 1755.9,1875.56 1755.9,1830.71 1755.29,1824.56 1753.5,1818.66 1750.59,1813.21 1746.67,1808.44 1741.9,1804.53 1736.46,1801.62 1730.55,1799.82 1724.41,1799.22 1519.68,1799.22 1513.54,1799.82 1507.63,1801.62 1502.19,1804.53 1497.42,1808.44 1493.5,1813.21 1490.59,1818.66 1488.8,1824.56 1488.2,1830.71 1488.2,2035.43 1507.87,2035.43 1508.1,2037.74 1508.77,2039.95 1509.86,2041.99 1511.33,2043.78 1513.12,2045.25 1515.16,2046.34 1517.38,2047.02 1519.68,2047.24 1724.41,2047.24 1726.71,2047.02 1728.93,2046.34 1730.97,2045.25 1732.76,2043.78 1734.23,2041.99 1735.32,2039.95 1735.99,2037.74 1736.22,2035.43 1736.22,1830.71 1735.99,1828.4 1735.32,1826.19 1734.23,1824.15 1732.76,1822.36 1730.97,1820.89 1728.93,1819.8 1726.71,1819.12 1724.41,1818.9 1519.68,1818.9 1517.38,1819.12 1515.16,1819.8 1513.12,1820.89 1511.33,1822.36 1509.86,1824.15 1508.77,1826.19 1508.1,1828.4 1507.87,1830.71 1507.87,2035.43" style="stroke:rgb(103,198,105);stroke-width:23.622047;fill:none;stroke-opacity:0.5;stroke-linecap:round;stroke-linejoin:round;;fill:none"/>
<polyline points="1488.2,2035.43 1488.8,2041.57 1490.59,2047.48 1493.5,2052.93 1497.42,2057.7 1502.19,2061.61 1507.63,2064.52 1513.54,2066.31 1519.68,2066.92 1724.41,2066.92 1730.55,2066.31 1736.46,2064.52 1741.9,2061.61 1746.67,2057.7 1750.59,2052.93 1753.5,2047.48 1755.29,2041.57 1755.9,2035.43 1755.9,1990.57 1755.64,1989.38 1755.55,1988.87 1752.16,1967.47 1752.09,1966.96 1751.27,1959.21 1751.25,1959.21 1751.27,1959.21 1751.23,1958.7 1750.11,1937.3 1750.1,1936.78 1750.1,1929.36 1750.07,1929.36 1750.1,1929.36 1750.11,1928.84 1751.23,1907.44 1751.27,1906.92 1752.09,1899.17 1752.07,1899.17 1752.09,1899.17 1752.16,1898.67 1755.55,1877.27 1755.64,1876.75 1755.9,1875.56 1755.9,1830.71 1755.29,1824.56 1753.5,1818.66 1750.59,1813.21 1746.67,1808.44 1741.9,1804.53 1736.46,1801.62 1730.55,1799.82 1724.41,1799.22 1519.68,1799.22 1513.54,1799.82 1507.63,1801.62 1502.19,1804.53 1497.42,1808.44 1493.5,1813.21 1490.59,1818.66 1488.8,1824.56 1488.2,1830.71 1488.2,2035.43 1507.87,2035.43 1508.1,2037.74 1508.77,2039.95 1509.86,2041.99 1511.33,2043.78 1513.12,2045.25 1515.16,2046.34 1517.38,2047.02 1519.68,2047.24 1724.41,2047.24 1726.71,2047.02 1728.93,2046.34 1730.97,2045.25 1732.76,2043.78 1734.23,2041.99 1735.32,2039.95 1735.99,2037.74 1736.22,2035.43 1736.22,1830.71 1735.99,1828.4 1735.32,1826.19 1734.23,1824.15 1732.76,1822.36 1730.97,1820.89 1728.93,1819.8 1726.71,1819.12 1724.41,1818.9 1519.68,1818.9 1517.38,1819.12 1515.16,1819.8 1513.12,1820.89 1511.33,1822.36 1509.86,1824.15 1508.77,1826.19 1508.1,1828.4 1507.87,1830.71 1507.87,2035.43" style="stroke:rgb(0,0,0);stroke-width:1px;fill:none;stroke-opacity:1;stroke-linecap:round;stroke-linejoin:round;;fill:none"/>
<polyline points="1769.78,1936.52 1770.87,1957.41 1771.63,1964.65 1774.94,1985.53 1775.37,1987.53 1776.85,1990.45 1787.55,2008.98 1789.35,2011.74 1791.42,2014.31 1805.74,2030.21 1808.07,2032.54 1810.63,2034.61 1827.95,2047.19 1830.71,2048.99 1833.65,2050.48 1853.2,2059.19 1856.27,2060.37 1859.46,2061.22 1880.39,2065.67 1883.65,2066.19 1886.94,2066.36 1908.34,2066.36 1911.63,2066.19 1914.88,2065.67 1935.81,2061.22 1939,2060.37 1942.08,2059.19 1961.62,2050.48 1964.56,2048.99 1967.33,2047.19 1984.64,2034.61 1987.2,2032.54 1989.53,2030.21 2003.85,2014.31 2005.92,2011.74 2007.72,2008.98 2018.42,1990.45 2019.91,1987.51 2021.1,1984.43 2027.71,1964.08 2028.56,1960.9 2029.08,1957.64 2031.31,1936.36 2031.49,1933.07 2031.31,1929.78 2029.08,1908.5 2028.56,1905.24 2027.71,1902.06 2021.1,1881.7 2019.91,1878.63 2018.42,1875.69 2007.72,1857.16 2005.92,1854.39 2003.85,1851.83 1989.53,1835.93 1987.2,1833.6 1984.64,1831.52 1967.33,1818.95 1964.56,1817.15 1961.62,1815.66 1942.08,1806.95 1939,1805.77 1935.81,1804.92 1914.88,1800.47 1911.63,1799.95 1908.34,1799.78 1886.94,1799.78 1883.65,1799.95 1880.39,1800.47 1859.46,1804.92 1856.27,1805.77 1853.2,1806.95 1833.65,1815.66 1830.71,1817.15 1827.95,1818.95 1810.63,1831.52 1808.07,1833.6 1805.74,1835.93 1791.42,1851.83 1789.35,1854.39 1787.55,1857.16 1776.85,1875.69 1775.37,1878.61 1774.94,1880.61 1771.63,1901.49 1770.87,1908.73 1769.78,1929.61 1769.78,1936.52 1783.46,1933.07 1783.53,1934.3 1785.76,1955.59 1785.96,1956.81 1786.28,1958 1792.89,1978.35 1793.33,1979.51 1793.9,1980.61 1804.59,1999.14 1805.27,2000.18 1806.05,2001.14 1820.37,2017.04 1821.24,2017.92 1822.2,2018.69 1839.51,2031.27 1840.55,2031.95 1841.65,2032.51 1861.2,2041.21 1862.35,2041.65 1863.55,2041.97 1884.48,2046.42 1885.7,2046.62 1886.94,2046.68 1908.34,2046.68 1909.57,2046.62 1910.79,2046.42 1931.72,2041.97 1932.92,2041.65 1934.07,2041.21 1953.62,2032.51 1954.72,2031.95 1955.76,2031.27 1973.07,2018.69 1974.03,2017.92 1974.91,2017.04 1989.23,2001.14 1990,2000.18 1990.68,1999.14 2001.38,1980.61 2001.94,1979.51 2002.38,1978.35 2008.99,1958 2009.31,1956.81 2009.51,1955.59 2011.74,1934.3 2011.81,1933.07 2011.74,1931.83 2009.51,1910.55 2009.31,1909.33 2008.99,1908.14 2002.38,1887.78 2001.94,1886.63 2001.38,1885.53 1990.68,1867 1990,1865.96 1989.23,1865 1974.91,1849.1 1974.03,1848.22 1973.07,1847.44 1955.76,1834.87 1954.72,1834.19 1953.62,1833.63 1934.07,1824.93 1932.92,1824.48 1931.72,1824.16 1910.79,1819.71 1909.57,1819.52 1908.34,1819.46 1886.94,1819.46 1885.7,1819.52 1884.48,1819.71 1863.55,1824.16 1862.35,1824.48 1861.2,1824.93 1841.65,1833.63 1840.55,1834.19 1839.51,1834.87 1822.2,1847.44 1821.24,1848.22 1820.37,1849.1 1806.05,1865 1805.27,1865.96 1804.59,1867 1793.9,1885.53 1793.33,1886.63 1792.89,1887.78 1786.28,1908.14 1785.96,1909.33 1785.76,1910.55 1783.53,1931.83 1783.46,1933.07" style="stroke:rgb(115,81,255);stroke-width:23.622047;fill:none;stroke-opacity:0.5;stroke-linecap:round;stroke-linejoin:round;;fill:none"/>
<polyline points="1769.78,1936.52 1770.87,1957.41 1771.63,1964.65 1774.94,1985.53 1775.37,1987.53 1776.85,1990.45 1787.55,2008.98 1789.35,2011.74 1791.42,2014.31 1805.74,2030.21 1808.07,2032.54 1810.63,2034.61 1827.95,2047.19 1830.71,2048.99 1833.65,2050.48 1853.2,2059.19 1856.27,2060.37 1859.46,2061.22 1880.39,2065.67 1883.65,2066.19 1886.94,2066.36 1908.34,2066.36 1911.63,2066.19 1914.88,2065.67 1935.81,2061.22 1939,2060.37 1942.08,2059.19 1961.62,2050.48 1964.56,2048.99 1967.33,2047.19 1984.64,2034.61 1987.2,2032.54 1989.53,2030.21 2003.85,2014.31 2005.92,2011.74 2007.72,2008.98 2018.42,1990.45 2019.91,1987.51 2021.1,1984.43 2027.71,1964.08 2028.56,1960.9 2029.08,1957.64 2031.31,1936.36 2031.49,1933.07 2031.31,1929.78 2029.08,1908.5 2028.56,1905.24 2027.71,1902.06 2021.1,1881.7 2019.91,1878.63 2018.42,1875.69 2007.72,1857.16 2005.92,1854.39 2003.85,1851.83 1989.53,1835.93 1987.2,1833.6 1984.64,1831.52 1967.33,1818.95 1964.56,1817.15 1961.62,1815.66 1942.08,1806.95 1939,1805.77 1935.81,1804.92 1914.88,1800.47 1911.63,1799.95 1908.34,1799.78 1886.94,1799.78 1883.65,1799.95 1880.39,1800.47 1859.46,1804.92 1856.27,1805.77 1853.2,1806.95 1833.65,1815.66 1830.71,1817.15 1827.95,1818.95 1810.63,1831.52 1808.07,1833.6 1805.74,1835.93 1791.42,1851.83 1789.35,1854.39 1787.55,1857.16 1776.85,1875.69 1775.37,1878.61 1774.94,1880.61 1771.63,1901.49 1770.87,1908.73 1769.78,1929.61 1769.78,1936.52 1783.46,1933.07 1783.53,1934.3 1785.76,1955.59 1785.96,1956.81 1786.28,1958 1792.89,1978.35 1793.33,1979.51 1793.9,1980.61 1804.59,1999.14 1805.27,2000.18 1806.05,2001.14 1820.37,2017.04 1821.24,2017.92 1822.2,2018.69 1839.51,2031.27 1840.55,2031.95 1841.65,2032.51 1861.2,2041.21 1862.35,2041.65 1863.55,2041.97 1884.48,2046.42 1885.7,2046.62 1886.94,2046.68 1908.34,2046.68 1909.57,2046.62 1910.79,2046.42 1931.72,2041.97 1932.92,2041.65 1934.07,2041.21 1953.62,2032.51 1954.72,2031.95 1955.76,2031.27 1973.07,2018.69 1974.03,2017.92 1974.91,2017.04 1989.23,2001.14 1990,2000.18 1990.68,1999.14 2001.38,1980.61 2001.94,1979.51 2002.38,1978.35 2008.99,1958 2009.31,1956.81 2009.51,1955.59 2011.74,1934.3 2011.81,1933.07 2011.74,1931.83 2009.51,1910.55 2009.31,1909.33 2008.99,1908.14 2002.38,1887.78 2001.94,1886.63 2001.38,1885.53 1990.68,1867 1990,1865.96 1989.23,1865 1974.91,1849.1 1974.03,1848.22 1973.07,1847.44 1955.76,1834.87 1954.72,1834.19 1953.62,1833.63 1934.07,1824.93 1932.92,1824.48 1931.72,1824.16 1910.79,1819.71 1909.57,1819.52 1908.34,1819.46 1886.94,1819.46 1885.7,1819.52 1884.48,1819.71 1863.55,1824.16 1862.35,1824.48 1861.2,1824.93 1841.65,1833.63 1840.55,1834.19 1839.51,1834.87 1822.2,1847.44 1821.24,1848.22 1820.37,1849.1 1806.05,1865 1805.27,1865.96 1804.59,1867 1793.9,1885.53 1793.33,1886.63 1792.89,1887.78 1786.28,1908.14 1785.96,1909.33 1785.76,1910.55 1783.53,1931.83 1783.46,1933.07" style="stroke:rgb(0,0,0);stroke-width:1px;fill:none;stroke-opacity:1;stroke-linecap:round;stroke-linejoin:round;;fill:none"/>
<polyline points="2157.49,1893.7 2157.66,1896.99 2159.04,1910.09 2159.55,1913.34 2160.4,1916.53 2164.47,1929.05 2165.65,1932.13 2167.15,1935.06 2173.74,1946.47 2175.53,1949.23 2177.6,1951.79 2186.42,1961.58 2188.75,1963.91 2191.31,1965.99 2201.96,1973.73 2204.73,1975.52 2207.66,1977.02 2219.69,1982.37 2222.77,1983.56 2225.95,1984.41 2238.84,1987.15 2242.09,1987.66 2245.38,1987.83 2258.55,1987.83 2261.84,1987.66 2265.1,1987.15 2277.98,1984.41 2281.16,1983.56 2284.24,1982.37 2296.27,1977.02 2299.21,1975.52 2301.97,1973.73 2312.63,1965.99 2315.19,1963.91 2317.52,1961.58 2326.33,1951.79 2328.4,1949.23 2330.2,1946.47 2336.78,1935.06 2338.28,1932.13 2339.46,1929.05 2343.53,1916.53 2344.38,1913.34 2344.9,1910.09 2346.27,1896.99 2346.45,1893.7 2346.27,1890.41 2344.9,1877.31 2344.38,1874.06 2343.53,1870.87 2339.46,1858.35 2338.28,1855.27 2336.78,1852.33 2330.2,1840.93 2328.4,1838.17 2326.33,1835.6 2317.52,1825.82 2315.19,1823.49 2312.63,1821.41 2301.97,1813.67 2299.21,1811.88 2296.27,1810.38 2284.24,1805.02 2281.16,1803.84 2277.98,1802.99 2265.1,1800.25 2261.84,1799.74 2258.55,1799.56 2245.38,1799.56 2242.09,1799.74 2238.84,1800.25 2225.95,1802.99 2222.77,1803.84 2219.69,1805.02 2207.66,1810.38 2204.73,1811.88 2201.96,1813.67 2191.31,1821.41 2188.75,1823.49 2186.42,1825.82 2177.6,1835.6 2175.53,1838.17 2173.74,1840.93 2167.15,1852.33 2165.65,1855.27 2164.47,1858.35 2160.4,1870.87 2159.55,1874.06 2159.04,1877.31 2157.66,1890.41 2157.49,1893.7 2177.16,1893.7 2177.23,1894.93 2178.61,1908.03 2178.8,1909.25 2179.12,1910.45 2183.19,1922.97 2183.63,1924.12 2184.19,1925.23 2190.78,1936.63 2191.45,1937.67 2192.23,1938.63 2201.04,1948.41 2201.91,1949.29 2202.87,1950.07 2213.53,1957.81 2214.57,1958.48 2215.67,1959.04 2227.7,1964.4 2228.85,1964.84 2230.05,1965.16 2242.93,1967.9 2244.15,1968.09 2245.38,1968.16 2258.55,1968.16 2259.79,1968.09 2261.01,1967.9 2273.89,1965.16 2275.08,1964.84 2276.24,1964.4 2288.27,1959.04 2289.37,1958.48 2290.41,1957.81 2301.06,1950.07 2302.02,1949.29 2302.89,1948.41 2311.71,1938.63 2312.48,1937.67 2313.16,1936.63 2319.74,1925.23 2320.3,1924.12 2320.75,1922.97 2324.82,1910.45 2325.14,1909.25 2325.33,1908.03 2326.71,1894.93 2326.77,1893.7 2326.71,1892.46 2325.33,1879.37 2325.14,1878.15 2324.82,1876.95 2320.75,1864.43 2320.3,1863.27 2319.74,1862.17 2313.16,1850.77 2312.48,1849.73 2311.71,1848.77 2302.89,1838.98 2302.02,1838.11 2301.06,1837.33 2290.41,1829.59 2289.37,1828.92 2288.27,1828.36 2276.24,1823 2275.08,1822.56 2273.89,1822.24 2261.01,1819.5 2259.79,1819.31 2258.55,1819.24 2245.38,1819.24 2244.15,1819.31 2242.93,1819.5 2230.05,1822.24 2228.85,1822.56 2227.7,1823 2215.67,1828.36 2214.57,1828.92 2213.53,1829.59 2202.87,1837.33 2201.91,1838.11 2201.04,1838.98 2192.23,1848.77 2191.45,1849.73 2190.78,1850.77 2184.19,1862.17 2183.63,1863.27 2183.19,1864.43 2179.12,1876.95 2178.8,1878.15 2178.61,1879.37 2177.23,1892.46 2177.16,1893.7" style="stroke:rgb(74,236,41);stroke-width:23.622047;fill:none;stroke-opacity:0.5;stroke-linecap:round;stroke-linejoin:round;;fill:none"/>
<polyline points="2157.49,1893.7 2157.66,1896.99 2159.04,1910.09 2159.55,1913.34 2160.4,1916.53 2164.47,1929.05 2165.65,1932.13 2167.15,1935.06 2173.74,1946.47 2175.53,1949.23 2177.6,1951.79 2186.42,1961.58 2188.75,1963.91 2191.31,1965.99 2201.96,1973.73 2204.73,1975.52 2207.66,1977.02 2219.69,1982.37 2222.77,1983.56 2225.95,1984.41 2238.84,1987.15 2242.09,1987.66 2245.38,1987.83 2258.55,1987.83 2261.84,1987.66 2265.1,1987.15 2277.98,1984.41 2281.16,1983.56 2284.24,1982.37 2296.27,1977.02 2299.21,1975.52 2301.97,1973.73 2312.63,1965.99 2315.19,1963.91 2317.52,1961.58 2326.33,1951.79 2328.4,1949.23 2330.2,1946.47 2336.78,1935.06 2338.28,1932.13 2339.46,1929.05 2343.53,1916.53 2344.38,1913.34 2344.9,1910.09 2346.27,1896.99 2346.45,1893.7 2346.27,1890.41 2344.9,1877.31 2344.38,1874.06 2343.53,1870.87 2339.46,1858.35 2338.28,1855.27 2336.78,1852.33 2330.2,1840.93 2328.4,1838.17 2326.33,1835.6 2317.52,1825.82 2315.19,1823.49 2312.63,1821.41 2301.97,1813.67 2299.21,1811.88 2296.27,1810.38 2284.24,1805.02 2281.16,1803.84 2277.98,1802.99 2265.1,1800.25 2261.84,1799.74 2258.55,1799.56 2245.38,1799.56 2242.09,1799.74 2238.84,1800.25 2225.95,1802.99 2222.77,1803.84 2219.69,1805.02 2207.66,1810.38 2204.73,1811.88 2201.96,1813.67 2191.31,1821.41 2188.75,1823.49 2186.42,1825.82 2177.6,1835.6 2175.53,1838.17 2173.74,1840.93 2167.15,1852.33 2165.65,1855.27 2164.47,1858.35 2160.4,1870.87 2159.55,1874.06 2159.04,1877.31 2157.66,1890.41 2157.49,1893.7 2177.16,1893.7 2177.23,1894.93 2178.61,1908.03 2178.8,1909.25 2179.12,1910.45 2183.19,1922.97 2183.63,1924.12 2184.19,1925.23 2190.78,1936.63 2191.45,1937.67 2192.23,1938.63 2201.04,1948.41 2201.91,1949.29 2202.87,1950.07 2213.53,1957.81 2214.57,1958.48 2215.67,1959.04 2227.7,1964.4 2228.85,1964.84 2230.05,1965.16 2242.93,1967.9 2244.15,1968.09 2245.38,1968.16 2258.55,1968.16 2259.79,1968.09 2261.01,1967.9 2273.89,1965.16 2275.08,1964.84 2276.24,1964.4 2288.27,1959.04 2289.37,1958.48 2290.41,1957.81 2301.06,1950.07 2302.02,1949.29 2302.89,1948.41 2311.71,1938.63 2312.48,1937.67 2313.16,1936.63 2319.74,1925.23 2320.3,1924.12 2320.75,1922.97 2324.82,1910.45 2325.14,1909.25 2325.33,1908.03 2326.71,1894.93 2326.77,1893.7 2326.71,1892.46 2325.33,1879.37 2325.14,1878.15 2324.82,1876.95 2320.75,1864.43 2320.3,1863.27 2319.74,1862.17 2313.16,1850.77 2312.48,1849.73 2311.71,1848.77 2302.89,1838.98 2302.02,1838.11 2301.06,1837.33 2290.41,1829.59 2289.37,1828.92 2288.27,1828.36 2276.24,1823 2275.08,1822.56 2273.89,1822.24 2261.01,1819.5 2259.79,1819.31 2258.55,1819.24 2245.38,1819.24 2244.15,1819.31 2242.93,1819.5 2230.05,1822.24 2228.85,1822.56 2227.7,1823 2215.67,1828.36 2214.57,1828.92 2213.53,1829.59 2202.87,1837.33 2201.91,1838.11 2201.04,1838.98 2192.23,1848.77 2191.45,1849.73 2190.78,1850.77 2184.19,1862.17 2183.63,1863.27 2183.19,1864.43 2179.12,1876.95 2178.8,1878.15 2178.61,1879.37 2177.23,1892.46 2177.16,1893.7" style="stroke:rgb(0,0,0);stroke-width:1px;fill:none;stroke-opacity:1;stroke-linecap:round;stroke-linejoin:round;;fill:none"/>
<polyline points="2157.49,1093.7 2157.66,1096.99 2159.04,1110.09 2159.55,1113.34 2160.4,1116.53 2164.47,1129.05 2165.65,1132.13 2167.15,1135.06 2173.74,1146.47 2175.53,1149.23 2177.6,1151.79 2186.42,1161.58 2188.75,1163.91 2191.31,1165.99 2201.96,1173.73 2204.73,1175.52 2207.66,1177.02 2219.69,1182.37 2222.77,1183.56 2225.95,1184.41 2238.84,1187.15 2242.09,1187.66 2245.38,1187.83 2258.55,1187.83 2261.84,1187.66 2265.1,1187.15 2277.98,1184.41 2281.16,1183.56 2284.24,1182.37 2296.27,1177.02 2299.21,1175.52 2301.97,1173.73 2312.63,1165.99 2315.19,1163.91 2317.52,1161.58 2326.33,1151.79 2328.4,1149.23 2330.2,1146.47 2336.78,1135.06 2338.28,1132.13 2339.46,1129.05 2343.53,1116.53 2344.38,1113.34 2344.9,1110.09 2346.27,1096.99 2346.45,1093.7 2346.27,1090.41 2344.9,1077.31 2344.38,1074.06 2343.53,1070.87 2339.46,1058.35 2338.28,1055.27 2336.78,1052.33 2330.2,1040.93 2328.4,1038.17 2326.33,1035.6 2317.52,1025.82 2315.19,1023.49 2312.63,1021.41 2301.97,1013.67 2299.21,1011.88 2296.27,1010.38 2284.24,1005.02 2281.16,1003.84 2277.98,1002.99 2265.1,1000.25 2261.84,999.737 2258.55,999.565 2245.38,999.565 2242.09,999.737 2238.84,1000.25 2225.95,1002.99 2222.77,1003.84 2219.69,1005.02 2207.66,1010.38 2204.73,1011.88 2201.96,1013.67 2191.31,1021.41 2188.75,1023.49 2186.42,1025.82 2177.6,1035.6 2175.53,1038.17 2173.74,1040.93 2167.15,1052.33 2165.65,1055.27 2164.47,1058.35 2160.4,1070.87 2159.55,1074.06 2159.04,1077.31 2157.66,1090.41 2157.49,1093.7 2177.16,1093.7 2177.23,1094.93 2178.61,1108.03 2178.8,1109.25 2179.12,1110.45 2183.19,1122.97 2183.63,1124.12 2184.19,1125.23 2190.78,1136.63 2191.45,1137.67 2192.23,1138.63 2201.04,1148.41 2201.91,1149.29 2202.87,1150.07 2213.53,1157.81 2214.57,1158.48 2215.67,1159.04 2227.7,1164.4 2228.85,1164.84 2230.05,1165.16 2242.93,1167.9 2244.15,1168.09 2245.38,1168.16 2258.55,1168.16 2259.79,1168.09 2261.01,1167.9 2273.89,1165.16 2275.08,1164.84 2276.24,1164.4 2288.27,1159.04 2289.37,1158.48 2290.41,1157.81 2301.06,1150.07 2302.02,1149.29 2302.89,1148.41 2311.71,1138.63 2312.48,1137.67 2313.16,1136.63 2319.74,1125.23 2320.3,1124.12 2320.75,1122.97 2324.82,1110.45 2325.14,1109.25 2325.33,1108.03 2326.71,1094.93 2326.77,1093.7 2326.71,1092.46 2325.33,1079.37 2325.14,1078.15 2324.82,1076.95 2320.75,1064.43 2320.3,1063.27 2319.74,1062.17 2313.16,1050.77 2312.48,1049.73 2311.71,1048.77 2302.89,1038.98 2302.02,1038.11 2301.06,1037.33 2290.41,1029.59 2289.37,1028.92 2288.27,1028.36 2276.24,1023 2275.08,1022.56 2273.89,1022.24 2261.01,1019.5 2259.79,1019.31 2258.55,1019.24 2245.38,1019.24 2244.15,1019.31 2242.93,1019.5 2230.05,1022.24 2228.85,1022.56 2227.7,1023 2215.67,1028.36 2214.57,1028.92 2213.53,1029.59 2202.87,1037.33 2201.91,1038.11 2201.04,1038.98 2192.23,1048.77 2191.45,1049.73 2190.78,1050.77 2184.19,1062.17 2183.63,1063.27 2183.19,1064.43 2179.12,1076.95 2178.8,1078.15 2178.61,1079.37 2177.23,1092.46 2177.16,1093.7" style="stroke:rgb(205,186,171);stroke-width:23.622047;fill:none;stroke-opacity:0.5;stroke-linecap:round;stroke-linejoin:round;;fill:none"/>
<polyline points="2157.49,1093.7 2157.66,1096.99 2159.04,1110.09 2159.55,1113.34 2160.4,1116.53 2164.47,1129.05 2165.65,1132.13 2167.15,1135.06 2173.74,1146.47 2175.53,1149.23 2177.6,1151.79 2186.42,1161.58 2188.75,1163.91 2191.31,1165.99 2201.96,1173.73 2204.73,1175.52 2207.66,1177.02 2219.69,1182.37 2222.77,1183.56 2225.95,1184.41 2238.84,1187.15 2242.09,1187.66 2245.38,1187.83 2258.55,1187.83 2261.84,1187.66 2265.1,1187.15 2277.98,1184.41 2281.16,1183.56 2284.24,1182.37 2296.27,1177.02 2299.21,1175.52 2301.97,1173.73 2312.63,1165.99 2315.19,1163.91 2317.52,1161.58 2326.33,1151.79 2328.4,1149.23 2330.2,1146.47 2336.78,1135.06 2338.28,1132.13 2339.46,1129.05 2343.53,1116.53 2344.38,1113.34 2344.9,1110.09 2346.27,1096.99 2346.45,1093.7 2346.27,1090.41 2344.9,1077.31 2344.38,1074.06 2343.53,1070.87 2339.46,1058.35 2338.28,1055.27 2336.78,1052.33 2330.2,1040.93 2328.4,1038.17 2326.33,1035.6 2317.52,1025.82 2315.19,1023.49 2312.63,1021.41 2301.97,1013.67 2299.21,1011.88 2296.27,1010.38 2284.24,1005.02 2281.16,1003.84 2277.98,1002.99 2265.1,1000.25 2261.84,999.737 2258.55,999.565 2245.38,999.565 2242.09,999.737 2238.84,1000.25 2225.95,1002.99 2222.77,1003.84 2219.69,1005.02 2207.66,1010.38 2204.73,1011.88 2201.96,1013.67 2191.31,1021.41 2188.75,1023.49 2186.42,1025.82 2177.6,1035.6 2175.53,1038.17 2173.74,1040.93 2167.15,1052.33 2165.65,1055.27 2164.47,1058.35 2160.4,1070.87 2159.55,1074.06 2159.04,1077.31 2157.66,1090.41 2157.49,1093.7 2177.16,1093.7 2177.23,1094.93 2178.61,1108.03 2178.8,1109.25 2179.12,1110.45 2183.19,1122.97 2183.63,1124.12 2184.19,1125.23 2190.78,1136.63 2191.45,1137.67 2192.23,1138.63 2201.04,1148.41 2201.91,1149.29 2202.87,1150.07 2213.53,1157.81 2214.57,1158.48 2215.67,1159.04 2227.7,1164.4 2228.85,1164.84 2230.05,1165.16 2242.93,1167.9 2244.15,1168.09 2245.38,1168.16 2258.55,1168.16 2259.79,1168.09 2261.01,1167.9 2273.89,1165.16 2275.08,1164.84 2276.24,1164.4 2288.27,1159.04 2289.37,1158.48 2290.41,1157.81 2301.06,1150.07 2302.02,1149.29 2302.89,1148.41 2311.71,1138.63 2312.48,1137.67 2313.16,1136.63 2319.74,1125.23 2320.3,1124.12 2320.75,1122.97 2324.82,1110.45 2325.14,1109.25 2325.33,1108.03 2326.71,1094.93 2326.77,1093.7 2326.71,1092.46 2325.33,1079.37 2325.14,1078.15 2324.82,1076.95 2320.75,1064.43 2320.3,1063.27 2319.74,1062.17 2313.16,1050.77 2312.48,1049.73 2311.71,1048.77 2302.89,1038.98 2302.02,1038.11 2301.06,1037.33 2290.41,1029.59 2289.37,1028.92 2288.27,1028.36 2276.24,1023 2275.08,1022.56 2273.89,1022.24 2261.01,1019.5 2259.79,1019.31 2258.55,1019.24 2245.38,1019.24 2244.15,1019.31 2242.93,1019.5 2230.05,1022.24 2228.85,1022.56 2227.7,1023 2215.67,1028.36 2214.57,1028.92 2213.53,1029.59 2202.87,1037.33 2201.91,1038.11 2201.04,1038.98 2192.23,1048.77 2191.45,1049.73 2190.78,1050.77 2184.19,1062.17 2183.63,1063.27 2183.19,1064.43 2179.12,1076.95 2178.8,1078.15 2178.61,1079.37 2177.23,1092.46 2177.16,1093.7" style="stroke:rgb(0,0,0);stroke-width:1px;fill:none;stroke-opacity:1;stroke-linecap:round;stroke-linejoin:round;;fill:none"/>
<polyline points="681.109,2038.97 681.715,2045.12 683.507,2051.02 686.417,2056.47 690.333,2061.24 695.103,2065.16 700.547,2068.07 706.455,2069.86 712.597,2070.46 917.323,2070.46 923.465,2069.86 929.373,2068.07 934.817,2065.16 939.587,2061.24 943.503,2056.47 946.413,2051.02 948.205,2045.12 948.811,2038.97 948.811,1994.11 948.557,1992.92 948.463,1992.41 945.073,1971.01 945.005,1970.5 944.985,1970.51 945.005,1970.5 944.189,1962.75 944.149,1962.24 943.027,1940.84 943.013,1940.32 942.987,1940.32 943.013,1940.32 943.013,1932.9 943.027,1932.38 944.149,1910.98 944.189,1910.47 944.161,1910.47 944.189,1910.47 945.005,1902.72 945.073,1902.21 948.463,1880.81 948.557,1880.3 948.811,1879.11 948.811,1834.25 948.205,1828.11 946.413,1822.2 943.503,1816.76 939.587,1811.98 934.817,1808.07 929.373,1805.16 923.465,1803.37 917.323,1802.76 712.597,1802.76 706.455,1803.37 700.547,1805.16 695.103,1808.07 690.333,1811.98 686.417,1816.76 683.507,1822.2 681.715,1828.11 681.109,1834.25 681.109,2038.97 700.787,2038.97 701.013,2041.28 701.685,2043.49 702.777,2045.54 704.247,2047.33 706.035,2048.8 708.077,2049.89 710.293,2050.56 712.597,2050.79 917.323,2050.79 919.627,2050.56 921.843,2049.89 923.885,2048.8 925.673,2047.33 927.143,2045.54 928.235,2043.49 928.907,2041.28 929.133,2038.97 929.133,1834.25 928.907,1831.95 928.235,1829.73 927.143,1827.69 925.673,1825.9 923.885,1824.43 921.843,1823.34 919.627,1822.67 917.323,1822.44 712.597,1822.44 710.293,1822.67 708.077,1823.34 706.035,1824.43 704.247,1825.9 702.777,1827.69 701.685,1829.73 701.013,1831.95 700.787,1834.25 700.787,2038.97" style="stroke:rgb(242,251,227);stroke-width:23.622047;fill:none;stroke-opacity:0.5;stroke-linecap:round;stroke-linejoin:round;;fill:none"/>
<polyline points="681.109,2038.97 681.715,2045.12 683.507,2051.02 686.417,2056.47 690.333,2061.24 695.103,2065.16 700.547,2068.07 706.455,2069.86 712.597,2070.46 917.323,2070.46 923.465,2069.86 929.373,2068.07 934.817,2065.16 939.587,2061.24 943.503,2056.47 946.413,2051.02 948.205,2045.12 948.811,2038.97 948.811,1994.11 948.557,1992.92 948.463,1992.41 945.073,1971.01 945.005,1970.5 944.985,1970.51 945.005,1970.5 944.189,1962.75 944.149,1962.24 943.027,1940.84 943.013,1940.32 942.987,1940.32 943.013,1940.32 943.013,1932.9 943.027,1932.38 944.149,1910.98 944.189,1910.47 944.161,1910.47 944.189,1910.47 945.005,1902.72 945.073,1902.21 948.463,1880.81 948.557,1880.3 948.811,1879.11 948.811,1834.25 948.205,1828.11 946.413,1822.2 943.503,1816.76 939.587,1811.98 934.817,1808.07 929.373,1805.16 923.465,1803.37 917.323,1802.76 712.597,1802.76 706.455,1803.37 700.547,1805.16 695.103,1808.07 690.333,1811.98 686.417,1816.76 683.507,1822.2 681.715,1828.11 681.109,1834.25 681.109,2038.97 700.787,2038.97 701.013,2041.28 701.685,2043.49 702.777,2045.54 704.247,2047.33 706.035,2048.8 708.077,2049.89 710.293,2050.56 712.597,2050.79 917.323,2050.79 919.627,2050.56 921.843,2049.89 923.885,2048.8 925.673,2047.33 927.143,2045.54 928.235,2043.49 928.907,2041.28 929.133,2038.97 929.133,1834.25 928.907,1831.95 928.235,1829.73 927.143,1827.69 925.673,1825.9 923.885,1824.43 921.843,1823.34 919.627,1822.67 917.323,1822.44 712.597,1822.44 710.293,1822.67 708.077,1823.34 706.035,1824.43 704.247,1825.9 702.777,1827.69 701.685,1829.73 701.013,1831.95 700.787,1834.25 700.787,2038.97" style="stroke:rgb(0,0,0);stroke-width:1px;fill:none;stroke-opacity:1;stroke-linecap:round;stroke-linejoin:round;;fill:none"/>
<polyline points="962.691,1940.07 963.785,1960.95 964.547,1968.19 967.859,1989.08 968.283,1991.08 969.769,1993.99 980.469,2012.52 982.263,2015.29 984.337,2017.85 998.657,2033.75 1000.99,2036.08 1003.55,2038.16 1020.86,2050.74 1023.62,2052.53 1026.56,2054.03 1046.11,2062.73 1049.19,2063.91 1052.37,2064.76 1073.3,2069.21 1076.56,2069.73 1079.85,2069.9 1101.25,2069.9 1104.54,2069.73 1107.8,2069.21 1128.73,2064.76 1131.91,2063.91 1134.99,2062.73 1154.54,2054.03 1157.47,2052.53 1160.24,2050.74 1177.55,2038.16 1180.11,2036.08 1182.44,2033.75 1196.76,2017.85 1198.84,2015.29 1200.63,2012.52 1211.33,1993.99 1212.83,1991.05 1214.01,1987.98 1220.62,1967.63 1221.48,1964.44 1221.99,1961.19 1224.23,1939.9 1224.4,1936.61 1224.23,1933.32 1221.99,1912.04 1221.48,1908.78 1220.62,1905.6 1214.01,1885.25 1212.83,1882.17 1211.33,1879.23 1200.63,1860.7 1198.84,1857.94 1196.76,1855.38 1182.44,1839.47 1180.11,1837.14 1177.55,1835.07 1160.24,1822.49 1157.47,1820.69 1154.54,1819.2 1134.99,1810.49 1131.91,1809.31 1128.73,1808.46 1107.8,1804.01 1104.54,1803.5 1101.25,1803.32 1079.85,1803.32 1076.56,1803.5 1073.3,1804.01 1052.37,1808.46 1049.19,1809.31 1046.11,1810.49 1026.56,1819.2 1023.62,1820.69 1020.86,1822.49 1003.55,1835.07 1000.99,1837.14 998.657,1839.47 984.337,1855.38 982.263,1857.94 980.469,1860.7 969.769,1879.23 968.281,1882.15 967.857,1884.14 964.547,1905.03 963.785,1912.27 962.691,1933.16 962.691,1940.07 976.377,1936.61 976.443,1937.85 978.679,1959.13 978.873,1960.35 979.193,1961.54 985.805,1981.9 986.249,1983.05 986.809,1984.15 997.509,2002.69 998.183,2003.72 998.961,2004.68 1013.28,2020.59 1014.15,2021.46 1015.11,2022.24 1032.43,2034.82 1033.46,2035.49 1034.56,2036.05 1054.11,2044.75 1055.27,2045.2 1056.46,2045.52 1077.39,2049.97 1078.62,2050.16 1079.85,2050.23 1101.25,2050.23 1102.48,2050.16 1103.71,2049.97 1124.64,2045.52 1125.83,2045.2 1126.99,2044.75 1146.53,2036.05 1147.64,2035.49 1148.67,2034.82 1165.99,2022.24 1166.95,2021.46 1167.82,2020.59 1182.14,2004.68 1182.92,2003.72 1183.59,2002.69 1194.29,1984.15 1194.85,1983.05 1195.3,1981.9 1201.91,1961.54 1202.23,1960.35 1202.42,1959.13 1204.66,1937.85 1204.72,1936.61 1204.66,1935.38 1202.42,1914.1 1202.23,1912.87 1201.91,1911.68 1195.3,1891.33 1194.85,1890.17 1194.29,1889.07 1183.59,1870.54 1182.92,1869.5 1182.14,1868.54 1167.82,1852.64 1166.95,1851.77 1165.99,1850.99 1148.67,1838.41 1147.64,1837.74 1146.53,1837.17 1126.99,1828.47 1125.83,1828.03 1124.64,1827.71 1103.71,1823.26 1102.48,1823.06 1101.25,1823 1079.85,1823 1078.62,1823.06 1077.39,1823.26 1056.46,1827.71 1055.27,1828.03 1054.11,1828.47 1034.56,1837.17 1033.46,1837.74 1032.43,1838.41 1015.11,1850.99 1014.15,1851.77 1013.28,1852.64 998.961,1868.54 998.183,1869.5 997.509,1870.54 986.809,1889.07 986.249,1890.17 985.805,1891.33 979.193,1911.68 978.873,1912.87 978.679,1914.1 976.443,1935.38 976.377,1936.61" style="stroke:rgb(70,124,194);stroke-width:23.622047;fill:none;stroke-opacity:0.5;stroke-linecap:round;stroke-linejoin:round;;fill:none"/>
<polyline points="962.691,1940.07 963.785,1960.95 964.547,1968.19 967.859,1989.08 968.283,1991.08 969.769,1993.99 980.469,2012.52 982.263,2015.29 984.337,2017.85 998.657,2033.75 1000.99,2036.08 1003.55,2038.16 1020.86,2050.74 1023.62,2052.53 1026.56,2054.03 1046.11,2062.73 1049.19,2063.91 1052.37,2064.76 1073.3,2069.21 1076.56,2069.73 1079.85,2069.9 1101.25,2069.9 1104.54,2069.73 1107.8,2069.21 1128.73,2064.76 1131.91,2063.91 1134.99,2062.73 1154.54,2054.03 1157.47,2052.53 1160.24,2050.74 1177.55,2038.16 1180.11,2036.08 1182.44,2033.75 1196.76,2017.85 1198.84,2015.29 1200.63,2012.52 1211.33,1993.99 1212.83,1991.05 1214.01,1987.98 1220.62,1967.63 1221.48,1964.44 1221.99,1961.19 1224.23,1939.9 1224.4,1936.61 1224.23,1933.32 1221.99,1912.04 1221.48,1908.78 1220.62,1905.6 1214.01,1885.25 1212.83,1882.17 1211.33,1879.23 1200.63,1860.7 1198.84,1857.94 1196.76,1855.38 1182.44,1839.47 1180.11,1837.14 1177.55,1835.07 1160.24,1822.49 1157.47,1820.69 1154.54,1819.2 1134.99,1810.49 1131.91,1809.31 1128.73,1808.46 1107.8,1804.01 1104.54,1803.5 1101.25,1803.32 1079.85,1803.32 1076.56,1803.5 1073.3,1804.01 1052.37,1808.46 1049.19,1809.31 1046.11,1810.49 1026.56,1819.2 1023.62,1820.69 1020.86,1822.49 1003.55,1835.07 1000.99,1837.14 998.657,1839.47 984.337,1855.38 982.263,1857.94 980.469,1860.7 969.769,1879.23 968.281,1882.15 967.857,1884.14 964.547,1905.03 963.785,1912.27 962.691,1933.16 962.691,1940.07 976.377,1936.61 976.443,1937.85 978.679,1959.13 978.873,1960.35 979.193,1961.54 985.805,1981.9 986.249,1983.05 986.809,1984.15 997.509,2002.69 998.183,2003.72 998.961,2004.68 1013.28,2020.59 1014.15,2021.46 1015.11,2022.24 1032.43,2034.82 1033.46,2035.49 1034.56,2036.05 1054.11,2044.75 1055.27,2045.2 1056.46,2045.52 1077.39,2049.97 1078.62,2050.16 1079.85,2050.23 1101.25,2050.23 1102.48,2050.16 1103.71,2049.97 1124.64,2045.52 1125.83,2045.2 1126.99,2044.75 1146.53,2036.05 1147.64,2035.49 1148.67,2034.82 1165.99,2022.24 1166.95,2021.46 1167.82,2020.59 1182.14,2004.68 1182.92,2003.72 1183.59,2002.69 1194.29,1984.15 1194.85,1983.05 1195.3,1981.9 1201.91,1961.54 1202.23,1960.35 1202.42,1959.13 1204.66,1937.85 1204.72,1936.61 1204.66,1935.38 1202.42,1914.1 1202.23,1912.87 1201.91,1911.68 1195.3,1891.33 1194.85,1890.17 1194.29,1889.07 1183.59,1870.54 1182.92,1869.5 1182.14,1868.54 1167.82,1852.64 1166.95,1851.77 1165.99,1850.99 1148.67,1838.41 1147.64,1837.74 1146.53,1837.17 1126.99,1828.47 1125.83,1828.03 1124.64,1827.71 1103.71,1823.26 1102.48,1823.06 1101.25,1823 1079.85,1823 1078.62,1823.06 1077.39,1823.26 1056.46,1827.71 1055.27,1828.03 1054.11,1828.47 1034.56,1837.17 1033.46,1837.74 1032.43,1838.41 1015.11,1850.99 1014.15,1851.77 1013.28,1852.64 998.961,1868.54 998.183,1869.5 997.509,1870.54 986.809,1889.07 986.249,1890.17 985.805,1891.33 979.193,1911.68 978.873,1912.87 978.679,1914.1 976.443,1935.38 976.377,1936.61" style="stroke:rgb(0,0,0);stroke-width:1px;fill:none;stroke-opacity:1;stroke-linecap:round;stroke-linejoin:round;;fill:none"/>
<polyline points="851.975,1263.78 852.149,1267.07 853.525,1280.17 854.041,1283.42 854.893,1286.61 858.963,1299.13 860.145,1302.21 861.641,1305.14 868.225,1316.55 870.019,1319.31 872.095,1321.87 880.905,1331.66 883.237,1333.99 885.797,1336.06 896.451,1343.81 899.215,1345.6 902.153,1347.1 914.183,1352.45 917.261,1353.63 920.443,1354.49 933.325,1357.23 936.581,1357.74 939.871,1357.91 953.041,1357.91 956.331,1357.74 959.587,1357.23 972.469,1354.49 975.653,1353.63 978.729,1352.45 990.759,1347.1 993.697,1345.6 996.461,1343.81 1007.11,1336.06 1009.67,1333.99 1012.01,1331.66 1020.82,1321.87 1022.89,1319.31 1024.69,1316.55 1031.27,1305.14 1032.77,1302.21 1033.95,1299.13 1038.02,1286.61 1038.87,1283.42 1039.39,1280.17 1040.76,1267.07 1040.94,1263.78 1040.76,1260.49 1039.39,1247.39 1038.87,1244.13 1038.02,1240.95 1033.95,1228.43 1032.77,1225.35 1031.27,1222.41 1024.69,1211.01 1022.89,1208.24 1020.82,1205.68 1012.01,1195.9 1009.67,1193.57 1007.11,1191.49 996.461,1183.75 993.697,1181.96 990.759,1180.46 978.729,1175.1 975.653,1173.92 972.469,1173.07 959.587,1170.33 956.331,1169.82 953.041,1169.64 939.871,1169.64 936.581,1169.82 933.325,1170.33 920.443,1173.07 917.261,1173.92 914.183,1175.1 902.153,1180.46 899.215,1181.96 896.451,1183.75 885.797,1191.49 883.237,1193.57 880.905,1195.9 872.095,1205.68 870.019,1208.24 868.225,1211.01 861.641,1222.41 860.145,1225.35 858.963,1228.43 854.893,1240.95 854.041,1244.13 853.525,1247.39 852.149,1260.49 851.975,1263.78 871.653,1263.78 871.717,1265.01 873.095,1278.11 873.287,1279.33 873.607,1280.52 877.677,1293.05 878.121,1294.2 878.681,1295.3 885.265,1306.71 885.939,1307.75 886.717,1308.71 895.529,1318.49 896.403,1319.37 897.363,1320.15 908.017,1327.89 909.055,1328.56 910.157,1329.12 922.187,1334.48 923.341,1334.92 924.535,1335.24 937.415,1337.98 938.637,1338.17 939.871,1338.24 953.041,1338.24 954.275,1338.17 955.497,1337.98 968.377,1335.24 969.571,1334.92 970.725,1334.48 982.757,1329.12 983.857,1328.56 984.895,1327.89 995.549,1320.15 996.509,1319.37 997.383,1318.49 1006.19,1308.71 1006.97,1307.75 1007.65,1306.71 1014.23,1295.3 1014.79,1294.2 1015.23,1293.05 1019.3,1280.52 1019.62,1279.33 1019.82,1278.11 1021.19,1265.01 1021.26,1263.78 1021.19,1262.54 1019.82,1249.45 1019.62,1248.23 1019.3,1247.03 1015.23,1234.51 1014.79,1233.35 1014.23,1232.25 1007.65,1220.85 1006.97,1219.81 1006.19,1218.85 997.383,1209.06 996.509,1208.19 995.549,1207.41 984.895,1199.67 983.857,1199 982.757,1198.44 970.725,1193.08 969.571,1192.64 968.377,1192.32 955.497,1189.58 954.275,1189.38 953.041,1189.32 939.871,1189.32 938.637,1189.38 937.415,1189.58 924.535,1192.32 923.341,1192.64 922.187,1193.08 910.157,1198.44 909.055,1199 908.017,1199.67 897.363,1207.41 896.403,1208.19 895.529,1209.06 886.717,1218.85 885.939,1219.81 885.265,1220.85 878.681,1232.25 878.121,1233.35 877.677,1234.51 873.607,1247.03 873.287,1248.23 873.095,1249.45 871.717,1262.54 871.653,1263.78" style="stroke:rgb(84,248,27);stroke-width:23.622047;fill:none;stroke-opacity:0.5;stroke-linecap:round;stroke-linejoin:round;;fill:none"/>
<polyline points="851.975,1263.78 852.149,1267.07 853.525,1280.17 854.041,1283.42 854.893,1286.61 858.963,1299.13 860.145,1302.21 861.641,1305.14 868.225,1316.55 870.019,1319.31 872.095,1321.87 880.905,1331.66 883.237,1333.99 885.797,1336.06 896.451,1343.81 899.215,1345.6 902.153,1347.1 914.183,1352.45 917.261,1353.63 920.443,1354.49 933.325,1357.23 936.581,1357.74 939.871,1357.91 953.041,1357.91 956.331,1357.74 959.587,1357.23 972.469,1354.49 975.653,1353.63 978.729,1352.45 990.759,1347.1 993.697,1345.6 996.461,1343.81 1007.11,1336.06 1009.67,1333.99 1012.01,1331.66 1020.82,1321.87 1022.89,1319.31 1024.69,1316.55 1031.27,1305.14 1032.77,1302.21 1033.95,1299.13 1038.02,1286.61 1038.87,1283.42 1039.39,1280.17 1040.76,1267.07 1040.94,1263.78 1040.76,1260.49 1039.39,1247.39 1038.87,1244.13 1038.02,1240.95 1033.95,1228.43 1032.77,1225.35 1031.27,1222.41 1024.69,1211.01 1022.89,1208.24 1020.82,1205.68 1012.01,1195.9 1009.67,1193.57 1007.11,1191.49 996.461,1183.75 993.697,1181.96 990.759,1180.46 978.729,1175.1 975.653,1173.92 972.469,1173.07 959.587,1170.33 956.331,1169.82 953.041,1169.64 939.871,1169.64 936.581,1169.82 933.325,1170.33 920.443,1173.07 917.261,1173.92 914.183,1175.1 902.153,1180.46 899.215,1181.96 896.451,1183.75 885.797,1191.49 883.237,1193.57 880.905,1195.9 872.095,1205.68 870.019,1208.24 868.225,1211.01 861.641,1222.41 860.145,1225.35 858.963,1228.43 854.893,1240.95 854.041,1244.13 853.525,1247.39 852.149,1260.49 851.975,1263.78 871.653,1263.78 871.717,1265.01 873.095,1278.11 873.287,1279.33 873.607,1280.52 877.677,1293.05 878.121,1294.2 878.681,1295.3 885.265,1306.71 885.939,1307.75 886.717,1308.71 895.529,1318.49 896.403,1319.37 897.363,1320.15 908.017,1327.89 909.055,1328.56 910.157,1329.12 922.187,1334.48 923.341,1334.92 924.535,1335.24 937.415,1337.98 938.637,1338.17 939.871,1338.24 953.041,1338.24 954.275,1338.17 955.497,1337.98 968.377,1335.24 969.571,1334.92 970.725,1334.48 982.757,1329.12 983.857,1328.56 984.895,1327.89 995.549,1320.15 996.509,1319.37 997.383,1318.49 1006.19,1308.71 1006.97,1307.75 1007.65,1306.71 1014.23,1295.3 1014.79,1294.2 1015.23,1293.05 1019.3,1280.52 1019.62,1279.33 1019.82,1278.11 1021.19,1265.01 1021.26,1263.78 1021.19,1262.54 1019.82,1249.45 1019.62,1248.23 1019.3,1247.03 1015.23,1234.51 1014.79,1233.35 1014.23,1232.25 1007.65,1220.85 1006.97,1219.81 1006.19,1218.85 997.383,1209.06 996.509,1208.19 995.549,1207.41 984.895,1199.67 983.857,1199 982.757,1198.44 970.725,1193.08 969.571,1192.64 968.377,1192.32 955.497,1189.58 954.275,1189.38 953.041,1189.32 939.871,1189.32 938.637,1189.38 937.415,1189.58 924.535,1192.32 923.341,1192.64 922.187,1193.08 910.157,1198.44 909.055,1199 908.017,1199.67 897.363,1207.41 896.403,1208.19 895.529,1209.06 886.717,1218.85 885.939,1219.81 885.265,1220.85 878.681,1232.25 878.121,1233.35 877.677,1234.51 873.607,1247.03 873.287,1248.23 873.095,1249.45 871.717,1262.54 871.653,1263.78" style="stroke:rgb(0,0,0);stroke-width:1px;fill:none;stroke-opacity:1;stroke-linecap:round;stroke-linejoin:round;;fill:none"/>
<polyline points="1651.97,1263.78 1652.15,1267.07 1653.52,1280.17 1654.04,1283.42 1654.89,1286.61 1658.96,1299.13 1660.14,1302.21 1661.64,1305.14 1668.22,1316.55 1670.02,1319.31 1672.09,1321.87 1680.9,1331.66 1683.24,1333.99 1685.8,1336.06 1696.45,1343.81 1699.21,1345.6 1702.15,1347.1 1714.18,1352.45 1717.26,1353.63 1720.44,1354.49 1733.32,1357.23 1736.58,1357.74 1739.87,1357.91 1753.04,1357.91 1756.33,1357.74 1759.59,1357.23 1772.47,1354.49 1775.65,1353.63 1778.73,1352.45 1790.76,1347.1 1793.7,1345.6 1796.46,1343.81 1807.11,1336.06 1809.67,1333.99 1812.01,1331.66 1820.82,1321.87 1822.89,1319.31 1824.69,1316.55 1831.27,1305.14 1832.77,1302.21 1833.95,1299.13 1838.02,1286.61 1838.87,1283.42 1839.39,1280.17 1840.76,1267.07 1840.94,1263.78 1840.76,1260.49 1839.39,1247.39 1838.87,1244.13 1838.02,1240.95 1833.95,1228.43 1832.77,1225.35 1831.27,1222.41 1824.69,1211.01 1822.89,1208.24 1820.82,1205.68 1812.01,1195.9 1809.67,1193.57 1807.11,1191.49 1796.46,1183.75 1793.7,1181.96 1790.76,1180.46 1778.73,1175.1 1775.65,1173.92 1772.47,1173.07 1759.59,1170.33 1756.33,1169.82 1753.04,1169.64 1739.87,1169.64 1736.58,1169.82 1733.32,1170.33 1720.44,1173.07 1717.26,1173.92 1714.18,1175.1 1702.15,1180.46 1699.21,1181.96 1696.45,1183.75 1685.8,1191.49 1683.24,1193.57 1680.9,1195.9 1672.09,1205.68 1670.02,1208.24 1668.22,1211.01 1661.64,1222.41 1660.14,1225.35 1658.96,1228.43 1654.89,1240.95 1654.04,1244.13 1653.52,1247.39 1652.15,1260.49 1651.97,1263.78 1671.65,1263.78 1671.72,1265.01 1673.09,1278.11 1673.29,1279.33 1673.61,1280.52 1677.68,1293.05 1678.12,1294.2 1678.68,1295.3 1685.26,1306.71 1685.94,1307.75 1686.72,1308.71 1695.53,1318.49 1696.4,1319.37 1697.36,1320.15 1708.02,1327.89 1709.05,1328.56 1710.16,1329.12 1722.19,1334.48 1723.34,1334.92 1724.53,1335.24 1737.41,1337.98 1738.64,1338.17 1739.87,1338.24 1753.04,1338.24 1754.27,1338.17 1755.5,1337.98 1768.38,1335.24 1769.57,1334.92 1770.72,1334.48 1782.76,1329.12 1783.86,1328.56 1784.89,1327.89 1795.55,1320.15 1796.51,1319.37 1797.38,1318.49 1806.19,1308.71 1806.97,1307.75 1807.65,1306.71 1814.23,1295.3 1814.79,1294.2 1815.23,1293.05 1819.3,1280.52 1819.62,1279.33 1819.82,1278.11 1821.19,1265.01 1821.26,1263.78 1821.19,1262.54 1819.82,1249.45 1819.62,1248.23 1819.3,1247.03 1815.23,1234.51 1814.79,1233.35 1814.23,1232.25 1807.65,1220.85 1806.97,1219.81 1806.19,1218.85 1797.38,1209.06 1796.51,1208.19 1795.55,1207.41 1784.89,1199.67 1783.86,1199 1782.76,1198.44 1770.72,1193.08 1769.57,1192.64 1768.38,1192.32 1755.5,1189.58 1754.27,1189.38 1753.04,1189.32 1739.87,1189.32 1738.64,1189.38 1737.41,1189.58 1724.53,1192.32 1723.34,1192.64 1722.19,1193.08 1710.16,1198.44 1709.05,1199 1708.02,1199.67 1697.36,1207.41 1696.4,1208.19 1695.53,1209.06 1686.72,1218.85 1685.94,1219.81 1685.26,1220.85 1678.68,1232.25 1678.12,1233.35 1677.68,1234.51 1673.61,1247.03 1673.29,1248.23 1673.09,1249.45 1671.72,1262.54 1671.65,1263.78" style="stroke:rgb(232,231,141);stroke-width:23.622047;fill:none;stroke-opacity:0.5;stroke-linecap:round;stroke-linejoin:round;;fill:none"/>
<polyline points="1651.97,1263.78 1652.15,1267.07 1653.52,1280.17 1654.04,1283.42 1654.89,1286.61 1658.96,1299.13 1660.14,1302.21 1661.64,1305.14 1668.22,1316.55 1670.02,1319.31 1672.09,1321.87 1680.9,1331.66 1683.24,1333.99 1685.8,1336.06 1696.45,1343.81 1699.21,1345.6 1702.15,1347.1 1714.18,1352.45 1717.26,1353.63 1720.44,1354.49 1733.32,1357.23 1736.58,1357.74 1739.87,1357.91 1753.04,1357.91 1756.33,1357.74 1759.59,1357.23 1772.47,1354.49 1775.65,1353.63 1778.73,1352.45 1790.76,1347.1 1793.7,1345.6 1796.46,1343.81 1807.11,1336.06 1809.67,1333.99 1812.01,1331.66 1820.82,1321.87 1822.89,1319.31 1824.69,1316.55 1831.27,1305.14 1832.77,1302.21 1833.95,1299.13 1838.02,1286.61 1838.87,1283.42 1839.39,1280.17 1840.76,1267.07 1840.94,1263.78 1840.76,1260.49 1839.39,1247.39 1838.87,1244.13 1838.02,1240.95 1833.95,1228.43 1832.77,1225.35 1831.27,1222.41 1824.69,1211.01 1822.89,1208.24 1820.82,1205.68 1812.01,1195.9 1809.67,1193.57 1807.11,1191.49 1796.46,1183.75 1793.7,1181.96 1790.76,1180.46 1778.73,1175.1 1775.65,1173.92 1772.47,1173.07 1759.59,1170.33 1756.33,1169.82 1753.04,1169.64 1739.87,1169.64 1736.58,1169.82 1733.32,1170.33 1720.44,1173.07 1717.26,1173.92 1714.18,1175.1 1702.15,1180.46 1699.21,1181.96 1696.45,1183.75 1685.8,1191.49 1683.24,1193.57 1680.9,1195.9 1672.09,1205.68 1670.02,1208.24 1668.22,1211.01 1661.64,1222.41 1660.14,1225.35 1658.96,1228.43 1654.89,1240.95 1654.04,1244.13 1653.52,1247.39 1652.15,1260.49 1651.97,1263.78 1671.65,1263.78 1671.72,1265.01 1673.09,1278.11 1673.29,1279.33 1673.61,1280.52 1677.68,1293.05 1678.12,1294.2 1678.68,1295.3 1685.26,1306.71 1685.94,1307.75 1686.72,1308.71 1695.53,1318.49 1696.4,1319.37 1697.36,1320.15 1708.02,1327.89 1709.05,1328.56 1710.16,1329.12 1722.19,1334.48 1723.34,1334.92 1724.53,1335.24 1737.41,1337.98 1738.64,1338.17 1739.87,1338.24 1753.04,1338.24 1754.27,1338.17 1755.5,1337.98 1768.38,1335.24 1769.57,1334.92 1770.72,1334.48 1782.76,1329.12 1783.86,1328.56 1784.89,1327.89 1795.55,1320.15 1796.51,1319.37 1797.38,1318.49 1806.19,1308.71 1806.97,1307.75 1807.65,1306.71 1814.23,1295.3 1814.79,1294.2 1815.23,1293.05 1819.3,1280.52 1819.62,1279.33 1819.82,1278.11 1821.19,1265.01 1821.26,1263.78 1821.19,1262.54 1819.82,1249.45 1819.62,1248.23 1819.3,1247.03 1815.23,1234.51 1814.79,1233.35 1814.23,1232.25 1807.65,1220.85 1806.97,1219.81 1806.19,1218.85 1797.38,1209.06 1796.51,1208.19 1795.55,1207.41 1784.89,1199.67 1783.86,1199 1782.76,1198.44 1770.72,1193.08 1769.57,1192.64 1768.38,1192.32 1755.5,1189.58 1754.27,1189.38 1753.04,1189.32 1739.87,1189.32 1738.64,1189.38 1737.41,1189.58 1724.53,1192.32 1723.34,1192.64 1722.19,1193.08 1710.16,1198.44 1709.05,1199 1708.02,1199.67 1697.36,1207.41 1696.4,1208.19 1695.53,1209.06 1686.72,1218.85 1685.94,1219.81 1685.26,1220.85 1678.68,1232.25 1678.12,1233.35 1677.68,1234.51 1673.61,1247.03 1673.29,1248.23 1673.09,1249.45 1671.72,1262.54 1671.65,1263.78" style="stroke:rgb(0,0,0);stroke-width:1px;fill:none;stroke-opacity:1;stroke-linecap:round;stroke-linejoin:round;;fill:none"/>
<polyline points="1846.46,911.417 1847.07,917.559 1848.86,923.467 1851.77,928.911 1855.69,933.683 1860.46,937.599 1865.9,940.507 1871.81,942.299 1877.95,942.905 1996.06,942.905 2002.2,942.299 2008.11,940.507 2013.56,937.599 2018.33,933.683 2022.24,928.911 2025.15,923.467 2026.94,917.559 2027.55,911.417 2027.55,828.739 2026.94,822.597 2025.15,816.689 2024.33,815.159 2014.6,816.579 2004.37,818.975 2003.18,819.379 2002.62,818.919 2000.58,817.827 1998.37,817.155 1996.06,816.929 1979.42,816.929 1977.13,817.539 1974.84,818.027 1966.2,819.397 1964.27,819.599 1955.63,820.053 1954.72,820.077 1919.29,820.077 1918.38,820.053 1909.74,819.599 1907.81,819.397 1899.17,818.027 1896.87,817.539 1894.59,816.929 1877.95,816.929 1875.65,817.155 1873.43,817.827 1871.39,818.919 1870.83,819.379 1869.65,818.975 1859.42,816.579 1849.68,815.159 1848.86,816.689 1847.07,822.597 1846.46,828.739 1846.46,911.417 1866.14,911.417 1866.37,913.721 1867.04,915.937 1868.13,917.979 1869.6,919.769 1871.39,921.237 1873.43,922.329 1875.65,923.001 1877.95,923.227 1996.06,923.227 1998.37,923.001 2000.58,922.329 2002.62,921.237 2004.41,919.769 2005.88,917.979 2006.97,915.937 2007.65,913.721 2007.87,911.417 2007.87,828.739 2007.65,826.435 2006.97,824.219 2005.88,822.177 2004.41,820.387 2002.62,818.919 2000.58,817.827 1998.37,817.155 1996.06,816.929 1979.42,816.929 1977.13,817.539 1974.84,818.027 1966.2,819.397 1964.27,819.599 1955.63,820.053 1954.72,820.077 1919.29,820.077 1918.38,820.053 1909.74,819.599 1907.81,819.397 1899.17,818.027 1896.87,817.539 1894.59,816.929 1877.95,816.929 1875.65,817.155 1873.43,817.827 1871.39,818.919 1870.83,819.379 1869.6,820.387 1868.13,822.177 1867.04,824.219 1866.37,826.435 1866.14,828.739 1866.14,911.417" style="stroke:rgb(118,90,46);stroke-width:23.622047;fill:none;stroke-opacity:0.5;stroke-linecap:round;stroke-linejoin:round;;fill:none"/>
<polyline points="1846.46,911.417 1847.07,917.559 1848.86,923.467 1851.77,928.911 1855.69,933.683 1860.46,937.599 1865.9,940.507 1871.81,942.299 1877.95,942.905 1996.06,942.905 2002.2,942.299 2008.11,940.507 2013.56,937.599 2018.33,933.683 2022.24,928.911 2025.15,923.467 2026.94,917.559 2027.55,911.417 2027.55,828.739 2026.94,822.597 2025.15,816.689 2024.33,815.159 2014.6,816.579 2004.37,818.975 2003.18,819.379 2002.62,818.919 2000.58,817.827 1998.37,817.155 1996.06,816.929 1979.42,816.929 1977.13,817.539 1974.84,818.027 1966.2,819.397 1964.27,819.599 1955.63,820.053 1954.72,820.077 1919.29,820.077 1918.38,820.053 1909.74,819.599 1907.81,819.397 1899.17,818.027 1896.87,817.539 1894.59,816.929 1877.95,816.929 1875.65,817.155 1873.43,817.827 1871.39,818.919 1870.83,819.379 1869.65,818.975 1859.42,816.579 1849.68,815.159 1848.86,816.689 1847.07,822.597 1846.46,828.739 1846.46,911.417 1866.14,911.417 1866.37,913.721 1867.04,915.937 1868.13,917.979 1869.6,919.769 1871.39,921.237 1873.43,922.329 1875.65,923.001 1877.95,923.227 1996.06,923.227 1998.37,923.001 2000.58,922.329 2002.62,921.237 2004.41,919.769 2005.88,917.979 2006.97,915.937 2007.65,913.721 2007.87,911.417 2007.87,828.739 2007.65,826.435 2006.97,824.219 2005.88,822.177 2004.41,820.387 2002.62,818.919 2000.58,817.827 1998.37,817.155 1996.06,816.929 1979.42,816.929 1977.13,817.539 1974.84,818.027 1966.2,819.397 1964.27,819.599 1955.63,820.053 1954.72,820.077 1919.29,820.077 1918.38,820.053 1909.74,819.599 1907.81,819.397 1899.17,818.027 1896.87,817.539 1894.59,816.929 1877.95,816.929 1875.65,817.155 1873.43,817.827 1871.39,818.919 1870.83,819.379 1869.6,820.387 1868.13,822.177 1867.04,824.219 1866.37,826.435 1866.14,828.739 1866.14,911.417" style="stroke:rgb(0,0,0);stroke-width:1px;fill:none;stroke-opacity:1;stroke-linecap:round;stroke-linejoin:round;;fill:none"/>
<polyline points="1846.69,774.399 1846.86,777.691 1847.38,780.945 1849.17,789.399 1850.03,792.583 1851.16,795.527 1851.56,795.563 1852.09,795.627 1862.67,797.169 1863.49,797.325 1874.61,799.929 1875.56,800.201 1875.82,800.291 1879.01,804.681 1879.79,805.643 1880.67,806.517 1887.09,812.299 1888.05,813.077 1889.09,813.751 1894.59,816.927 1896.87,817.539 1899.17,818.027 1907.81,819.397 1909.74,819.599 1918.38,820.053 1919.29,820.077 1954.72,820.077 1955.63,820.053 1964.27,819.599 1966.2,819.397 1974.84,818.027 1977.13,817.539 1979.43,816.925 1984.93,813.751 1985.96,813.077 1986.92,812.299 1993.35,806.517 1994.22,805.643 1995,804.681 1998.19,800.291 1998.45,800.201 1999.4,799.929 2010.52,797.325 2011.34,797.169 2021.93,795.625 2022.47,795.561 2022.86,795.527 2023.99,792.583 2024.84,789.399 2026.64,780.945 2027.15,777.691 2027.32,774.399 2027.32,765.757 2027.15,762.465 2026.64,759.211 2024.84,750.757 2023.99,747.573 2022.8,744.497 2019.29,736.601 2017.79,733.665 2016,730.901 2015.28,729.915 1989.21,729.915 1986.92,727.857 1985.96,727.079 1984.93,726.405 1977.44,722.085 1976.34,721.523 1975.19,721.081 1972.1,720.077 1901.91,720.077 1898.83,721.081 1897.67,721.523 1896.57,722.085 1889.09,726.405 1888.05,727.079 1887.09,727.857 1884.8,729.915 1858.73,729.915 1858.02,730.901 1856.22,733.665 1854.72,736.601 1851.21,744.497 1850.03,747.573 1849.17,750.757 1847.38,759.211 1846.86,762.465 1846.69,765.757 1846.69,774.399 1866.37,774.399 1866.43,775.633 1866.62,776.855 1868.42,785.309 1868.74,786.503 1869.18,787.657 1872.7,795.551 1873.26,796.653 1873.93,797.689 1879.01,804.681 1879.79,805.643 1880.67,806.517 1887.09,812.299 1888.05,813.077 1889.09,813.751 1894.59,816.927 1896.87,817.539 1899.17,818.027 1907.81,819.397 1909.74,819.599 1918.38,820.053 1919.29,820.077 1954.72,820.077 1955.63,820.053 1964.27,819.599 1966.2,819.397 1974.84,818.027 1977.13,817.539 1979.43,816.925 1984.93,813.751 1985.96,813.077 1986.92,812.299 1993.35,806.517 1994.22,805.643 1995,804.681 2000.08,797.689 2000.75,796.653 2001.31,795.551 2004.83,787.657 2005.27,786.503 2005.59,785.309 2007.39,776.855 2007.58,775.633 2007.65,774.399 2007.65,765.757 2007.58,764.523 2007.39,763.301 2005.59,754.849 2005.27,753.653 2004.83,752.499 2001.31,744.605 2000.75,743.503 2000.08,742.467 1995,735.475 1994.22,734.515 1993.35,733.639 1986.92,727.857 1985.96,727.079 1984.93,726.405 1977.44,722.085 1976.34,721.523 1975.19,721.081 1972.1,720.077 1901.91,720.077 1898.83,721.081 1897.67,721.523 1896.57,722.085 1889.09,726.405 1888.05,727.079 1887.09,727.857 1880.67,733.639 1879.79,734.515 1879.01,735.475 1873.93,742.467 1873.26,743.503 1872.7,744.605 1869.18,752.499 1868.74,753.653 1868.42,754.849 1866.62,763.301 1866.43,764.523 1866.37,765.757 1866.37,774.399" style="stroke:rgb(99,51,159);stroke-width:23.622047;fill:none;stroke-opacity:0.5;stroke-linecap:round;stroke-linejoin:round;;fill:none"/>
<polyline points="1846.69,774.399 1846.86,777.691 1847.38,780.945 1849.17,789.399 1850.03,792.583 1851.16,795.527 1851.56,795.563 1852.09,795.627 1862.67,797.169 1863.49,797.325 1874.61,799.929 1875.56,800.201 1875.82,800.291 1879.01,804.681 1879.79,805.643 1880.67,806.517 1887.09,812.299 1888.05,813.077 1889.09,813.751 1894.59,816.927 1896.87,817.539 1899.17,818.027 1907.81,819.397 1909.74,819.599 1918.38,820.053 1919.29,820.077 1954.72,820.077 1955.63,820.053 1964.27,819.599 1966.2,819.397 1974.84,818.027 1977.13,817.539 1979.43,816.925 1984.93,813.751 1985.96,813.077 1986.92,812.299 1993.35,806.517 1994.22,805.643 1995,804.681 1998.19,800.291 1998.45,800.201 1999.4,799.929 2010.52,797.325 2011.34,797.169 2021.93,795.625 2022.47,795.561 2022.86,795.527 2023.99,792.583 2024.84,789.399 2026.64,780.945 2027.15,777.691 2027.32,774.399 2027.32,765.757 2027.15,762.465 2026.64,759.211 2024.84,750.757 2023.99,747.573 2022.8,744.497 2019.29,736.601 2017.79,733.665 2016,730.901 2015.28,729.915 1989.21,729.915 1986.92,727.857 1985.96,727.079 1984.93,726.405 1977.44,722.085 1976.34,721.523 1975.19,721.081 1972.1,720.077 1901.91,720.077 1898.83,721.081 1897.67,721.523 1896.57,722.085 1889.09,726.405 1888.05,727.079 1887.09,727.857 1884.8,729.915 1858.73,729.915 1858.02,730.901 1856.22,733.665 1854.72,736.601 1851.21,744.497 1850.03,747.573 1849.17,750.757 1847.38,759.211 1846.86,762.465 1846.69,765.757 1846.69,774.399 1866.37,774.399 1866.43,775.633 1866.62,776.855 1868.42,785.309 1868.74,786.503 1869.18,787.657 1872.7,795.551 1873.26,796.653 1873.93,797.689 1879.01,804.681 1879.79,805.643 1880.67,806.517 1887.09,812.299 1888.05,813.077 1889.09,813.751 1894.59,816.927 1896.87,817.539 1899.17,818.027 1907.81,819.397 1909.74,819.599 1918.38,820.053 1919.29,820.077 1954.72,820.077 1955.63,820.053 1964.27,819.599 1966.2,819.397 1974.84,818.027 1977.13,817.539 1979.43,816.925 1984.93,813.751 1985.96,813.077 1986.92,812.299 1993.35,806.517 1994.22,805.643 1995,804.681 2000.08,797.689 2000.75,796.653 2001.31,795.551 2004.83,787.657 2005.27,786.503 2005.59,785.309 2007.39,776.855 2007.58,775.633 2007.65,774.399 2007.65,765.757 2007.58,764.523 2007.39,763.301 2005.59,754.849 2005.27,753.653 2004.83,752.499 2001.31,744.605 2000.75,743.503 2000.08,742.467 1995,735.475 1994.22,734.515 1993.35,733.639 1986.92,727.857 1985.96,727.079 1984.93,726.405 1977.44,722.085 1976.34,721.523 1975.19,721.081 1972.1,720.077 1901.91,720.077 1898.83,721.081 1897.67,721.523 1896.57,722.085 1889.09,726.405 1888.05,727.079 1887.09,727.857 1880.67,733.639 1879.79,734.515 1879.01,735.475 1873.93,742.467 1873.26,743.503 1872.7,744.605 1869.18,752.499 1868.74,753.653 1868.42,754.849 1866.62,763.301 1866.43,764.523 1866.37,765.757 1866.37,774.399" style="stroke:rgb(0,0,0);stroke-width:1px;fill:none;stroke-opacity:1;stroke-linecap:round;stroke-linejoin:round;;fill:none"/>
<polyline points="1846.69,674.399 1846.86,677.691 1847.38,680.945 1849.17,689.399 1850.03,692.583 1851.21,695.659 1854.72,703.555 1856.22,706.491 1858.02,709.255 1858.73,710.239 1884.8,710.239 1887.09,712.299 1888.05,713.077 1889.09,713.751 1896.57,718.071 1897.67,718.633 1898.83,719.075 1901.91,720.077 1972.11,720.077 1975.19,719.075 1976.34,718.633 1977.44,718.071 1984.93,713.751 1985.96,713.077 1986.92,712.299 1989.21,710.239 2015.28,710.239 2016,709.255 2017.79,706.491 2019.29,703.555 2022.8,695.659 2023.99,692.583 2024.84,689.399 2026.64,680.945 2027.15,677.691 2027.32,674.399 2027.32,665.757 2027.15,662.465 2026.64,659.211 2024.84,650.757 2023.99,647.573 2022.8,644.497 2019.29,636.601 2017.79,633.665 2016,630.901 2010.92,623.909 2008.84,621.347 2006.51,619.017 2000.09,613.235 1997.53,611.159 1994.77,609.365 1987.28,605.043 1984.34,603.547 1981.27,602.367 1973.05,599.695 1969.86,598.843 1966.61,598.327 1958.01,597.423 1954.72,597.251 1919.29,597.251 1916,597.423 1907.4,598.327 1904.15,598.843 1900.96,599.695 1892.75,602.367 1889.67,603.547 1886.73,605.043 1879.25,609.365 1876.48,611.159 1873.92,613.235 1867.5,619.017 1865.17,621.347 1863.09,623.909 1858.02,630.901 1856.22,633.665 1854.72,636.601 1851.21,644.497 1850.03,647.573 1849.17,650.757 1847.38,659.211 1846.86,662.465 1846.69,665.757 1846.69,674.399 1866.37,674.399 1866.43,675.633 1866.62,676.855 1868.42,685.309 1868.74,686.503 1869.18,687.657 1872.7,695.551 1873.26,696.653 1873.93,697.689 1879.01,704.681 1879.79,705.643 1880.67,706.517 1887.09,712.299 1888.05,713.077 1889.09,713.751 1896.57,718.071 1897.67,718.633 1898.83,719.075 1901.91,720.077 1972.1,720.077 1975.19,719.075 1976.34,718.633 1977.44,718.071 1984.93,713.751 1985.96,713.077 1986.92,712.299 1989.21,710.239 1993.35,706.517 1994.22,705.643 1995,704.681 2000.08,697.689 2000.75,696.653 2001.31,695.551 2004.83,687.657 2005.27,686.503 2005.59,685.309 2007.39,676.855 2007.58,675.633 2007.65,674.399 2007.65,665.757 2007.58,664.523 2007.39,663.301 2005.59,654.849 2005.27,653.653 2004.83,652.499 2001.31,644.605 2000.75,643.503 2000.08,642.467 1995,635.475 1994.22,634.515 1993.35,633.639 1986.92,627.857 1985.96,627.079 1984.93,626.405 1977.44,622.085 1976.34,621.523 1975.19,621.081 1966.97,618.409 1965.77,618.089 1964.55,617.897 1955.96,616.993 1954.72,616.929 1919.29,616.929 1918.06,616.993 1909.46,617.897 1908.24,618.089 1907.05,618.409 1898.83,621.081 1897.67,621.523 1896.57,622.085 1889.09,626.405 1888.05,627.079 1887.09,627.857 1880.67,633.639 1879.79,634.515 1879.01,635.475 1873.93,642.467 1873.26,643.503 1872.7,644.605 1869.18,652.499 1868.74,653.653 1868.42,654.849 1866.62,663.301 1866.43,664.523 1866.37,665.757 1866.37,674.399" style="stroke:rgb(201,154,102);stroke-width:23.622047;fill:none;stroke-opacity:0.5;stroke-linecap:round;stroke-linejoin:round;;fill:none"/>
<polyline points="1846.69,674.399 1846.86,677.691 1847.38,680.945 1849.17,689.399 1850.03,692.583 1851.21,695.659 1854.72,703.555 1856.22,706.491 1858.02,709.255 1858.73,710.239 1884.8,710.239 1887.09,712.299 1888.05,713.077 1889.09,713.751 1896.57,718.071 1897.67,718.633 1898.83,719.075 1901.91,720.077 1972.11,720.077 1975.19,719.075 1976.34,718.633 1977.44,718.071 1984.93,713.751 1985.96,713.077 1986.92,712.299 1989.21,710.239 2015.28,710.239 2016,709.255 2017.79,706.491 2019.29,703.555 2022.8,695.659 2023.99,692.583 2024.84,689.399 2026.64,680.945 2027.15,677.691 2027.32,674.399 2027.32,665.757 2027.15,662.465 2026.64,659.211 2024.84,650.757 2023.99,647.573 2022.8,644.497 2019.29,636.601 2017.79,633.665 2016,630.901 2010.92,623.909 2008.84,621.347 2006.51,619.017 2000.09,613.235 1997.53,611.159 1994.77,609.365 1987.28,605.043 1984.34,603.547 1981.27,602.367 1973.05,599.695 1969.86,598.843 1966.61,598.327 1958.01,597.423 1954.72,597.251 1919.29,597.251 1916,597.423 1907.4,598.327 1904.15,598.843 1900.96,599.695 1892.75,602.367 1889.67,603.547 1886.73,605.043 1879.25,609.365 1876.48,611.159 1873.92,613.235 1867.5,619.017 1865.17,621.347 1863.09,623.909 1858.02,630.901 1856.22,633.665 1854.72,636.601 1851.21,644.497 1850.03,647.573 1849.17,650.757 1847.38,659.211 1846.86,662.465 1846.69,665.757 1846.69,674.399 1866.37,674.399 1866.43,675.633 1866.62,676.855 1868.42,685.309 1868.74,686.503 1869.18,687.657 1872.7,695.551 1873.26,696.653 1873.93,697.689 1879.01,704.681 1879.79,705.643 1880.67,706.517 1887.09,712.299 1888.05,713.077 1889.09,713.751 1896.57,718.071 1897.67,718.633 1898.83,719.075 1901.91,720.077 1972.1,720.077 1975.19,719.075 1976.34,718.633 1977.44,718.071 1984.93,713.751 1985.96,713.077 1986.92,712.299 1989.21,710.239 1993.35,706.517 1994.22,705.643 1995,704.681 2000.08,697.689 2000.75,696.653 2001.31,695.551 2004.83,687.657 2005.27,686.503 2005.59,685.309 2007.39,676.855 2007.58,675.633 2007.65,674.399 2007.65,665.757 2007.58,664.523 2007.39,663.301 2005.59,654.849 2005.27,653.653 2004.83,652.499 2001.31,644.605 2000.75,643.503 2000.08,642.467 1995,635.475 1994.22,634.515 1993.35,633.639 1986.92,627.857 1985.96,627.079 1984.93,626.405 1977.44,622.085 1976.34,621.523 1975.19,621.081 1966.97,618.409 1965.77,618.089 1964.55,617.897 1955.96,616.993 1954.72,616.929 1919.29,616.929 1918.06,616.993 1909.46,617.897 1908.24,618.089 1907.05,618.409 1898.83,621.081 1897.67,621.523 1896.57,622.085 1889.09,626.405 1888.05,627.079 1887.09,627.857 1880.67,633.639 1879.79,634.515 1879.01,635.475 1873.93,642.467 1873.26,643.503 1872.7,644.605 1869.18,652.499 1868.74,653.653 1868.42,654.849 1866.62,663.301 1866.43,664.523 1866.37,665.757 1866.37,674.399" style="stroke:rgb(0,0,0);stroke-width:1px;fill:none;stroke-opacity:1;stroke-linecap:round;stroke-linejoin:round;;fill:none"/>
<polyline points="704.731,911.417 705.337,917.559 707.129,923.467 710.039,928.911 713.955,933.683 718.725,937.599 724.169,940.507 730.077,942.299 736.219,942.905 854.331,942.905 860.473,942.299 866.381,940.507 871.825,937.599 876.595,933.683 880.511,928.911 883.421,923.467 885.213,917.559 885.819,911.417 885.819,828.739 885.213,822.597 883.421,816.689 882.603,815.157 872.871,816.577 862.639,818.973 861.453,819.379 860.891,818.919 858.851,817.827 856.635,817.155 854.331,816.929 837.685,816.929 835.405,817.539 833.113,818.027 824.473,819.397 822.541,819.599 813.899,820.053 812.991,820.077 777.559,820.077 776.649,820.053 768.007,819.599 766.075,819.397 757.435,818.027 755.143,817.539 752.863,816.929 736.219,816.929 733.915,817.155 731.701,817.827 729.659,818.919 729.097,819.381 727.909,818.973 717.677,816.577 707.947,815.159 707.129,816.689 705.337,822.597 704.731,828.739 704.731,911.417 724.409,911.417 724.635,913.721 725.307,915.937 726.399,917.979 727.869,919.769 729.659,921.237 731.701,922.329 733.915,923.001 736.219,923.227 854.331,923.227 856.635,923.001 858.851,922.329 860.891,921.237 862.681,919.769 864.151,917.979 865.243,915.937 865.915,913.721 866.141,911.417 866.141,828.739 865.915,826.435 865.243,824.219 864.151,822.177 862.681,820.387 861.453,819.379 860.891,818.919 858.851,817.827 856.635,817.155 854.331,816.929 837.685,816.929 835.405,817.539 833.113,818.027 824.473,819.397 822.541,819.599 813.899,820.053 812.991,820.077 777.559,820.077 776.649,820.053 768.007,819.599 766.075,819.397 757.435,818.027 755.143,817.539 752.863,816.929 736.219,816.929 733.915,817.155 731.701,817.827 729.659,818.919 727.869,820.387 726.399,822.177 725.307,824.219 724.635,826.435 724.409,828.739 724.409,911.417" style="stroke:rgb(50,13,183);stroke-width:23.622047;fill:none;stroke-opacity:0.5;stroke-linecap:round;stroke-linejoin:round;;fill:none"/>
<polyline points="704.731,911.417 705.337,917.559 707.129,923.467 710.039,928.911 713.955,933.683 718.725,937.599 724.169,940.507 730.077,942.299 736.219,942.905 854.331,942.905 860.473,942.299 866.381,940.507 871.825,937.599 876.595,933.683 880.511,928.911 883.421,923.467 885.213,917.559 885.819,911.417 885.819,828.739 885.213,822.597 883.421,816.689 882.603,815.157 872.871,816.577 862.639,818.973 861.453,819.379 860.891,818.919 858.851,817.827 856.635,817.155 854.331,816.929 837.685,816.929 835.405,817.539 833.113,818.027 824.473,819.397 822.541,819.599 813.899,820.053 812.991,820.077 777.559,820.077 776.649,820.053 768.007,819.599 766.075,819.397 757.435,818.027 755.143,817.539 752.863,816.929 736.219,816.929 733.915,817.155 731.701,817.827 729.659,818.919 729.097,819.381 727.909,818.973 717.677,816.577 707.947,815.159 707.129,816.689 705.337,822.597 704.731,828.739 704.731,911.417 724.409,911.417 724.635,913.721 725.307,915.937 726.399,917.979 727.869,919.769 729.659,921.237 731.701,922.329 733.915,923.001 736.219,923.227 854.331,923.227 856.635,923.001 858.851,922.329 860.891,921.237 862.681,919.769 864.151,917.979 865.243,915.937 865.915,913.721 866.141,911.417 866.141,828.739 865.915,826.435 865.243,824.219 864.151,822.177 862.681,820.387 861.453,819.379 860.891,818.919 858.851,817.827 856.635,817.155 854.331,816.929 837.685,816.929 835.405,817.539 833.113,818.027 824.473,819.397 822.541,819.599 813.899,820.053 812.991,820.077 777.559,820.077 776.649,820.053 768.007,819.599 766.075,819.397 757.435,818.027 755.143,817.539 752.863,816.929 736.219,816.929 733.915,817.155 731.701,817.827 729.659,818.919 727.869,820.387 726.399,822.177 725.307,824.219 724.635,826.435 724.409,828.739 724.409,911.417" style="stroke:rgb(0,0,0);stroke-width:1px;fill:none;stroke-opacity:1;stroke-linecap:round;stroke-linejoin:round;;fill:none"/>
<polyline points="704.959,774.399 705.131,777.691 705.647,780.945 707.443,789.399 708.297,792.583 709.425,795.527 709.829,795.563 710.365,795.625 720.933,797.167 721.755,797.323 732.875,799.927 733.821,800.199 734.093,800.293 737.283,804.681 738.061,805.643 738.935,806.517 745.357,812.299 746.317,813.077 747.355,813.751 752.855,816.927 755.143,817.539 757.435,818.027 766.075,819.397 768.007,819.599 776.649,820.053 777.559,820.077 812.991,820.077 813.899,820.053 822.541,819.599 824.473,819.397 833.113,818.027 835.405,817.539 837.697,816.925 843.195,813.751 844.233,813.077 845.193,812.299 851.615,806.517 852.489,805.643 853.267,804.681 856.457,800.291 856.727,800.199 857.673,799.927 868.793,797.323 869.615,797.167 880.183,795.625 880.719,795.563 881.125,795.525 882.253,792.583 883.107,789.399 884.903,780.945 885.419,777.691 885.591,774.399 885.591,765.757 885.419,762.465 884.903,759.211 883.107,750.757 882.253,747.573 881.073,744.497 877.557,736.601 876.061,733.665 874.267,730.901 873.551,729.915 847.479,729.915 845.193,727.857 844.233,727.079 843.195,726.405 835.711,722.085 834.609,721.523 833.455,721.081 830.367,720.077 760.183,720.077 757.095,721.081 755.941,721.523 754.839,722.085 747.355,726.405 746.317,727.079 745.357,727.857 743.071,729.915 716.999,729.915 716.283,730.901 714.489,733.665 712.993,736.601 709.477,744.497 708.297,747.573 707.443,750.757 705.647,759.211 705.131,762.465 704.959,765.757 704.959,774.399 724.635,774.399 724.701,775.633 724.893,776.855 726.691,785.309 727.011,786.503 727.453,787.657 730.969,795.551 731.529,796.653 732.203,797.689 734.093,800.293 737.283,804.681 738.061,805.643 738.935,806.517 745.357,812.299 746.317,813.077 747.355,813.751 752.855,816.927 755.143,817.539 757.435,818.027 766.075,819.397 768.007,819.599 776.649,820.053 777.559,820.077 812.991,820.077 813.899,820.053 822.541,819.599 824.473,819.397 833.113,818.027 835.405,817.539 837.697,816.925 843.195,813.751 844.233,813.077 845.193,812.299 851.615,806.517 852.489,805.643 853.267,804.681 858.347,797.689 859.021,796.653 859.581,795.551 863.097,787.657 863.539,786.503 863.859,785.309 865.657,776.855 865.849,775.633 865.915,774.399 865.915,765.757 865.849,764.523 865.657,763.301 863.859,754.849 863.539,753.653 863.097,752.499 859.581,744.605 859.021,743.503 858.347,742.467 853.267,735.475 852.489,734.515 851.615,733.639 847.479,729.915 845.193,727.857 844.233,727.079 843.195,726.405 835.711,722.085 834.609,721.523 833.455,721.081 830.367,720.077 760.183,720.077 757.095,721.081 755.941,721.523 754.839,722.085 747.355,726.405 746.317,727.079 745.357,727.857 738.935,733.639 738.061,734.515 737.283,735.475 732.203,742.467 731.529,743.503 730.969,744.605 727.453,752.499 727.011,753.653 726.691,754.849 724.893,763.301 724.701,764.523 724.635,765.757 724.635,774.399" style="stroke:rgb(49,88,163);stroke-width:23.622047;fill:none;stroke-opacity:0.5;stroke-linecap:round;stroke-linejoin:round;;fill:none"/>
<polyline points="704.959,774.399 705.131,777.691 705.647,780.945 707.443,789.399 708.297,792.583 709.425,795.527 709.829,795.563 710.365,795.625 720.933,797.167 721.755,797.323 732.875,799.927 733.821,800.199 734.093,800.293 737.283,804.681 738.061,805.643 738.935,806.517 745.357,812.299 746.317,813.077 747.355,813.751 752.855,816.927 755.143,817.539 757.435,818.027 766.075,819.397 768.007,819.599 776.649,820.053 777.559,820.077 812.991,820.077 813.899,820.053 822.541,819.599 824.473,819.397 833.113,818.027 835.405,817.539 837.697,816.925 843.195,813.751 844.233,813.077 845.193,812.299 851.615,806.517 852.489,805.643 853.267,804.681 856.457,800.291 856.727,800.199 857.673,799.927 868.793,797.323 869.615,797.167 880.183,795.625 880.719,795.563 881.125,795.525 882.253,792.583 883.107,789.399 884.903,780.945 885.419,777.691 885.591,774.399 885.591,765.757 885.419,762.465 884.903,759.211 883.107,750.757 882.253,747.573 881.073,744.497 877.557,736.601 876.061,733.665 874.267,730.901 873.551,729.915 847.479,729.915 845.193,727.857 844.233,727.079 843.195,726.405 835.711,722.085 834.609,721.523 833.455,721.081 830.367,720.077 760.183,720.077 757.095,721.081 755.941,721.523 754.839,722.085 747.355,726.405 746.317,727.079 745.357,727.857 743.071,729.915 716.999,729.915 716.283,730.901 714.489,733.665 712.993,736.601 709.477,744.497 708.297,747.573 707.443,750.757 705.647,759.211 705.131,762.465 704.959,765.757 704.959,774.399 724.635,774.399 724.701,775.633 724.893,776.855 726.691,785.309 727.011,786.503 727.453,787.657 730.969,795.551 731.529,796.653 732.203,797.689 734.093,800.293 737.283,804.681 738.061,805.643 738.935,806.517 745.357,812.299 746.317,813.077 747.355,813.751 752.855,816.927 755.143,817.539 757.435,818.027 766.075,819.397 768.007,819.599 776.649,820.053 777.559,820.077 812.991,820.077 813.899,820.053 822.541,819.599 824.473,819.397 833.113,818.027 835.405,817.539 837.697,816.925 843.195,813.751 844.233,813.077 845.193,812.299 851.615,806.517 852.489,805.643 853.267,804.681 858.347,797.689 859.021,796.653 859.581,795.551 863.097,787.657 863.539,786.503 863.859,785.309 865.657,776.855 865.849,775.633 865.915,774.399 865.915,765.757 865.849,764.523 865.657,763.301 863.859,754.849 863.539,753.653 863.097,752.499 859.581,744.605 859.021,743.503 858.347,742.467 853.267,735.475 852.489,734.515 851.615,733.639 847.479,729.915 845.193,727.857 844.233,727.079 843.195,726.405 835.711,722.085 834.609,721.523 833.455,721.081 830.367,720.077 760.183,720.077 757.095,721.081 755.941,721.523 754.839,722.085 747.355,726.405 746.317,727.079 745.357,727.857 738.935,733.639 738.061,734.515 737.283,735.475 732.203,742.467 731.529,743.503 730.969,744.605 727.453,752.499 727.011,753.653 726.691,754.849 724.893,763.301 724.701,764.523 724.635,765.757 724.635,774.399" style="stroke:rgb(0,0,0);stroke-width:1px;fill:none;stroke-opacity:1;stroke-linecap:round;stroke-linejoin:round;;fill:none"/>
<polyline points="704.959,674.399 705.131,677.691 705.647,680.945 707.443,689.399 708.297,692.583 709.477,695.659 712.993,703.555 714.489,706.491 716.283,709.255 716.997,710.239 743.069,710.239 745.357,712.299 746.317,713.077 747.355,713.751 754.839,718.071 755.941,718.633 757.095,719.075 760.177,720.077 830.373,720.077 833.455,719.075 834.609,718.633 835.711,718.071 843.195,713.751 844.233,713.077 845.193,712.299 847.481,710.239 873.553,710.239 874.267,709.255 876.061,706.491 877.557,703.555 881.073,695.659 882.253,692.583 883.107,689.399 884.903,680.945 885.419,677.691 885.591,674.399 885.591,665.757 885.419,662.465 884.903,659.211 883.107,650.757 882.253,647.573 881.073,644.497 877.557,636.601 876.061,633.665 874.267,630.901 869.187,623.909 867.113,621.347 864.781,619.017 858.359,613.235 855.799,611.159 853.033,609.365 845.549,605.043 842.613,603.547 839.535,602.367 831.317,599.695 828.133,598.843 824.877,598.327 816.283,597.423 812.991,597.251 777.559,597.251 774.267,597.423 765.673,598.327 762.417,598.843 759.233,599.695 751.015,602.367 747.937,603.547 745.001,605.043 737.517,609.365 734.751,611.159 732.191,613.235 725.769,619.017 723.437,621.347 721.363,623.909 716.283,630.901 714.489,633.665 712.993,636.601 709.477,644.497 708.297,647.573 707.443,650.757 705.647,659.211 705.131,662.465 704.959,665.757 704.959,674.399 724.635,674.399 724.701,675.633 724.893,676.855 726.691,685.309 727.011,686.503 727.453,687.657 730.969,695.551 731.529,696.653 732.203,697.689 737.283,704.681 738.061,705.643 738.935,706.517 743.069,710.239 745.357,712.299 746.317,713.077 747.355,713.751 754.839,718.071 755.941,718.633 757.095,719.075 760.177,720.077 830.373,720.077 833.455,719.075 834.609,718.633 835.711,718.071 843.195,713.751 844.233,713.077 845.193,712.299 851.615,706.517 852.489,705.643 853.267,704.681 858.347,697.689 859.021,696.653 859.581,695.551 863.097,687.657 863.539,686.503 863.859,685.309 865.657,676.855 865.849,675.633 865.915,674.399 865.915,665.757 865.849,664.523 865.657,663.301 863.859,654.849 863.539,653.653 863.097,652.499 859.581,644.605 859.021,643.503 858.347,642.467 853.267,635.475 852.489,634.515 851.615,633.639 845.193,627.857 844.233,627.079 843.195,626.405 835.711,622.085 834.609,621.523 833.455,621.081 825.237,618.409 824.041,618.089 822.821,617.897 814.227,616.993 812.991,616.929 777.559,616.929 776.323,616.993 767.729,617.897 766.509,618.089 765.313,618.409 757.095,621.081 755.941,621.523 754.839,622.085 747.355,626.405 746.317,627.079 745.357,627.857 738.935,633.639 738.061,634.515 737.283,635.475 732.203,642.467 731.529,643.503 730.969,644.605 727.453,652.499 727.011,653.653 726.691,654.849 724.893,663.301 724.701,664.523 724.635,665.757 724.635,674.399" style="stroke:rgb(90,37,93);stroke-width:23.622047;fill:none;stroke-opacity:0.5;stroke-linecap:round;stroke-linejoin:round;;fill:none"/>
<polyline points="704.959,674.399 705.131,677.691 705.647,680.945 707.443,689.399 708.297,692.583 709.477,695.659 712.993,703.555 714.489,706.491 716.283,709.255 716.997,710.239 743.069,710.239 745.357,712.299 746.317,713.077 747.355,713.751 754.839,718.071 755.941,718.633 757.095,719.075 760.177,720.077 830.373,720.077 833.455,719.075 834.609,718.633 835.711,718.071 843.195,713.751 844.233,713.077 845.193,712.299 847.481,710.239 873.553,710.239 874.267,709.255 876.061,706.491 877.557,703.555 881.073,695.659 882.253,692.583 883.107,689.399 884.903,680.945 885.419,677.691 885.591,674.399 885.591,665.757 885.419,662.465 884.903,659.211 883.107,650.757 882.253,647.573 881.073,644.497 877.557,636.601 876.061,633.665 874.267,630.901 869.187,623.909 867.113,621.347 864.781,619.017 858.359,613.235 855.799,611.159 853.033,609.365 845.549,605.043 842.613,603.547 839.535,602.367 831.317,599.695 828.133,598.843 824.877,598.327 816.283,597.423 812.991,597.251 777.559,597.251 774.267,597.423 765.673,598.327 762.417,598.843 759.233,599.695 751.015,602.367 747.937,603.547 745.001,605.043 737.517,609.365 734.751,611.159 732.191,613.235 725.769,619.017 723.437,621.347 721.363,623.909 716.283,630.901 714.489,633.665 712.993,636.601 709.477,644.497 708.297,647.573 707.443,650.757 705.647,659.211 705.131,662.465 704.959,665.757 704.959,674.399 724.635,674.399 724.701,675.633 724.893,676.855 726.691,685.309 727.011,686.503 727.453,687.657 730.969,695.551 731.529,696.653 732.203,697.689 737.283,704.681 738.061,705.643 738.935,706.517 743.069,710.239 745.357,712.299 746.317,713.077 747.355,713.751 754.839,718.071 755.941,718.633 757.095,719.075 760.177,720.077 830.373,720.077 833.455,719.075 834.609,718.633 835.711,718.071 843.195,713.751 844.233,713.077 845.193,712.299 851.615,706.517 852.489,705.643 853.267,704.681 858.347,697.689 859.021,696.653 859.581,695.551 863.097,687.657 863.539,686.503 863.859,685.309 865.657,676.855 865.849,675.633 865.915,674.399 865.915,665.757 865.849,664.523 865.657,663.301 863.859,654.849 863.539,653.653 863.097,652.499 859.581,644.605 859.021,643.503 858.347,642.467 853.267,635.475 852.489,634.515 851.615,633.639 845.193,627.857 844.233,627.079 843.195,626.405 835.711,622.085 834.609,621.523 833.455,621.081 825.237,618.409 824.041,618.089 822.821,617.897 814.227,616.993 812.991,616.929 777.559,616.929 776.323,616.993 767.729,617.897 766.509,618.089 765.313,618.409 757.095,621.081 755.941,621.523 754.839,622.085 747.355,626.405 746.317,627.079 745.357,627.857 738.935,633.639 738.061,634.515 737.283,635.475 732.203,642.467 731.529,643.503 730.969,644.605 727.453,652.499 727.011,653.653 726.691,654.849 724.893,663.301 724.701,664.523 724.635,665.757 724.635,674.399" style="stroke:rgb(0,0,0);stroke-width:1px;fill:none;stroke-opacity:1;stroke-linecap:round;stroke-linejoin:round;;fill:none"/>
<polyline points="851.975,358.267 852.149,361.559 853.525,374.655 854.041,377.911 854.893,381.095 858.963,393.619 860.145,396.695 861.641,399.633 868.225,411.037 870.019,413.801 872.095,416.363 880.905,426.149 883.237,428.479 885.797,430.553 896.451,438.295 899.215,440.089 902.153,441.585 914.183,446.943 917.261,448.123 920.443,448.977 933.325,451.715 936.581,452.229 939.871,452.403 953.041,452.403 956.331,452.229 959.587,451.715 972.469,448.977 975.653,448.123 978.729,446.943 990.759,441.585 993.697,440.089 996.461,438.295 1007.11,430.553 1009.67,428.479 1012.01,426.149 1020.82,416.363 1022.89,413.801 1024.69,411.037 1031.27,399.633 1032.77,396.695 1033.95,393.619 1038.02,381.095 1038.87,377.911 1039.39,374.655 1040.76,361.559 1040.94,358.267 1040.76,354.975 1039.39,341.879 1038.87,338.623 1038.02,335.439 1033.95,322.915 1032.77,319.839 1031.27,316.901 1024.69,305.497 1022.89,302.733 1020.82,300.171 1012.01,290.385 1009.67,288.055 1007.11,285.981 996.461,278.239 993.697,276.445 990.759,274.949 978.729,269.593 975.653,268.411 972.469,267.557 959.587,264.819 956.331,264.305 953.041,264.131 939.871,264.131 936.581,264.305 933.325,264.819 920.443,267.557 917.261,268.411 914.183,269.593 902.153,274.949 899.215,276.445 896.451,278.239 885.797,285.981 883.237,288.055 880.905,290.385 872.095,300.171 870.019,302.733 868.225,305.497 861.641,316.901 860.145,319.839 858.963,322.915 854.893,335.439 854.041,338.623 853.525,341.879 852.149,354.975 851.975,358.267 871.653,358.267 871.717,359.501 873.095,372.599 873.287,373.819 873.607,375.013 877.677,387.539 878.121,388.693 878.681,389.793 885.265,401.199 885.939,402.235 886.717,403.197 895.529,412.983 896.403,413.857 897.363,414.635 908.017,422.375 909.055,423.049 910.157,423.609 922.187,428.967 923.341,429.409 924.535,429.729 937.415,432.467 938.637,432.661 939.871,432.725 953.041,432.725 954.275,432.661 955.497,432.467 968.377,429.729 969.571,429.409 970.725,428.967 982.757,423.609 983.857,423.049 984.895,422.375 995.549,414.635 996.509,413.857 997.383,412.983 1006.19,403.197 1006.97,402.235 1007.65,401.199 1014.23,389.793 1014.79,388.693 1015.23,387.539 1019.3,375.013 1019.62,373.819 1019.82,372.599 1021.19,359.501 1021.26,358.267 1021.19,357.033 1019.82,343.935 1019.62,342.715 1019.3,341.521 1015.23,328.997 1014.79,327.841 1014.23,326.741 1007.65,315.335 1006.97,314.299 1006.19,313.339 997.383,303.551 996.509,302.677 995.549,301.899 984.895,294.159 983.857,293.485 982.757,292.925 970.725,287.569 969.571,287.125 968.377,286.805 955.497,284.067 954.275,283.873 953.041,283.809 939.871,283.809 938.637,283.873 937.415,284.067 924.535,286.805 923.341,287.125 922.187,287.569 910.157,292.925 909.055,293.485 908.017,294.159 897.363,301.899 896.403,302.677 895.529,303.551 886.717,313.339 885.939,314.299 885.265,315.335 878.681,326.741 878.121,327.841 877.677,328.997 873.607,341.521 873.287,342.715 873.095,343.935 871.717,357.033 871.653,358.267" style="stroke:rgb(5,23,88);stroke-width:23.622047;fill:none;stroke-opacity:0.5;stroke-linecap:round;stroke-linejoin:round;;fill:none"/>
<polyline points="851.975,358.267 852.149,361.559 853.525,374.655 854.041,377.911 854.893,381.095 858.963,393.619 860.145,396.695 861.641,399.633 868.225,411.037 870.019,413.801 872.095,416.363 880.905,426.149 883.237,428.479 885.797,430.553 896.451,438.295 899.215,440.089 902.153,441.585 914.183,446.943 917.261,448.123 920.443,448.977 933.325,451.715 936.581,452.229 939.871,452.403 953.041,452.403 956.331,452.229 959.587,451.715 972.469,448.977 975.653,448.123 978.729,446.943 990.759,441.585 993.697,440.089 996.461,438.295 1007.11,430.553 1009.67,428.479 1012.01,426.149 1020.82,416.363 1022.89,413.801 1024.69,411.037 1031.27,399.633 1032.77,396.695 1033.95,393.619 1038.02,381.095 1038.87,377.911 1039.39,374.655 1040.76,361.559 1040.94,358.267 1040.76,354.975 1039.39,341.879 1038.87,338.623 1038.02,335.439 1033.95,322.915 1032.77,319.839 1031.27,316.901 1024.69,305.497 1022.89,302.733 1020.82,300.171 1012.01,290.385 1009.67,288.055 1007.11,285.981 996.461,278.239 993.697,276.445 990.759,274.949 978.729,269.593 975.653,268.411 972.469,267.557 959.587,264.819 956.331,264.305 953.041,264.131 939.871,264.131 936.581,264.305 933.325,264.819 920.443,267.557 917.261,268.411 914.183,269.593 902.153,274.949 899.215,276.445 896.451,278.239 885.797,285.981 883.237,288.055 880.905,290.385 872.095,300.171 870.019,302.733 868.225,305.497 861.641,316.901 860.145,319.839 858.963,322.915 854.893,335.439 854.041,338.623 853.525,341.879 852.149,354.975 851.975,358.267 871.653,358.267 871.717,359.501 873.095,372.599 873.287,373.819 873.607,375.013 877.677,387.539 878.121,388.693 878.681,389.793 885.265,401.199 885.939,402.235 886.717,403.197 895.529,412.983 896.403,413.857 897.363,414.635 908.017,422.375 909.055,423.049 910.157,423.609 922.187,428.967 923.341,429.409 924.535,429.729 937.415,432.467 938.637,432.661 939.871,432.725 953.041,432.725 954.275,432.661 955.497,432.467 968.377,429.729 969.571,429.409 970.725,428.967 982.757,423.609 983.857,423.049 984.895,422.375 995.549,414.635 996.509,413.857 997.383,412.983 1006.19,403.197 1006.97,402.235 1007.65,401.199 1014.23,389.793 1014.79,388.693 1015.23,387.539 1019.3,375.013 1019.62,373.819 1019.82,372.599 1021.19,359.501 1021.26,358.267 1021.19,357.033 1019.82,343.935 1019.62,342.715 1019.3,341.521 1015.23,328.997 1014.79,327.841 1014.23,326.741 1007.65,315.335 1006.97,314.299 1006.19,313.339 997.383,303.551 996.509,302.677 995.549,301.899 984.895,294.159 983.857,293.485 982.757,292.925 970.725,287.569 969.571,287.125 968.377,286.805 955.497,284.067 954.275,283.873 953.041,283.809 939.871,283.809 938.637,283.873 937.415,284.067 924.535,286.805 923.341,287.125 922.187,287.569 910.157,292.925 909.055,293.485 908.017,294.159 897.363,301.899 896.403,302.677 895.529,303.551 886.717,313.339 885.939,314.299 885.265,315.335 878.681,326.741 878.121,327.841 877.677,328.997 873.607,341.521 873.287,342.715 873.095,343.935 871.717,357.033 871.653,358.267" style="stroke:rgb(0,0,0);stroke-width:1px;fill:none;stroke-opacity:1;stroke-linecap:round;stroke-linejoin:round;;fill:none"/>
<polyline points="1651.97,358.267 1652.15,361.559 1653.52,374.655 1654.04,377.911 1654.89,381.095 1658.96,393.619 1660.14,396.695 1661.64,399.633 1668.22,411.037 1670.02,413.801 1672.09,416.363 1680.9,426.149 1683.24,428.479 1685.8,430.553 1696.45,438.295 1699.21,440.089 1702.15,441.585 1714.18,446.943 1717.26,448.123 1720.44,448.977 1733.32,451.715 1736.58,452.229 1739.87,452.403 1753.04,452.403 1756.33,452.229 1759.59,451.715 1772.47,448.977 1775.65,448.123 1778.73,446.943 1790.76,441.585 1793.7,440.089 1796.46,438.295 1807.11,430.553 1809.67,428.479 1812.01,426.149 1820.82,416.363 1822.89,413.801 1824.69,411.037 1831.27,399.633 1832.77,396.695 1833.95,393.619 1838.02,381.095 1838.87,377.911 1839.39,374.655 1840.76,361.559 1840.94,358.267 1840.76,354.975 1839.39,341.879 1838.87,338.623 1838.02,335.439 1833.95,322.915 1832.77,319.839 1831.27,316.901 1824.69,305.497 1822.89,302.733 1820.82,300.171 1812.01,290.385 1809.67,288.055 1807.11,285.981 1796.46,278.239 1793.7,276.445 1790.76,274.949 1778.73,269.593 1775.65,268.411 1772.47,267.557 1759.59,264.819 1756.33,264.305 1753.04,264.131 1739.87,264.131 1736.58,264.305 1733.32,264.819 1720.44,267.557 1717.26,268.411 1714.18,269.593 1702.15,274.949 1699.21,276.445 1696.45,278.239 1685.8,285.981 1683.24,288.055 1680.9,290.385 1672.09,300.171 1670.02,302.733 1668.22,305.497 1661.64,316.901 1660.14,319.839 1658.96,322.915 1654.89,335.439 1654.04,338.623 1653.52,341.879 1652.15,354.975 1651.97,358.267 1671.65,358.267 1671.72,359.501 1673.09,372.599 1673.29,373.819 1673.61,375.013 1677.68,387.539 1678.12,388.693 1678.68,389.793 1685.26,401.199 1685.94,402.235 1686.72,403.197 1695.53,412.983 1696.4,413.857 1697.36,414.635 1708.02,422.375 1709.05,423.049 1710.16,423.609 1722.19,428.967 1723.34,429.409 1724.53,429.729 1737.41,432.467 1738.64,432.661 1739.87,432.725 1753.04,432.725 1754.27,432.661 1755.5,432.467 1768.38,429.729 1769.57,429.409 1770.72,428.967 1782.76,423.609 1783.86,423.049 1784.89,422.375 1795.55,414.635 1796.51,413.857 1797.38,412.983 1806.19,403.197 1806.97,402.235 1807.65,401.199 1814.23,389.793 1814.79,388.693 1815.23,387.539 1819.3,375.013 1819.62,373.819 1819.82,372.599 1821.19,359.501 1821.26,358.267 1821.19,357.033 1819.82,343.935 1819.62,342.715 1819.3,341.521 1815.23,328.997 1814.79,327.841 1814.23,326.741 1807.65,315.335 1806.97,314.299 1806.19,313.339 1797.38,303.551 1796.51,302.677 1795.55,301.899 1784.89,294.159 1783.86,293.485 1782.76,292.925 1770.72,287.569 1769.57,287.125 1768.38,286.805 1755.5,284.067 1754.27,283.873 1753.04,283.809 1739.87,283.809 1738.64,283.873 1737.41,284.067 1724.53,286.805 1723.34,287.125 1722.19,287.569 1710.16,292.925 1709.05,293.485 1708.02,294.159 1697.36,301.899 1696.4,302.677 1695.53,303.551 1686.72,313.339 1685.94,314.299 1685.26,315.335 1678.68,326.741 1678.12,327.841 1677.68,328.997 1673.61,341.521 1673.29,342.715 1673.09,343.935 1671.72,357.033 1671.65,358.267" style="stroke:rgb(233,94,212);stroke-width:23.622047;fill:none;stroke-opacity:0.5;stroke-linecap:round;stroke-linejoin:round;;fill:none"/>
<polyline points="1651.97,358.267 1652.15,361.559 1653.52,374.655 1654.04,377.911 1654.89,381.095 1658.96,393.619 1660.14,396.695 1661.64,399.633 1668.22,411.037 1670.02,413.801 1672.09,416.363 1680.9,426.149 1683.24,428.479 1685.8,430.553 1696.45,438.295 1699.21,440.089 1702.15,441.585 1714.18,446.943 1717.26,448.123 1720.44,448.977 1733.32,451.715 1736.58,452.229 1739.87,452.403 1753.04,452.403 1756.33,452.229 1759.59,451.715 1772.47,448.977 1775.65,448.123 1778.73,446.943 1790.76,441.585 1793.7,440.089 1796.46,438.295 1807.11,430.553 1809.67,428.479 1812.01,426.149 1820.82,416.363 1822.89,413.801 1824.69,411.037 1831.27,399.633 1832.77,396.695 1833.95,393.619 1838.02,381.095 1838.87,377.911 1839.39,374.655 1840.76,361.559 1840.94,358.267 1840.76,354.975 1839.39,341.879 1838.87,338.623 1838.02,335.439 1833.95,322.915 1832.77,319.839 1831.27,316.901 1824.69,305.497 1822.89,302.733 1820.82,300.171 1812.01,290.385 1809.67,288.055 1807.11,285.981 1796.46,278.239 1793.7,276.445 1790.76,274.949 1778.73,269.593 1775.65,268.411 1772.47,267.557 1759.59,264.819 1756.33,264.305 1753.04,264.131 1739.87,264.131 1736.58,264.305 1733.32,264.819 1720.44,267.557 1717.26,268.411 1714.18,269.593 1702.15,274.949 1699.21,276.445 1696.45,278.239 1685.8,285.981 1683.24,288.055 1680.9,290.385 1672.09,300.171 1670.02,302.733 1668.22,305.497 1661.64,316.901 1660.14,319.839 1658.96,322.915 1654.89,335.439 1654.04,338.623 1653.52,341.879 1652.15,354.975 1651.97,358.267 1671.65,358.267 1671.72,359.501 1673.09,372.599 1673.29,373.819 1673.61,375.013 1677.68,387.539 1678.12,388.693 1678.68,389.793 1685.26,401.199 1685.94,402.235 1686.72,403.197 1695.53,412.983 1696.4,413.857 1697.36,414.635 1708.02,422.375 1709.05,423.049 1710.16,423.609 1722.19,428.967 1723.34,429.409 1724.53,429.729 1737.41,432.467 1738.64,432.661 1739.87,432.725 1753.04,432.725 1754.27,432.661 1755.5,432.467 1768.38,429.729 1769.57,429.409 1770.72,428.967 1782.76,423.609 1783.86,423.049 1784.89,422.375 1795.55,414.635 1796.51,413.857 1797.38,412.983 1806.19,403.197 1806.97,402.235 1807.65,401.199 1814.23,389.793 1814.79,388.693 1815.23,387.539 1819.3,375.013 1819.62,373.819 1819.82,372.599 1821.19,359.501 1821.26,358.267 1821.19,357.033 1819.82,343.935 1819.62,342.715 1819.3,341.521 1815.23,328.997 1814.79,327.841 1814.23,326.741 1807.65,315.335 1806.97,314.299 1806.19,313.339 1797.38,303.551 1796.51,302.677 1795.55,301.899 1784.89,294.159 1783.86,293.485 1782.76,292.925 1770.72,287.569 1769.57,287.125 1768.38,286.805 1755.5,284.067 1754.27,283.873 1753.04,283.809 1739.87,283.809 1738.64,283.873 1737.41,284.067 1724.53,286.805 1723.34,287.125 1722.19,287.569 1710.16,292.925 1709.05,293.485 1708.02,294.159 1697.36,301.899 1696.4,302.677 1695.53,303.551 1686.72,313.339 1685.94,314.299 1685.26,315.335 1678.68,326.741 1678.12,327.841 1677.68,328.997 1673.61,341.521 1673.29,342.715 1673.09,343.935 1671.72,357.033 1671.65,358.267" style="stroke:rgb(0,0,0);stroke-width:1px;fill:none;stroke-opacity:1;stroke-linecap:round;stroke-linejoin:round;;fill:none"/>
<polyline points="346.463,1893.7 346.637,1896.99 348.013,1910.09 348.529,1913.34 349.381,1916.53 353.451,1929.05 354.633,1932.13 356.129,1935.06 362.713,1946.47 364.509,1949.23 366.583,1951.79 375.395,1961.58 377.725,1963.91 380.287,1965.99 390.939,1973.73 393.705,1975.52 396.641,1977.02 408.671,1982.37 411.749,1983.56 414.931,1984.41 427.813,1987.15 431.069,1987.66 434.359,1987.83 447.529,1987.83 450.821,1987.66 454.075,1987.15 466.957,1984.41 470.141,1983.56 473.217,1982.37 485.247,1977.02 488.185,1975.52 490.949,1973.73 501.603,1965.99 504.163,1963.91 506.495,1961.58 515.307,1951.79 517.381,1949.23 519.175,1946.47 525.761,1935.06 527.257,1932.13 528.437,1929.05 532.507,1916.53 533.359,1913.34 533.875,1910.09 535.253,1896.99 535.425,1893.7 535.253,1890.41 533.875,1877.31 533.359,1874.06 532.507,1870.87 528.437,1858.35 527.257,1855.27 525.761,1852.33 519.175,1840.93 517.381,1838.17 515.307,1835.6 506.495,1825.82 504.163,1823.49 501.603,1821.41 490.949,1813.67 488.185,1811.88 485.247,1810.38 473.217,1805.02 470.141,1803.84 466.957,1802.99 454.075,1800.25 450.821,1799.74 447.529,1799.56 434.359,1799.56 431.069,1799.74 427.813,1800.25 414.931,1802.99 411.749,1803.84 408.671,1805.02 396.641,1810.38 393.705,1811.88 390.939,1813.67 380.287,1821.41 377.725,1823.49 375.395,1825.82 366.583,1835.6 364.509,1838.17 362.713,1840.93 356.129,1852.33 354.633,1855.27 353.451,1858.35 349.381,1870.87 348.529,1874.06 348.013,1877.31 346.637,1890.41 346.463,1893.7 366.141,1893.7 366.205,1894.93 367.583,1908.03 367.775,1909.25 368.095,1910.45 372.165,1922.97 372.609,1924.12 373.169,1925.23 379.753,1936.63 380.427,1937.67 381.205,1938.63 390.017,1948.41 390.891,1949.29 391.851,1950.07 402.505,1957.81 403.543,1958.48 404.645,1959.04 416.675,1964.4 417.829,1964.84 419.023,1965.16 431.905,1967.9 433.125,1968.09 434.359,1968.16 447.529,1968.16 448.763,1968.09 449.985,1967.9 462.865,1965.16 464.059,1964.84 465.213,1964.4 477.245,1959.04 478.345,1958.48 479.383,1957.81 490.037,1950.07 490.997,1949.29 491.871,1948.41 500.683,1938.63 501.461,1937.67 502.135,1936.63 508.719,1925.23 509.281,1924.12 509.723,1922.97 513.793,1910.45 514.113,1909.25 514.307,1908.03 515.683,1894.93 515.747,1893.7 515.683,1892.46 514.307,1879.37 514.113,1878.15 513.793,1876.95 509.723,1864.43 509.281,1863.27 508.719,1862.17 502.135,1850.77 501.461,1849.73 500.683,1848.77 491.871,1838.98 490.997,1838.11 490.037,1837.33 479.383,1829.59 478.345,1828.92 477.245,1828.36 465.213,1823 464.059,1822.56 462.865,1822.24 449.985,1819.5 448.763,1819.31 447.529,1819.24 434.359,1819.24 433.125,1819.31 431.905,1819.5 419.023,1822.24 417.829,1822.56 416.675,1823 404.645,1828.36 403.543,1828.92 402.505,1829.59 391.851,1837.33 390.891,1838.11 390.017,1838.98 381.205,1848.77 380.427,1849.73 379.753,1850.77 373.169,1862.17 372.609,1863.27 372.165,1864.43 368.095,1876.95 367.775,1878.15 367.583,1879.37 366.205,1892.46 366.141,1893.7" style="stroke:rgb(171,178,205);stroke-width:23.622047;fill:none;stroke-opacity:0.5;stroke-linecap:round;stroke-linejoin:round;;fill:none"/>
<polyline points="346.463,1893.7 346.637,1896.99 348.013,1910.09 348.529,1913.34 349.381,1916.53 353.451,1929.05 354.633,1932.13 356.129,1935.06 362.713,1946.47 364.509,1949.23 366.583,1951.79 375.395,1961.58 377.725,1963.91 380.287,1965.99 390.939,1973.73 393.705,1975.52 396.641,1977.02 408.671,1982.37 411.749,1983.56 414.931,1984.41 427.813,1987.15 431.069,1987.66 434.359,1987.83 447.529,1987.83 450.821,1987.66 454.075,1987.15 466.957,1984.41 470.141,1983.56 473.217,1982.37 485.247,1977.02 488.185,1975.52 490.949,1973.73 501.603,1965.99 504.163,1963.91 506.495,1961.58 515.307,1951.79 517.381,1949.23 519.175,1946.47 525.761,1935.06 527.257,1932.13 528.437,1929.05 532.507,1916.53 533.359,1913.34 533.875,1910.09 535.253,1896.99 535.425,1893.7 535.253,1890.41 533.875,1877.31 533.359,1874.06 532.507,1870.87 528.437,1858.35 527.257,1855.27 525.761,1852.33 519.175,1840.93 517.381,1838.17 515.307,1835.6 506.495,1825.82 504.163,1823.49 501.603,1821.41 490.949,1813.67 488.185,1811.88 485.247,1810.38 473.217,1805.02 470.141,1803.84 466.957,1802.99 454.075,1800.25 450.821,1799.74 447.529,1799.56 434.359,1799.56 431.069,1799.74 427.813,1800.25 414.931,1802.99 411.749,1803.84 408.671,1805.02 396.641,1810.38 393.705,1811.88 390.939,1813.67 380.287,1821.41 377.725,1823.49 375.395,1825.82 366.583,1835.6 364.509,1838.17 362.713,1840.93 356.129,1852.33 354.633,1855.27 353.451,1858.35 349.381,1870.87 348.529,1874.06 348.013,1877.31 346.637,1890.41 346.463,1893.7 366.141,1893.7 366.205,1894.93 367.583,1908.03 367.775,1909.25 368.095,1910.45 372.165,1922.97 372.609,1924.12 373.169,1925.23 379.753,1936.63 380.427,1937.67 381.205,1938.63 390.017,1948.41 390.891,1949.29 391.851,1950.07 402.505,1957.81 403.543,1958.48 404.645,1959.04 416.675,1964.4 417.829,1964.84 419.023,1965.16 431.905,1967.9 433.125,1968.09 434.359,1968.16 447.529,1968.16 448.763,1968.09 449.985,1967.9 462.865,1965.16 464.059,1964.84 465.213,1964.4 477.245,1959.04 478.345,1958.48 479.383,1957.81 490.037,1950.07 490.997,1949.29 491.871,1948.41 500.683,1938.63 501.461,1937.67 502.135,1936.63 508.719,1925.23 509.281,1924.12 509.723,1922.97 513.793,1910.45 514.113,1909.25 514.307,1908.03 515.683,1894.93 515.747,1893.7 515.683,1892.46 514.307,1879.37 514.113,1878.15 513.793,1876.95 509.723,1864.43 509.281,1863.27 508.719,1862.17 502.135,1850.77 501.461,1849.73 500.683,1848.77 491.871,1838.98 490.997,1838.11 490.037,1837.33 479.383,1829.59 478.345,1828.92 477.245,1828.36 465.213,1823 464.059,1822.56 462.865,1822.24 449.985,1819.5 448.763,1819.31 447.529,1819.24 434.359,1819.24 433.125,1819.31 431.905,1819.5 419.023,1822.24 417.829,1822.56 416.675,1823 404.645,1828.36 403.543,1828.92 402.505,1829.59 391.851,1837.33 390.891,1838.11 390.017,1838.98 381.205,1848.77 380.427,1849.73 379.753,1850.77 373.169,1862.17 372.609,1863.27 372.165,1864.43 368.095,1876.95 367.775,1878.15 367.583,1879.37 366.205,1892.46 366.141,1893.7" style="stroke:rgb(0,0,0);stroke-width:1px;fill:none;stroke-opacity:1;stroke-linecap:round;stroke-linejoin:round;;fill:none"/>
<polyline points="346.463,1093.7 346.637,1096.99 348.013,1110.09 348.529,1113.34 349.381,1116.53 353.451,1129.05 354.633,1132.13 356.129,1135.06 362.713,1146.47 364.509,1149.23 366.583,1151.79 375.395,1161.58 377.725,1163.91 380.287,1165.99 390.939,1173.73 393.705,1175.52 396.641,1177.02 408.671,1182.37 411.749,1183.56 414.931,1184.41 427.813,1187.15 431.069,1187.66 434.359,1187.83 447.529,1187.83 450.821,1187.66 454.075,1187.15 466.957,1184.41 470.141,1183.56 473.217,1182.37 485.247,1177.02 488.185,1175.52 490.949,1173.73 501.603,1165.99 504.163,1163.91 506.495,1161.58 515.307,1151.79 517.381,1149.23 519.175,1146.47 525.761,1135.06 527.257,1132.13 528.437,1129.05 532.507,1116.53 533.359,1113.34 533.875,1110.09 535.253,1096.99 535.425,1093.7 535.253,1090.41 533.875,1077.31 533.359,1074.06 532.507,1070.87 528.437,1058.35 527.257,1055.27 525.761,1052.33 519.175,1040.93 517.381,1038.17 515.307,1035.6 506.495,1025.82 504.163,1023.49 501.603,1021.41 490.949,1013.67 488.185,1011.88 485.247,1010.38 473.217,1005.02 470.141,1003.84 466.957,1002.99 454.075,1000.25 450.821,999.737 447.529,999.565 434.359,999.565 431.069,999.737 427.813,1000.25 414.931,1002.99 411.749,1003.84 408.671,1005.02 396.641,1010.38 393.705,1011.88 390.939,1013.67 380.287,1021.41 377.725,1023.49 375.395,1025.82 366.583,1035.6 364.509,1038.17 362.713,1040.93 356.129,1052.33 354.633,1055.27 353.451,1058.35 349.381,1070.87 348.529,1074.06 348.013,1077.31 346.637,1090.41 346.463,1093.7 366.141,1093.7 366.205,1094.93 367.583,1108.03 367.775,1109.25 368.095,1110.45 372.165,1122.97 372.609,1124.12 373.169,1125.23 379.753,1136.63 380.427,1137.67 381.205,1138.63 390.017,1148.41 390.891,1149.29 391.851,1150.07 402.505,1157.81 403.543,1158.48 404.645,1159.04 416.675,1164.4 417.829,1164.84 419.023,1165.16 431.905,1167.9 433.125,1168.09 434.359,1168.16 447.529,1168.16 448.763,1168.09 449.985,1167.9 462.865,1165.16 464.059,1164.84 465.213,1164.4 477.245,1159.04 478.345,1158.48 479.383,1157.81 490.037,1150.07 490.997,1149.29 491.871,1148.41 500.683,1138.63 501.461,1137.67 502.135,1136.63 508.719,1125.23 509.281,1124.12 509.723,1122.97 513.793,1110.45 514.113,1109.25 514.307,1108.03 515.683,1094.93 515.747,1093.7 515.683,1092.46 514.307,1079.37 514.113,1078.15 513.793,1076.95 509.723,1064.43 509.281,1063.27 508.719,1062.17 502.135,1050.77 501.461,1049.73 500.683,1048.77 491.871,1038.98 490.997,1038.11 490.037,1037.33 479.383,1029.59 478.345,1028.92 477.245,1028.36 465.213,1023 464.059,1022.56 462.865,1022.24 449.985,1019.5 448.763,1019.31 447.529,1019.24 434.359,1019.24 433.125,1019.31 431.905,1019.5 419.023,1022.24 417.829,1022.56 416.675,1023 404.645,1028.36 403.543,1028.92 402.505,1029.59 391.851,1037.33 390.891,1038.11 390.017,1038.98 381.205,1048.77 380.427,1049.73 379.753,1050.77 373.169,1062.17 372.609,1063.27 372.165,1064.43 368.095,1076.95 367.775,1078.15 367.583,1079.37 366.205,1092.46 366.141,1093.7" style="stroke:rgb(198,155,180);stroke-width:23.622047;fill:none;stroke-opacity:0.5;stroke-linecap:round;stroke-linejoin:round;;fill:none"/>
<polyline points="346.463,1093.7 346.637,1096.99 348.013,1110.09 348.529,1113.34 349.381,1116.53 353.451,1129.05 354.633,1132.13 356.129,1135.06 362.713,1146.47 364.509,1149.23 366.583,1151.79 375.395,1161.58 377.725,1163.91 380.287,1165.99 390.939,1173.73 393.705,1175.52 396.641,1177.02 408.671,1182.37 411.749,1183.56 414.931,1184.41 427.813,1187.15 431.069,1187.66 434.359,1187.83 447.529,1187.83 450.821,1187.66 454.075,1187.15 466.957,1184.41 470.141,1183.56 473.217,1182.37 485.247,1177.02 488.185,1175.52 490.949,1173.73 501.603,1165.99 504.163,1163.91 506.495,1161.58 515.307,1151.79 517.381,1149.23 519.175,1146.47 525.761,1135.06 527.257,1132.13 528.437,1129.05 532.507,1116.53 533.359,1113.34 533.875,1110.09 535.253,1096.99 535.425,1093.7 535.253,1090.41 533.875,1077.31 533.359,1074.06 532.507,1070.87 528.437,1058.35 527.257,1055.27 525.761,1052.33 519.175,1040.93 517.381,1038.17 515.307,1035.6 506.495,1025.82 504.163,1023.49 501.603,1021.41 490.949,1013.67 488.185,1011.88 485.247,1010.38 473.217,1005.02 470.141,1003.84 466.957,1002.99 454.075,1000.25 450.821,999.737 447.529,999.565 434.359,999.565 431.069,999.737 427.813,1000.25 414.931,1002.99 411.749,1003.84 408.671,1005.02 396.641,1010.38 393.705,1011.88 390.939,1013.67 380.287,1021.41 377.725,1023.49 375.395,1025.82 366.583,1035.6 364.509,1038.17 362.713,1040.93 356.129,1052.33 354.633,1055.27 353.451,1058.35 349.381,1070.87 348.529,1074.06 348.013,1077.31 346.637,1090.41 346.463,1093.7 366.141,1093.7 366.205,1094.93 367.583,1108.03 367.775,1109.25 368.095,1110.45 372.165,1122.97 372.609,1124.12 373.169,1125.23 379.753,1136.63 380.427,1137.67 381.205,1138.63 390.017,1148.41 390.891,1149.29 391.851,1150.07 402.505,1157.81 403.543,1158.48 404.645,1159.04 416.675,1164.4 417.829,1164.84 419.023,1165.16 431.905,1167.9 433.125,1168.09 434.359,1168.16 447.529,1168.16 448.763,1168.09 449.985,1167.9 462.865,1165.16 464.059,1164.84 465.213,1164.4 477.245,1159.04 478.345,1158.48 479.383,1157.81 490.037,1150.07 490.997,1149.29 491.871,1148.41 500.683,1138.63 501.461,1137.67 502.135,1136.63 508.719,1125.23 509.281,1124.12 509.723,1122.97 513.793,1110.45 514.113,1109.25 514.307,1108.03 515.683,1094.93 515.747,1093.7 515.683,1092.46 514.307,1079.37 514.113,1078.15 513.793,1076.95 509.723,1064.43 509.281,1063.27 508.719,1062.17 502.135,1050.77 501.461,1049.73 500.683,1048.77 491.871,1038.98 490.997,1038.11 490.037,1037.33 479.383,1029.59 478.345,1028.92 477.245,1028.36 465.213,1023 464.059,1022.56 462.865,1022.24 449.985,1019.5 448.763,1019.31 447.529,1019.24 434.359,1019.24 433.125,1019.31 431.905,1019.5 419.023,1022.24 417.829,1022.56 416.675,1023 404.645,1028.36 403.543,1028.92 402.505,1029.59 391.851,1037.33 390.891,1038.11 390.017,1038.98 381.205,1048.77 380.427,1049.73 379.753,1050.77 373.169,1062.17 372.609,1063.27 372.165,1064.43 368.095,1076.95 367.775,1078.15 367.583,1079.37 366.205,1092.46 366.141,1093.7" style="stroke:rgb(0,0,0);stroke-width:1px;fill:none;stroke-opacity:1;stroke-linecap:round;stroke-linejoin:round;;fill:none"/>
</svg>
